{"glyphs":{"0":{"ha":739,"x_min":71,"x_max":669,"o":"m 374 791 l 374 791 q 302 739 332 791 l 302 739 q 247 410 247 640 l 247 410 q 284 153 247 253 q 374 53 321 53 l 374 53 q 492 445 492 53 l 492 445 q 461 698 492 606 q 374 791 430 791 z m 112 636 q 223 791 153 734 q 363 848 293 848 q 488 819 434 848 q 582 736 542 790 l 582 736 q 669 422 669 621 l 669 422 q 629 208 669 306 q 521 53 589 110 q 382 -4 453 -4 q 257 25 311 -4 q 161 107 202 54 l 161 107 q 71 422 71 223 l 71 422 q 112 636 71 537 z "},"1":{"ha":739,"x_min":159,"x_max":581,"o":"m 176 694 l 176 694 q 159 720 159 704 q 161 736 159 736 l 161 736 q 307 800 227 764 l 307 800 q 472 872 470 872 l 472 872 l 475 872 q 491 846 486 872 l 491 846 q 479 719 479 807 l 479 719 l 479 197 q 490 69 479 96 l 490 69 q 576 45 496 51 l 576 45 q 581 19 581 37 q 576 -5 581 1 l 576 -5 q 391 4 484 4 q 205 -5 297 4 l 205 -5 q 200 19 201 1 q 205 45 200 37 l 205 45 q 292 69 285 51 l 292 69 q 302 197 302 96 l 302 197 l 302 654 q 297 712 302 698 q 277 726 291 726 q 230 715 263 726 q 176 694 196 705 z "},"2":{"ha":739,"x_min":76,"x_max":663,"o":"m 663 260 l 663 260 q 614 98 646 191 q 582 0 583 5 l 582 0 l 88 0 q 76 24 79 9 l 76 24 q 146 101 88 38 q 225 187 205 164 l 225 187 q 367 381 296 271 q 437 609 437 492 l 437 609 q 393 720 437 674 q 292 765 349 765 l 292 765 q 146 682 210 765 l 146 682 q 136 669 136 669 l 136 669 q 118 678 129 669 q 107 701 107 688 l 107 701 q 194 805 130 751 l 194 805 q 376 871 271 871 q 547 810 480 871 q 614 638 614 749 q 511 407 614 528 l 511 407 q 256 138 369 241 l 256 138 l 490 138 q 542 150 526 138 q 563 166 557 162 q 576 181 569 171 q 586 195 583 191 q 596 212 590 200 q 604 228 602 223 l 604 228 q 615 256 610 243 q 637 269 621 269 q 663 260 653 269 z "},"3":{"ha":739,"x_min":90,"x_max":650,"o":"m 595 697 l 595 697 q 486 525 595 597 l 486 525 q 448 505 465 511 l 448 505 q 527 483 486 503 q 591 441 567 463 q 633 382 616 419 q 650 287 650 345 q 617 170 650 229 q 533 73 585 111 l 533 73 q 288 -8 424 -8 l 288 -8 q 179 7 227 -8 q 106 42 130 22 l 106 42 q 94 70 99 50 q 90 108 90 89 q 109 150 90 127 q 160 172 127 172 l 160 172 q 197 160 184 172 q 214 146 210 149 q 223 136 217 143 q 231 127 229 129 q 240 117 233 125 l 240 117 q 342 49 294 49 l 342 49 q 437 99 404 49 q 469 235 469 149 q 429 379 469 321 q 323 437 389 437 l 323 437 q 247 425 292 437 l 247 425 q 236 457 236 438 l 236 457 l 236 469 q 423 570 381 496 l 423 570 q 437 621 437 593 l 437 621 q 402 728 437 686 q 315 770 368 770 q 219 744 262 770 q 160 700 176 718 l 160 700 q 149 715 153 702 q 144 738 144 728 l 144 738 q 251 832 186 794 q 378 871 315 871 l 378 871 q 537 822 478 871 q 595 697 595 772 z "},"4":{"ha":739,"x_min":65,"x_max":675,"o":"m 656 328 q 670 311 664 328 q 675 270 675 293 q 662 236 675 247 l 662 236 l 594 236 l 594 5 q 491 -7 559 -7 q 423 11 423 -7 l 423 11 l 423 236 l 79 236 q 65 270 65 243 l 65 270 q 311 577 153 379 q 532 854 468 775 l 532 854 q 557 873 548 873 q 580 860 566 873 q 594 836 594 846 l 594 836 l 594 328 l 656 328 z m 423 328 l 423 632 l 182 328 l 423 328 z "},"5":{"ha":739,"x_min":92,"x_max":647,"o":"m 263 715 l 232 556 q 373 574 305 574 q 504 538 441 574 q 607 442 567 503 q 647 312 647 381 q 616 182 647 243 q 534 80 585 121 l 534 80 q 292 -8 427 -8 l 292 -8 q 182 7 231 -8 q 109 42 132 23 l 109 42 q 97 70 102 50 q 92 108 92 89 q 111 150 92 127 q 163 172 130 172 l 163 172 q 200 160 186 172 q 216 146 213 149 q 226 136 220 143 q 234 127 232 129 q 243 117 236 125 l 243 117 q 352 49 296 49 q 441 99 408 49 q 473 224 473 149 q 442 348 473 300 q 369 420 411 396 q 286 445 326 445 l 286 445 q 161 426 209 445 l 161 426 q 152 436 156 426 q 148 450 148 446 q 165 542 149 455 l 165 542 q 224 861 213 792 l 224 861 l 465 861 q 555 869 520 861 q 593 875 591 876 q 597 873 596 874 q 601 871 599 873 q 605 868 604 870 l 605 868 q 608 853 608 863 q 588 795 608 842 q 557 727 568 747 l 557 727 q 263 715 431 715 l 263 715 z "},"6":{"ha":739,"x_min":88,"x_max":651,"o":"m 461 356 q 419 437 450 404 q 345 469 389 469 q 275 444 301 469 l 275 444 q 266 315 266 377 q 272 212 266 254 q 290 132 277 170 q 326 72 302 94 q 385 49 349 49 q 447 103 420 49 q 473 233 473 157 q 461 356 473 309 z m 292 515 l 292 515 q 402 549 351 549 q 497 535 454 549 q 576 490 541 520 l 576 490 q 651 281 651 423 l 651 281 q 610 136 651 203 q 502 31 568 69 q 363 -8 436 -8 q 227 39 291 -8 q 125 164 162 86 q 88 337 88 241 q 133 527 88 433 q 239 686 178 622 q 368 792 300 751 l 368 792 q 593 875 478 860 l 593 875 q 602 840 607 864 l 602 840 q 292 515 363 741 z "},"7":{"ha":739,"x_min":79,"x_max":661,"o":"m 138 863 l 529 864 q 651 869 529 864 l 651 869 q 661 858 661 869 q 659 841 661 846 q 653 827 657 836 q 646 812 650 819 q 636 790 643 804 q 624 766 629 777 l 624 766 l 255 -11 q 233 -15 250 -15 q 195 -7 217 -15 q 172 18 172 1 l 172 18 q 336 307 216 79 q 548 727 456 534 l 548 727 l 235 727 q 161 688 186 727 l 161 688 q 127 613 142 656 l 127 613 q 109 605 125 606 q 79 616 92 603 l 79 616 q 138 863 105 715 l 138 863 z "},"8":{"ha":739,"x_min":85,"x_max":654,"o":"m 311 75 l 311 75 q 379 49 336 49 q 449 80 422 49 q 476 151 476 112 q 464 220 476 190 q 436 271 451 250 q 395 316 420 292 l 395 316 q 341 362 366 344 q 312 380 317 380 q 307 378 307 380 l 307 378 q 263 212 263 325 l 263 212 q 311 75 263 120 z m 412 779 l 412 779 q 359 803 392 803 q 304 772 327 803 q 281 701 281 741 q 294 631 281 662 q 327 580 307 601 l 327 580 q 397 524 365 541 l 397 524 q 413 517 408 517 q 422 521 418 517 l 422 521 q 450 659 450 564 l 450 659 q 412 779 450 736 z m 242 834 q 366 859 302 859 q 487 837 431 859 q 582 770 544 816 q 620 664 620 725 q 576 555 620 603 q 469 480 533 507 l 469 480 q 467 477 467 479 q 478 469 467 475 q 508 448 488 463 q 556 409 528 433 q 604 357 583 384 l 604 357 q 654 225 654 294 q 611 102 654 157 q 503 20 568 47 q 373 -8 437 -8 q 262 3 309 -8 q 174 38 214 14 l 174 38 q 85 208 85 90 l 85 208 q 137 340 85 286 q 259 415 189 394 l 259 415 q 257 421 263 417 q 237 438 252 426 q 213 458 222 451 q 188 481 203 466 q 163 508 173 496 q 141 538 153 520 q 122 574 130 557 l 122 574 q 106 666 106 614 q 144 763 106 717 q 242 834 183 810 z "},"9":{"ha":739,"x_min":88,"x_max":651,"o":"m 278 510 q 320 430 290 463 q 394 397 350 397 q 464 423 438 397 l 464 423 q 473 541 473 469 q 468 655 473 613 q 449 734 462 696 q 414 795 437 772 q 355 818 391 818 q 292 764 319 818 q 266 634 266 709 q 278 510 266 558 z m 137 27 l 137 27 q 448 351 376 126 l 448 351 q 337 317 389 317 q 242 332 285 317 q 163 377 199 347 l 163 377 q 88 586 88 444 l 88 586 q 130 730 88 663 q 237 836 171 798 q 376 875 303 875 q 513 828 448 875 q 614 703 577 781 q 651 530 651 625 q 606 339 651 434 q 500 180 562 245 q 372 75 439 116 l 372 75 q 146 -8 261 7 l 146 -8 q 137 27 132 3 z "}," ":{"ha":407,"x_min":null,"x_max":null,"o":""}," ":{"ha":407,"x_min":null,"x_max":null,"o":""},"!":{"ha":366,"x_min":80,"x_max":283,"o":"m 182 -15 q 110 16 140 -15 q 80 88 80 46 q 110 159 80 130 q 182 189 140 189 q 254 158 224 189 q 283 86 283 127 q 254 15 283 45 q 182 -15 224 -15 z m 98 777 q 123 846 98 821 q 185 871 149 871 q 246 846 221 871 q 271 786 271 821 q 250 573 271 751 q 214 300 229 395 l 214 300 q 187 264 205 271 l 187 264 q 172 271 182 264 q 156 288 161 278 l 156 288 q 120 552 142 370 q 98 777 98 733 z "},"\"":{"ha":449,"x_min":49,"x_max":392,"o":"m 266 832 q 290 912 266 875 q 345 949 314 949 q 392 928 376 949 l 392 928 q 384 786 392 893 q 369 616 376 680 l 369 616 q 336 585 358 597 l 336 585 q 323 595 327 585 l 323 595 q 266 832 266 789 z m 49 832 q 73 912 49 875 q 128 949 97 949 q 175 928 159 949 l 175 928 q 167 786 175 893 q 152 616 159 680 l 152 616 q 119 585 141 597 l 119 585 q 106 595 110 585 l 106 595 q 49 832 49 789 z "},"#":{"ha":644,"x_min":64,"x_max":579,"o":"m 473 460 l 446 292 l 534 292 q 542 270 543 288 q 532 228 541 251 q 515 201 524 205 l 515 201 l 431 201 l 407 49 q 392 38 406 44 q 369 31 379 31 l 369 31 q 350 37 353 31 l 350 37 l 376 201 l 212 201 l 187 49 q 173 38 186 44 q 151 31 160 31 l 151 31 q 132 37 134 31 l 132 37 l 158 201 l 69 201 q 64 223 62 204 q 75 266 66 242 q 92 292 84 289 l 92 292 l 172 292 l 199 460 l 107 460 q 102 482 100 463 q 112 525 103 501 q 129 551 121 548 l 129 551 l 214 551 l 239 703 q 278 720 245 720 l 278 720 q 296 716 290 720 l 296 716 l 269 551 l 433 551 l 457 703 q 496 720 463 720 l 496 720 q 514 716 508 720 l 514 716 l 488 551 l 571 551 q 579 529 579 547 q 570 487 578 510 q 553 460 562 464 l 553 460 l 473 460 z m 227 292 l 391 292 l 418 460 l 254 460 l 227 292 z "},"$":{"ha":703,"x_min":73,"x_max":635,"o":"m 385 869 l 391 906 q 444 895 444 906 l 444 895 l 438 863 q 449 861 444 863 l 449 861 q 523 845 487 853 q 578 833 559 837 l 578 833 q 591 617 583 781 l 591 617 q 563 610 586 610 q 538 618 541 610 l 538 618 q 486 744 530 679 l 486 744 q 433 795 465 775 l 433 795 q 428 798 431 797 l 428 798 l 384 530 q 476 469 424 500 l 476 469 q 565 409 547 428 q 597 371 583 390 q 617 332 610 352 l 617 332 q 635 221 635 285 q 593 102 635 158 q 488 16 552 46 q 338 -14 423 -14 l 338 -14 q 296 -12 319 -14 l 296 -12 l 289 -54 q 236 -42 236 -54 l 236 -42 l 242 -6 q 104 20 182 3 l 104 20 q 73 241 83 113 l 73 241 q 91 253 77 247 q 115 259 105 259 q 127 248 125 259 l 127 248 q 193 118 138 188 l 193 118 q 254 66 218 87 l 254 66 l 302 363 q 172 453 199 431 l 172 453 q 83 635 83 528 l 83 635 q 124 754 83 699 q 229 839 165 809 q 351 869 292 869 l 351 869 q 385 869 369 869 l 385 869 z m 351 330 l 351 330 l 304 43 q 328 41 317 41 l 328 41 q 378 46 359 41 q 418 65 398 52 l 418 65 q 464 168 464 94 l 464 168 q 353 329 464 248 l 353 329 q 351 330 352 329 z m 336 568 l 336 568 l 376 814 q 361 815 369 815 l 361 815 q 288 788 321 815 q 255 703 255 762 l 255 703 q 336 568 255 640 z "},"%":{"ha":930,"x_min":53,"x_max":880,"o":"m 339 730 q 307 799 330 770 q 257 829 285 829 q 215 815 230 829 q 193 777 199 802 l 193 777 q 182 686 182 737 q 191 596 182 635 q 222 528 200 557 q 272 499 244 499 q 315 512 299 499 q 337 550 330 526 l 337 550 q 349 641 349 591 q 339 730 349 690 z m 53 660 q 114 808 53 747 q 267 869 176 869 q 417 812 357 869 q 477 668 477 754 q 416 519 477 581 q 263 457 355 457 q 113 515 172 457 q 53 660 53 574 z m 742 273 q 710 342 732 313 q 660 372 688 372 q 617 358 633 372 q 595 320 602 345 l 595 320 q 585 229 585 280 q 594 139 585 178 q 625 71 603 100 q 674 42 647 42 q 718 55 702 42 q 740 93 733 68 l 740 93 q 751 183 751 134 q 742 273 751 233 z m 456 203 q 517 351 456 290 q 669 412 578 412 q 820 355 760 412 q 880 211 880 297 q 819 62 880 124 q 666 0 758 0 q 515 58 575 0 q 456 203 456 117 z m 845 861 l 845 861 l 145 -7 q 123 -20 140 -14 q 94 -27 106 -27 l 94 -27 q 70 -15 72 -27 l 70 -15 l 69 -11 l 769 857 q 811 875 789 875 l 811 875 q 845 861 845 875 z "},"&":{"ha":944,"x_min":76,"x_max":925,"o":"m 518 129 l 518 129 q 304 425 417 267 l 304 425 q 252 298 252 380 l 252 298 q 295 165 252 225 l 295 165 q 352 116 316 135 q 434 98 387 98 q 518 129 481 98 z m 489 767 q 461 812 477 798 q 416 826 445 826 q 367 794 388 826 q 346 713 346 763 l 346 713 q 412 552 346 642 l 412 552 q 500 696 500 598 l 500 696 q 489 767 500 736 z m 776 109 l 776 109 q 863 180 814 109 l 863 180 q 897 156 884 180 l 897 156 q 846 87 888 134 l 846 87 q 704 -4 763 -4 l 704 -4 q 640 10 669 -4 q 595 38 610 24 q 555 81 579 53 l 555 81 q 321 -5 464 -5 l 321 -5 q 157 52 233 -5 l 157 52 q 98 120 121 78 q 76 208 76 162 q 88 292 76 254 q 117 355 100 330 q 160 404 133 380 l 160 404 q 227 456 193 434 q 266 480 262 477 l 266 480 q 248 506 263 484 q 225 538 232 527 q 208 571 219 550 l 208 571 q 189 665 189 610 l 189 665 q 247 816 189 757 q 405 875 305 875 q 572 831 505 875 q 640 718 640 788 l 640 718 q 513 531 640 601 l 513 531 q 448 502 482 514 l 448 502 q 541 376 466 477 q 637 245 616 274 l 637 245 q 652 262 642 250 q 668 281 663 275 q 684 299 674 288 q 698 318 693 311 q 709 333 703 325 l 709 333 q 720 355 720 349 l 720 355 q 674 380 720 380 l 674 380 l 654 380 q 650 404 650 386 q 655 423 650 421 l 655 423 l 747 422 q 921 426 798 420 l 921 426 q 925 406 925 424 q 918 381 924 387 l 918 381 q 825 361 849 381 l 825 361 q 752 282 814 353 q 675 197 690 212 l 675 197 q 699 169 692 177 q 718 149 706 161 q 739 129 730 137 l 739 129 q 776 109 762 109 z "},"'":{"ha":245,"x_min":45,"x_max":195,"o":"m 45 861 q 73 930 45 897 q 141 964 102 964 q 195 935 181 964 l 195 935 q 164 637 178 718 l 164 637 q 129 612 153 621 l 129 612 q 113 620 119 612 l 113 620 q 98 659 109 629 q 81 701 86 688 q 68 740 77 714 q 56 781 59 765 l 56 781 q 45 861 45 825 z "},"(":{"ha":395,"x_min":45,"x_max":381,"o":"m 216 626 q 195 414 195 524 q 216 202 195 304 q 269 30 237 100 l 269 30 q 381 -149 330 -104 l 381 -149 q 378 -168 382 -153 q 369 -186 374 -183 l 369 -186 q 199 -46 283 -146 l 199 -46 q 58 269 92 81 l 58 269 q 45 414 45 338 q 58 559 45 489 q 91 684 71 629 q 140 788 112 739 q 199 873 169 838 q 260 938 229 909 l 260 938 q 369 1013 317 989 l 369 1013 q 378 995 374 1010 q 381 977 382 980 l 381 977 q 269 798 330 931 l 269 798 q 216 626 237 728 z "},")":{"ha":395,"x_min":14,"x_max":350,"o":"m 337 559 q 350 414 350 489 q 337 268 350 338 q 303 143 324 198 q 254 39 283 88 q 196 -46 226 -10 q 134 -111 166 -81 l 134 -111 q 26 -186 78 -162 l 26 -186 q 17 -168 21 -183 q 14 -149 12 -153 l 14 -149 q 126 30 65 -104 l 126 30 q 178 202 157 100 q 199 414 199 304 q 178 626 199 524 q 126 798 157 728 l 126 798 q 14 977 65 931 l 14 977 q 17 995 12 980 q 26 1013 21 1010 l 26 1013 q 196 873 111 974 l 196 873 q 337 559 303 746 l 337 559 z "},"*":{"ha":598,"x_min":47,"x_max":535,"o":"m 349 759 q 389 837 368 813 q 440 863 410 861 q 485 848 469 865 q 502 806 501 831 q 483 758 503 781 q 439 725 464 734 q 390 708 414 715 q 351 686 366 701 l 351 686 q 341 669 341 675 q 358 655 341 662 q 419 647 374 648 q 494 633 465 646 q 534 593 524 621 q 535 545 545 566 q 500 515 524 524 q 450 517 475 507 q 410 542 425 527 q 387 570 395 557 l 387 570 q 327 626 362 613 l 327 626 q 314 614 316 629 l 314 614 q 324 547 311 590 q 333 473 336 505 q 308 423 330 441 q 263 408 286 405 q 223 432 239 411 q 210 486 207 453 q 242 556 213 518 q 273 612 271 594 q 273 635 276 631 q 253 636 271 640 q 199 607 236 632 q 130 575 161 583 q 75 584 98 568 q 47 622 52 599 q 58 667 43 646 q 101 695 73 689 q 155 695 130 702 q 205 681 180 689 q 248 675 229 673 q 268 682 267 677 q 260 704 269 688 q 215 747 250 720 q 163 804 180 774 q 154 859 147 833 q 181 897 161 886 q 227 900 201 908 q 269 867 254 892 q 285 816 283 842 q 286 764 287 789 q 294 723 286 739 q 309 705 302 707 l 309 705 q 349 759 330 705 z "},"+":{"ha":735,"x_min":42,"x_max":693,"o":"m 342 11 l 342 11 q 327 22 327 11 l 327 22 l 327 294 l 50 294 q 42 323 42 294 q 56 373 42 353 l 56 373 l 326 373 l 327 643 q 376 658 346 658 q 406 646 406 658 l 406 646 l 404 373 l 681 373 q 693 346 693 373 q 674 294 693 318 l 674 294 l 406 294 l 406 26 q 342 11 383 11 z "},",":{"ha":304,"x_min":26,"x_max":240,"o":"m 73 141 q 110 177 88 165 q 162 189 132 189 q 221 167 191 189 l 221 167 q 240 79 240 132 l 240 79 q 185 -94 240 -14 q 54 -213 130 -175 l 54 -213 q 35 -199 44 -210 q 26 -180 26 -187 l 26 -180 q 89 -121 56 -161 q 122 -37 122 -80 l 122 -37 q 106 -3 122 -18 q 80 22 90 12 l 80 22 q 57 92 57 45 l 57 92 q 73 141 57 116 z "},"-":{"ha":509,"x_min":76,"x_max":433,"o":"m 96 362 l 96 362 q 423 378 378 377 l 423 378 q 433 366 433 378 l 433 366 q 412 285 433 328 l 412 285 q 85 270 385 283 l 85 270 q 76 294 76 270 q 96 362 76 319 z "},".":{"ha":317,"x_min":57,"x_max":260,"o":"m 159 -15 q 87 16 117 -15 q 57 88 57 46 q 87 159 57 130 q 159 189 117 189 q 231 158 201 189 q 260 86 260 127 q 231 15 260 45 q 159 -15 201 -15 z "},"/":{"ha":572,"x_min":39,"x_max":533,"o":"m 441 1002 q 463 1023 446 1013 q 505 1032 480 1032 q 533 1021 530 1032 l 533 1021 l 132 -19 q 112 -38 129 -29 q 75 -47 95 -47 l 75 -47 q 39 -38 46 -47 l 39 -38 l 441 1002 z "},":":{"ha":355,"x_min":76,"x_max":279,"o":"m 178 381 q 106 412 136 381 q 76 484 76 442 q 106 555 76 526 q 178 585 136 585 q 250 554 220 585 q 279 482 279 523 q 250 411 279 441 q 178 381 220 381 z m 178 -15 q 106 16 136 -15 q 76 88 76 46 q 106 159 76 130 q 178 189 136 189 q 250 158 220 189 q 279 86 279 127 q 250 15 279 45 q 178 -15 220 -15 z "},";":{"ha":345,"x_min":53,"x_max":267,"o":"m 100 141 q 137 177 115 165 q 189 189 159 189 q 248 167 218 189 l 248 167 q 267 79 267 132 l 267 79 q 212 -94 267 -14 q 81 -213 157 -175 l 81 -213 q 62 -199 71 -210 q 53 -180 53 -187 l 53 -180 q 116 -121 83 -161 q 149 -37 149 -80 l 149 -37 q 133 -3 149 -18 q 107 22 117 12 l 107 22 q 84 92 84 45 l 84 92 q 100 141 84 116 z m 169 381 q 97 413 127 381 q 66 487 66 446 q 97 557 66 528 q 169 586 127 586 q 238 557 210 586 q 266 486 266 528 q 238 413 266 445 q 169 381 210 381 z "},"<":{"ha":671,"x_min":41,"x_max":602,"o":"m 165 283 l 598 69 q 602 59 602 68 q 594 15 602 51 q 583 -20 586 -20 q 574 -18 579 -20 l 574 -18 l 65 240 q 41 294 41 253 l 41 294 q 65 327 41 315 l 65 327 l 571 581 q 578 583 576 583 l 578 583 q 594 543 586 583 l 594 543 q 597 494 602 499 l 597 494 l 165 283 z "},"=":{"ha":758,"x_min":90,"x_max":672,"o":"m 646 182 l 646 182 q 96 182 646 182 l 96 182 q 90 201 89 184 q 100 238 91 218 q 117 262 109 258 l 117 262 l 664 262 q 672 243 672 259 q 663 207 671 227 q 646 182 655 186 z m 646 377 l 646 377 l 96 377 q 90 396 89 380 q 100 433 91 413 q 117 457 109 454 l 117 457 l 664 457 q 672 438 672 454 q 663 402 671 422 q 646 377 655 382 z "},">":{"ha":671,"x_min":69,"x_max":631,"o":"m 89 -20 q 77 15 85 -20 q 69 57 69 51 l 69 57 q 73 69 69 66 l 73 69 l 506 283 l 75 494 q 71 506 69 499 l 71 506 q 94 583 85 583 l 94 583 q 100 581 95 583 l 100 581 l 606 327 q 631 294 631 315 l 631 294 q 606 240 631 253 l 606 240 l 98 -18 q 89 -20 92 -20 z "},"?":{"ha":541,"x_min":73,"x_max":495,"o":"m 194 -15 q 123 15 155 -15 q 91 89 91 45 q 120 160 91 132 q 190 189 149 189 q 261 160 231 189 q 290 89 290 131 q 262 16 290 47 q 194 -15 234 -15 z m 235 745 q 198 716 219 729 q 148 703 176 703 q 97 730 120 703 q 73 783 73 757 l 73 783 q 94 854 73 838 l 94 854 q 216 878 134 878 l 216 878 q 325 854 270 878 q 414 805 380 830 q 472 736 448 779 q 495 655 495 692 q 490 597 495 617 q 479 562 486 577 q 459 531 473 547 q 437 506 446 515 q 409 483 428 496 q 382 464 391 469 q 352 446 373 458 q 323 428 330 433 q 296 411 317 424 q 263 391 275 399 l 263 391 q 206 326 208 357 l 206 326 q 206 313 206 318 q 206 300 205 307 q 205 288 206 292 q 197 275 204 283 q 181 266 191 266 q 155 282 171 266 l 155 282 q 127 418 127 342 l 127 418 q 164 513 127 475 l 164 513 q 236 572 193 543 l 236 572 q 380 722 380 667 l 380 722 q 360 766 380 746 q 315 787 340 787 q 271 773 290 787 q 235 745 251 760 z "},"@":{"ha":1040,"x_min":62,"x_max":993,"o":"m 429 751 l 429 751 q 608 784 513 784 q 777 753 702 784 q 899 668 852 722 l 899 668 q 993 393 993 558 l 993 393 q 951 198 993 292 q 840 47 910 104 q 704 -9 770 -9 q 599 20 638 -9 q 560 107 560 49 l 560 107 q 566 146 560 132 l 566 146 q 484 45 540 97 q 373 -7 428 -7 l 373 -7 q 252 77 277 -7 l 252 77 q 241 163 241 112 l 241 163 q 305 362 241 259 q 466 533 368 465 q 658 601 564 601 l 658 601 q 741 595 694 601 q 806 583 787 590 l 806 583 l 730 172 q 726 146 726 156 q 725 129 726 137 q 725 117 725 121 q 726 105 726 113 q 729 93 727 98 q 734 84 731 89 l 734 84 q 762 75 741 75 q 813 100 783 75 q 870 165 844 125 q 915 264 897 205 q 933 389 933 323 q 915 516 933 455 q 858 625 896 576 l 858 625 q 605 730 777 730 l 605 730 q 263 568 408 730 l 263 568 q 144 349 178 474 l 144 349 q 127 231 127 289 l 127 231 q 180 30 127 118 l 180 30 q 415 -141 267 -118 l 415 -141 q 396 -159 415 -149 q 354 -168 377 -168 q 300 -156 332 -168 l 300 -156 q 132 -16 201 -119 q 62 224 62 87 l 62 224 q 163 536 62 389 l 163 536 q 429 751 269 690 z m 609 372 l 636 510 q 601 528 621 528 l 601 528 q 502 478 547 528 q 432 354 456 429 q 408 222 408 279 q 423 146 408 165 q 463 127 438 127 l 463 127 q 546 194 506 127 q 609 372 587 261 l 609 372 z "},"A":{"ha":916,"x_min":-18,"x_max":924,"o":"m 127 182 l 127 182 l 416 846 q 440 880 423 861 q 466 898 456 898 l 466 898 q 495 888 490 898 l 495 888 l 773 201 q 794 148 783 178 q 812 100 806 117 q 836 71 819 84 q 870 53 852 58 l 870 53 q 918 45 901 45 l 918 45 q 924 17 923 36 q 921 -5 925 -1 l 921 -5 q 842 0 909 -5 q 743 5 774 5 q 673 3 711 5 q 591 -2 635 1 q 534 -5 547 -5 l 534 -5 q 529 22 529 0 q 534 45 529 45 l 534 45 q 614 69 586 45 l 614 69 q 627 88 627 79 l 627 88 q 566 250 627 103 l 566 250 l 545 298 q 525 304 540 304 q 411 305 510 305 q 264 304 312 305 l 264 304 q 255 297 258 304 l 255 297 q 176 91 176 121 l 176 91 q 259 47 176 60 l 259 47 q 281 45 275 45 l 281 45 q 286 18 286 37 q 282 -5 286 -1 l 282 -5 q 135 5 187 5 q -12 -5 83 5 l -12 -5 q -18 15 -16 -1 q -15 43 -19 32 l -15 43 q 35 58 0 43 q 80 87 71 72 l 80 87 q 127 182 103 125 z m 513 380 l 400 646 l 285 380 q 288 374 285 374 l 288 374 q 397 370 328 370 q 488 372 467 370 q 511 375 510 373 q 513 380 512 376 l 513 380 z "},"B":{"ha":840,"x_min":47,"x_max":793,"o":"m 410 450 l 340 450 l 340 148 q 351 69 340 85 q 436 53 362 53 l 436 53 q 531 93 488 53 l 531 93 q 580 239 580 138 l 580 239 q 544 382 580 321 l 544 382 q 410 450 503 450 l 410 450 z m 340 742 l 340 503 l 410 503 q 495 545 463 503 q 527 661 527 586 l 527 661 q 414 841 527 841 l 414 841 q 347 825 354 841 q 340 742 340 808 l 340 742 z m 246 891 l 246 891 l 454 895 q 637 848 557 895 l 637 848 q 703 780 678 823 q 728 690 728 737 q 710 609 728 643 q 667 552 693 575 l 667 552 q 581 496 619 510 l 581 496 q 574 488 570 492 l 574 488 q 667 454 623 482 q 735 399 711 425 l 735 399 q 793 268 793 340 q 754 137 793 195 l 754 137 q 472 -4 664 1 l 472 -4 q 368 -4 435 -5 l 368 -4 l 52 -4 q 48 20 48 2 q 52 46 47 39 l 52 46 q 139 69 132 52 l 139 69 q 150 197 150 96 l 150 197 l 150 696 q 139 823 150 796 l 139 823 q 52 845 133 839 l 52 845 q 48 871 47 852 q 52 895 48 889 l 52 895 q 246 891 113 891 z "},"C":{"ha":914,"x_min":54,"x_max":873,"o":"m 806 879 l 806 879 l 852 674 q 840 661 852 668 q 816 654 829 654 q 798 659 803 654 l 798 659 q 760 740 787 704 q 707 796 734 775 l 707 796 q 536 846 640 846 l 536 846 q 414 816 467 846 q 331 732 361 785 l 331 732 q 271 477 271 627 l 271 477 q 340 185 271 310 l 340 185 q 431 87 374 123 q 563 50 489 50 l 563 50 q 731 109 668 50 l 731 109 q 780 172 757 132 l 780 172 q 826 277 817 236 l 826 277 q 873 260 855 277 l 873 260 q 852 151 873 241 q 818 54 831 60 l 818 54 q 727 22 759 33 l 727 22 q 512 -9 629 -9 q 288 48 395 -9 q 118 208 181 105 q 54 422 54 311 q 92 620 54 533 q 192 769 129 707 q 342 868 255 831 q 524 905 429 905 l 524 905 q 806 879 679 905 z "},"D":{"ha":1032,"x_min":47,"x_max":975,"o":"m 340 742 l 340 742 l 340 191 q 351 84 340 111 l 351 84 q 382 62 357 71 q 436 53 408 53 l 436 53 q 680 148 602 53 q 759 438 759 242 q 665 738 759 634 q 414 841 570 841 l 414 841 q 347 825 354 841 q 340 742 340 808 z m 52 895 l 52 895 q 204 891 113 891 q 454 895 295 891 l 454 895 q 727 844 610 895 q 909 692 844 792 q 975 456 975 593 l 975 456 q 757 66 975 186 l 757 66 q 444 -4 629 -4 l 444 -4 l 52 -4 q 48 20 48 2 q 52 46 47 39 l 52 46 q 139 69 132 52 l 139 69 q 150 197 150 96 l 150 197 l 150 696 q 139 823 150 796 l 139 823 q 52 845 133 839 l 52 845 q 48 871 47 852 q 52 895 48 889 z "},"E":{"ha":817,"x_min":47,"x_max":787,"o":"m 52 895 l 52 895 q 224 891 113 891 q 687 901 336 891 l 687 901 q 708 787 693 857 q 726 700 723 718 l 726 700 q 699 693 720 693 q 673 704 677 693 l 673 704 q 581 831 634 808 l 581 831 q 527 841 557 841 l 527 841 l 414 841 q 347 825 354 841 q 340 742 340 808 l 340 742 l 340 499 q 358 489 340 493 q 398 484 376 484 l 398 484 l 470 484 q 551 502 530 484 q 589 579 573 519 l 589 579 q 608 590 591 590 q 631 583 625 590 l 631 583 l 631 323 q 608 317 626 317 q 588 328 590 317 l 588 328 q 544 409 570 397 q 429 420 517 420 q 340 401 340 420 l 340 401 l 340 191 q 351 84 340 111 l 351 84 q 382 64 356 71 q 439 57 409 57 l 439 57 l 528 57 q 652 99 610 57 q 728 231 694 141 l 728 231 q 743 239 730 239 l 743 239 q 787 231 779 239 l 787 231 q 771 186 785 222 q 752 132 758 149 q 737 86 747 115 l 737 86 q 714 -3 720 33 l 714 -3 q 52 -4 105 -3 l 52 -4 q 48 20 48 2 q 52 46 47 39 l 52 46 q 139 69 132 52 l 139 69 q 150 197 150 96 l 150 197 l 150 696 q 139 823 150 796 l 139 823 q 52 845 133 839 l 52 845 q 48 871 47 852 q 52 895 48 889 z "},"F":{"ha":745,"x_min":47,"x_max":726,"o":"m 52 895 l 52 895 q 224 891 113 891 q 687 901 336 891 l 687 901 q 708 787 693 857 q 726 700 723 718 l 726 700 q 699 693 720 693 q 673 704 677 693 l 673 704 q 581 831 634 808 l 581 831 q 527 841 557 841 l 527 841 l 414 841 q 347 825 354 841 q 340 742 340 808 l 340 742 l 340 494 q 358 483 340 488 q 398 479 376 479 l 398 479 l 470 479 q 551 496 530 479 q 589 574 573 514 l 589 574 q 608 585 591 585 q 631 578 625 585 l 631 578 l 631 317 q 608 312 626 312 q 588 323 590 312 l 588 323 q 544 404 570 392 q 429 415 517 415 q 340 396 340 415 l 340 396 l 340 197 q 351 69 340 96 l 351 69 q 450 45 357 52 l 450 45 q 454 19 454 37 q 450 -5 454 1 l 450 -5 q 251 4 357 4 q 52 -5 145 4 l 52 -5 q 48 19 48 1 q 52 45 47 37 l 52 45 q 139 69 132 51 l 139 69 q 150 197 150 96 l 150 197 l 150 696 q 139 823 150 796 l 139 823 q 52 845 133 839 l 52 845 q 48 871 47 852 q 52 895 48 889 z "},"G":{"ha":979,"x_min":54,"x_max":957,"o":"m 806 879 l 806 879 l 852 674 q 840 661 852 668 q 816 654 829 654 q 798 659 803 654 l 798 659 q 709 796 774 745 l 709 796 q 538 846 644 846 l 538 846 q 308 685 372 846 l 308 685 q 271 491 271 593 q 290 315 271 390 q 343 181 308 241 q 434 85 378 121 q 553 49 490 49 q 665 71 616 49 l 665 71 q 677 91 677 77 l 677 91 l 677 248 q 671 313 677 292 q 646 342 666 333 l 646 342 q 581 354 617 354 l 581 354 q 575 376 575 354 q 579 404 574 399 l 579 404 l 787 396 l 954 404 q 957 371 959 387 q 952 354 954 354 l 952 354 q 916 348 942 354 q 882 338 890 342 l 882 338 q 864 278 864 326 l 864 278 l 864 133 l 872 94 q 820 57 872 77 q 733 25 768 37 l 733 25 q 512 -9 629 -9 q 287 48 394 -9 q 117 209 180 106 q 54 436 54 311 q 117 669 54 562 q 289 841 180 777 q 538 905 397 905 q 806 879 679 905 z "},"H":{"ha":1005,"x_min":47,"x_max":959,"o":"m 52 898 l 52 898 q 245 888 145 888 q 437 898 345 888 l 437 898 q 442 873 441 892 q 437 848 442 855 l 437 848 q 351 823 357 842 l 351 823 q 340 696 340 796 l 340 696 l 340 503 l 342 499 q 510 495 501 495 q 665 499 519 495 l 665 499 q 668 505 668 502 l 668 505 l 667 696 q 656 823 667 796 l 656 823 q 569 848 649 842 l 569 848 q 565 873 564 855 q 569 898 565 892 l 569 898 q 762 888 662 888 q 954 898 861 888 l 954 898 q 959 873 958 892 q 954 848 959 855 l 954 848 q 867 823 874 842 l 867 823 q 857 696 857 796 l 857 696 l 857 197 q 867 69 857 96 l 867 69 q 954 45 874 51 l 954 45 q 959 19 959 37 q 954 -5 958 1 l 954 -5 q 762 4 861 4 q 569 -5 662 4 l 569 -5 q 565 19 565 1 q 569 45 564 37 l 569 45 q 656 69 649 51 l 656 69 q 667 197 667 96 l 667 197 l 667 420 l 664 427 q 456 430 564 430 q 341 425 349 430 l 341 425 l 340 419 l 340 197 q 351 69 340 96 l 351 69 q 437 45 357 51 l 437 45 q 442 19 442 37 q 437 -5 441 1 l 437 -5 q 245 4 345 4 q 52 -5 145 4 l 52 -5 q 48 19 48 1 q 52 45 47 37 l 52 45 q 139 69 132 51 l 139 69 q 150 197 150 96 l 150 197 l 150 696 q 139 823 150 796 l 139 823 q 52 848 132 842 l 52 848 q 48 873 47 855 q 52 898 48 892 z "},"I":{"ha":488,"x_min":47,"x_max":442,"o":"m 52 898 l 52 898 q 245 888 145 888 q 437 898 345 888 l 437 898 q 442 873 441 892 q 437 848 442 855 l 437 848 q 351 823 357 842 l 351 823 q 340 696 340 796 l 340 696 l 340 197 q 351 69 340 96 l 351 69 q 437 45 357 51 l 437 45 q 442 19 442 37 q 437 -5 441 1 l 437 -5 q 245 4 345 4 q 52 -5 145 4 l 52 -5 q 48 19 48 1 q 52 45 47 37 l 52 45 q 139 69 132 51 l 139 69 q 150 197 150 96 l 150 197 l 150 696 q 139 823 150 796 l 139 823 q 52 848 132 842 l 52 848 q 48 873 47 855 q 52 898 48 892 z "},"J":{"ha":468,"x_min":-170,"x_max":433,"o":"m 43 898 l 43 898 q 236 888 136 888 q 429 898 336 888 l 429 898 q 433 873 433 892 q 429 848 433 855 l 429 848 q 342 823 349 842 l 342 823 q 331 696 331 796 l 331 696 l 331 194 q 223 -166 331 -37 q -71 -296 116 -296 l -71 -296 q -113 -288 -89 -296 q -143 -275 -138 -279 q -152 -265 -149 -270 q -156 -258 -155 -260 q -160 -251 -157 -256 q -164 -243 -163 -246 q -167 -235 -165 -239 l -167 -235 q -170 -213 -170 -224 l -170 -213 q -145 -150 -170 -178 q -88 -122 -120 -122 l -88 -122 q -4 -174 -53 -122 l -4 -174 q 14 -192 11 -190 q 22 -198 18 -195 q 28 -203 26 -202 q 34 -207 31 -205 q 41 -210 38 -210 l 41 -210 q 58 -213 47 -213 q 81 -206 68 -213 q 103 -182 94 -199 q 118 -148 112 -165 q 129 -99 125 -130 q 136 -42 133 -68 q 140 27 138 -16 l 140 27 q 141 183 141 98 l 141 183 l 141 696 q 130 823 141 796 l 130 823 q 43 848 123 842 l 43 848 q 39 873 39 855 q 43 898 39 892 z "},"K":{"ha":975,"x_min":47,"x_max":994,"o":"m 592 898 l 592 898 l 768 888 q 937 898 849 888 l 937 898 q 939 874 940 891 q 934 850 939 857 l 934 850 q 781 791 829 839 l 781 791 q 526 528 627 635 l 526 528 q 522 506 515 516 l 522 506 l 766 176 q 972 46 857 60 l 972 46 q 991 45 983 45 l 991 45 q 994 17 995 36 q 991 -5 993 -1 l 991 -5 q 827 -11 912 -11 l 827 -11 q 606 91 681 -11 l 606 91 q 545 173 590 113 l 545 173 q 367 410 410 352 l 367 410 q 353 415 361 415 q 340 407 344 415 l 340 407 l 340 197 q 351 69 340 96 l 351 69 q 437 45 357 51 l 437 45 q 442 19 442 37 q 437 -5 441 1 l 437 -5 q 245 4 345 4 q 52 -5 145 4 l 52 -5 q 48 19 48 1 q 52 45 47 37 l 52 45 q 139 69 132 51 l 139 69 q 150 197 150 96 l 150 197 l 150 696 q 139 823 150 796 l 139 823 q 52 848 132 842 l 52 848 q 48 873 47 855 q 52 898 48 892 l 52 898 q 245 888 145 888 q 437 898 345 888 l 437 898 q 442 873 441 892 q 437 848 442 855 l 437 848 q 351 823 357 842 l 351 823 q 340 696 340 796 l 340 696 l 340 457 q 466 564 435 533 q 524 624 496 595 q 563 663 552 652 q 593 695 574 675 l 593 695 q 649 762 627 732 q 671 818 671 791 l 671 818 q 595 849 671 849 l 595 849 q 589 873 590 857 q 592 898 589 889 z "},"L":{"ha":785,"x_min":47,"x_max":787,"o":"m 340 696 l 340 191 q 351 84 340 111 l 351 84 q 382 64 356 71 q 439 57 409 57 l 439 57 l 528 57 q 652 99 610 57 q 728 231 694 141 l 728 231 q 743 239 730 239 l 743 239 q 787 231 779 239 l 787 231 q 771 186 785 222 q 752 132 758 149 q 737 86 747 115 l 737 86 q 714 -3 720 33 l 714 -3 q 52 -4 89 -3 l 52 -4 q 48 20 48 2 q 52 46 47 39 l 52 46 q 139 69 132 52 l 139 69 q 150 197 150 96 l 150 197 l 150 696 q 139 823 150 796 l 139 823 q 52 848 132 842 l 52 848 q 48 873 47 855 q 52 898 48 892 l 52 898 q 245 888 145 888 q 437 898 345 888 l 437 898 q 442 873 441 892 q 437 848 442 855 l 437 848 q 351 823 357 842 l 351 823 q 340 696 338 793 l 340 696 z "},"M":{"ha":1230,"x_min":22,"x_max":1194,"o":"m 85 898 l 85 898 l 232 890 l 374 898 q 631 323 474 677 l 631 323 q 636 320 635 320 q 639 323 637 320 q 692 452 642 327 q 777 672 743 578 l 777 672 q 840 867 821 794 l 840 867 l 846 892 q 993 888 883 888 l 993 888 l 1152 898 q 1159 874 1156 893 q 1157 846 1162 855 l 1157 846 q 1120 842 1145 846 q 1085 830 1095 838 l 1085 830 q 1067 782 1066 817 q 1076 526 1069 747 q 1085 255 1083 306 q 1088 189 1088 203 q 1089 171 1089 175 q 1090 155 1090 168 q 1092 139 1091 143 q 1094 124 1093 134 q 1096 109 1095 114 q 1098 95 1097 103 l 1098 95 q 1105 71 1100 84 q 1142 51 1111 57 q 1191 45 1173 45 l 1191 45 q 1194 -5 1201 22 l 1194 -5 l 1009 5 l 796 -5 q 791 18 792 -1 q 793 45 790 37 l 793 45 q 847 52 814 45 q 890 73 880 58 q 899 132 899 88 q 898 201 899 176 l 898 201 l 884 674 q 875 709 884 709 l 875 709 q 868 700 872 709 l 868 700 l 629 54 q 606 19 625 41 q 577 -3 587 -3 q 559 0 567 -3 l 559 0 l 256 709 q 250 504 253 602 q 244 341 247 406 q 240 218 242 276 l 240 218 q 244 88 237 116 l 244 88 q 296 57 250 70 q 362 45 343 45 l 362 45 q 365 -5 372 23 l 365 -5 q 290 0 349 -5 q 196 5 231 5 q 106 1 161 5 q 27 -5 51 -4 l 27 -5 q 23 17 23 1 q 26 43 22 33 l 26 43 q 90 56 48 43 q 141 92 132 69 l 141 92 q 150 146 144 101 q 158 236 156 191 q 166 409 161 281 q 175 654 171 536 q 180 790 180 771 q 173 818 180 808 q 135 838 166 828 q 85 848 104 848 l 85 848 q 81 876 80 857 q 85 898 83 895 z "},"N":{"ha":1031,"x_min":39,"x_max":1004,"o":"m 665 849 l 665 849 q 661 871 661 849 q 665 899 662 894 l 665 899 q 743 893 690 898 q 831 888 796 888 q 926 893 865 888 q 1002 899 986 899 l 1002 899 q 1004 874 1004 891 q 999 848 1004 857 l 999 848 q 924 839 956 848 q 886 816 891 829 q 877 746 882 803 q 873 650 873 689 l 873 650 l 873 189 q 878 -1 873 140 l 878 -1 q 849 -7 873 -7 q 802 24 826 -7 l 802 24 l 250 704 l 250 213 q 265 81 250 122 l 265 81 q 314 56 271 65 q 376 46 356 46 l 376 46 q 382 20 382 37 q 379 -5 382 3 l 379 -5 q 303 0 363 -5 q 208 5 243 5 q 120 1 174 5 q 43 -5 67 -4 l 43 -5 q 39 25 36 5 q 43 45 41 45 l 43 45 q 104 55 64 45 q 151 80 144 64 l 151 80 q 168 217 168 117 l 168 217 l 168 697 q 143 819 168 783 l 143 819 q 103 839 135 831 q 54 848 71 848 l 54 848 q 47 870 48 848 q 51 898 46 892 l 51 898 q 92 895 63 897 l 92 895 q 217 888 158 888 q 352 898 276 888 l 352 898 q 524 659 386 829 l 524 659 q 659 493 574 597 q 787 336 745 390 l 787 336 q 790 392 790 346 l 790 392 l 790 646 q 775 819 790 788 l 775 819 q 730 842 768 835 q 665 849 691 849 z "},"O":{"ha":1031,"x_min":54,"x_max":977,"o":"m 668 748 q 589 819 637 792 q 489 846 541 846 q 400 825 437 846 q 339 769 363 804 q 300 688 315 734 l 300 688 q 271 520 271 602 q 278 387 271 439 q 297 284 284 335 q 332 191 310 233 q 383 115 354 148 l 383 115 q 544 45 446 45 l 544 45 q 730 202 676 45 l 730 202 q 760 374 760 288 q 750 523 760 460 q 720 644 741 585 q 668 748 699 703 z m 343 868 q 515 905 427 905 q 688 868 604 905 q 836 770 772 831 q 938 624 899 709 q 977 445 977 538 q 938 267 977 352 q 836 120 899 181 q 688 23 772 59 q 515 -14 604 -14 q 343 23 427 -14 q 195 120 258 59 q 93 267 132 181 q 54 445 54 352 q 93 624 54 538 q 195 770 132 709 q 343 868 258 831 z "},"P":{"ha":793,"x_min":47,"x_max":767,"o":"m 246 891 l 246 891 l 455 895 q 724 784 639 895 l 724 784 q 767 652 767 728 q 727 514 767 576 q 626 421 687 452 q 494 389 564 389 l 494 389 q 436 400 462 389 q 401 420 411 410 q 391 447 391 431 q 395 464 391 464 l 395 464 q 457 458 414 458 q 533 508 501 458 q 565 637 565 557 q 523 780 565 718 q 417 841 480 841 q 347 825 354 841 q 340 742 340 808 l 340 742 l 340 197 q 351 69 340 96 l 351 69 q 437 45 357 51 l 437 45 q 442 19 442 37 q 437 -5 441 1 l 437 -5 q 245 4 345 4 q 52 -5 145 4 l 52 -5 q 48 19 48 1 q 52 45 47 37 l 52 45 q 139 69 132 51 l 139 69 q 150 197 150 96 l 150 197 l 150 696 q 139 823 150 796 l 139 823 q 52 845 133 839 l 52 845 q 48 871 47 852 q 52 895 48 889 l 52 895 q 246 891 113 891 z "},"Q":{"ha":1031,"x_min":54,"x_max":1086,"o":"m 343 868 q 515 905 427 905 q 688 868 604 905 q 836 770 772 831 q 938 624 899 709 q 977 445 977 538 l 977 445 q 884 176 977 296 q 654 9 792 56 l 654 9 q 732 -32 686 -6 q 802 -69 779 -58 l 802 -69 q 956 -100 867 -100 l 956 -100 q 1023 -95 997 -100 q 1055 -90 1050 -90 q 1069 -95 1059 -90 l 1069 -95 q 1086 -114 1081 -101 l 1086 -114 q 946 -170 1026 -146 q 817 -194 867 -194 q 725 -178 767 -194 q 644 -138 682 -163 q 570 -88 606 -114 l 570 -88 q 408 0 477 -22 l 408 0 q 156 163 258 39 q 54 445 54 288 l 54 445 q 93 624 54 538 q 195 770 132 709 q 343 868 258 831 z m 668 748 q 589 819 637 792 q 489 846 541 846 q 400 825 437 846 q 339 769 363 804 q 300 688 315 734 l 300 688 q 271 520 271 602 q 278 387 271 439 q 297 284 284 335 q 332 191 310 233 q 383 115 354 148 l 383 115 q 544 45 446 45 l 544 45 q 730 202 676 45 l 730 202 q 760 374 760 288 q 750 523 760 460 q 720 644 741 585 q 668 748 699 703 z "},"R":{"ha":940,"x_min":47,"x_max":993,"o":"m 246 891 l 246 891 l 455 895 q 670 831 587 895 q 752 648 752 766 l 752 648 q 733 570 752 609 q 684 503 713 531 l 684 503 q 568 429 622 441 l 568 429 q 737 210 656 311 l 737 210 l 764 176 q 971 46 856 60 l 971 46 q 989 45 982 45 l 989 45 q 992 17 994 36 q 989 -5 991 -1 l 989 -5 q 826 -11 911 -11 l 826 -11 q 604 91 680 -11 l 604 91 l 385 385 q 360 406 371 406 l 360 406 l 340 406 l 340 197 q 351 69 340 96 l 351 69 q 437 45 357 51 l 437 45 q 442 19 442 37 q 437 -5 441 1 l 437 -5 q 245 4 345 4 q 52 -5 145 4 l 52 -5 q 48 19 48 1 q 52 45 47 37 l 52 45 q 139 69 132 51 l 139 69 q 150 197 150 96 l 150 197 l 150 696 q 139 823 150 796 l 139 823 q 52 845 133 839 l 52 845 q 48 871 47 852 q 52 895 48 889 l 52 895 q 246 891 113 891 z m 550 635 l 550 635 q 482 825 550 784 l 482 825 q 404 841 454 841 q 347 825 354 841 q 340 742 340 808 l 340 742 l 340 458 l 402 458 q 506 509 462 458 q 550 635 550 559 z "},"S":{"ha":707,"x_min":64,"x_max":650,"o":"m 590 871 l 590 871 q 605 646 598 785 l 605 646 q 590 637 599 637 l 590 637 q 549 647 552 637 l 549 647 q 495 777 541 710 l 495 777 q 439 831 473 810 q 364 852 406 852 q 288 824 322 852 q 254 734 254 796 l 254 734 q 397 553 254 656 l 397 553 q 436 526 416 539 q 477 499 456 513 q 506 480 499 485 q 532 461 513 475 q 560 439 552 447 l 560 439 l 583 416 q 606 388 599 400 q 623 358 612 376 q 637 323 633 340 l 637 323 q 650 237 650 276 l 650 237 q 607 107 650 165 q 496 17 564 48 q 338 -14 429 -14 q 96 22 248 -14 l 96 22 q 64 252 75 115 l 64 252 q 82 264 68 258 q 108 271 97 271 q 121 260 119 271 l 121 260 q 189 125 131 198 l 189 125 q 257 67 216 90 q 347 43 297 43 q 435 75 397 43 q 472 175 472 107 l 472 175 q 426 275 472 227 l 426 275 q 352 341 382 321 q 298 378 322 362 l 298 378 l 271 396 q 160 477 188 452 l 160 477 q 73 663 73 555 l 73 663 q 116 788 73 730 q 226 877 159 846 q 353 909 292 909 q 466 898 413 909 q 590 871 518 888 z "},"T":{"ha":860,"x_min":11,"x_max":849,"o":"m 205 891 l 655 891 q 757 904 726 891 q 796 917 788 917 q 812 913 804 917 l 812 913 l 849 663 q 833 657 846 661 q 808 654 819 654 q 796 661 798 654 l 796 661 q 744 780 786 728 q 651 831 702 831 l 651 831 l 525 831 l 525 197 q 536 69 525 96 l 536 69 q 623 45 543 51 l 623 45 q 627 19 627 37 q 623 -5 627 1 l 623 -5 q 430 4 530 4 q 237 -5 330 4 l 237 -5 q 233 19 233 1 q 237 45 233 37 l 237 45 q 324 69 317 51 l 324 69 q 335 197 335 96 l 335 197 l 335 831 l 209 831 q 116 780 158 831 q 64 661 74 728 l 64 661 q 52 654 62 654 l 52 654 q 11 663 20 654 l 11 663 l 47 913 q 64 917 56 917 q 87 910 72 917 l 87 910 q 205 891 133 891 l 205 891 z "},"U":{"ha":990,"x_min":26,"x_max":990,"o":"m 827 888 l 827 888 l 985 898 q 990 873 989 892 q 985 848 990 855 l 985 848 q 968 847 975 848 q 953 845 962 846 q 938 843 944 844 q 923 840 932 842 q 909 836 915 838 q 897 830 903 833 l 897 830 q 879 810 885 825 q 867 746 873 795 q 862 651 862 696 l 862 651 l 862 388 q 705 50 862 155 l 705 50 q 490 -12 613 -12 l 490 -12 q 327 18 401 -12 q 204 107 252 48 l 204 107 q 128 408 128 203 l 128 408 l 128 696 q 117 823 128 796 l 117 823 q 31 848 111 842 l 31 848 q 26 873 26 855 q 31 898 26 892 l 31 898 q 223 888 123 888 q 416 898 323 888 l 416 898 q 420 873 420 892 q 416 848 420 855 l 416 848 q 329 823 336 842 l 329 823 q 318 696 318 796 l 318 696 l 318 448 q 324 316 318 367 q 352 216 330 265 l 352 216 q 558 85 408 85 l 558 85 q 709 163 645 85 l 709 163 q 778 419 778 247 l 778 419 l 778 650 q 759 815 778 769 l 759 815 q 657 848 748 841 l 657 848 q 653 873 652 855 q 657 898 653 892 l 657 898 q 827 888 769 888 z "},"V":{"ha":928,"x_min":-8,"x_max":952,"o":"m 795 888 l 795 888 l 947 898 q 952 873 951 892 q 947 848 952 855 l 947 848 q 938 847 946 848 q 923 846 929 846 q 908 844 918 846 q 891 841 898 843 q 876 837 884 840 l 876 837 q 847 815 859 832 q 784 677 834 799 q 642 340 733 555 q 516 41 551 125 l 516 41 q 486 4 508 22 q 454 -15 463 -15 q 443 -13 446 -15 q 437 -4 439 -10 q 432 4 434 1 l 432 4 l 136 692 q 89 803 107 763 l 89 803 q 61 830 81 819 l 61 830 q -3 848 33 844 l -3 848 q -8 873 -8 855 q -3 898 -7 892 l -3 898 q 189 888 90 888 q 382 898 289 888 l 382 898 q 386 873 386 892 q 382 848 387 855 l 382 848 q 346 845 357 848 q 328 840 335 842 q 316 836 321 838 q 308 829 312 833 l 308 829 q 299 804 299 823 q 332 709 299 785 l 332 709 l 534 252 q 722 732 713 703 q 735 774 731 760 l 735 774 q 743 815 743 799 l 743 815 q 634 848 743 840 l 634 848 q 630 873 629 855 q 634 898 630 892 l 634 898 q 795 888 746 888 z "},"W":{"ha":1290,"x_min":-8,"x_max":1308,"o":"m 1152 888 l 1152 888 l 1303 898 q 1308 873 1308 892 q 1303 848 1308 855 l 1303 848 q 1294 847 1302 848 q 1279 846 1285 846 q 1264 844 1274 846 q 1247 841 1254 843 q 1232 837 1240 840 l 1232 837 q 1208 823 1215 832 l 1208 823 q 1149 700 1174 777 q 930 54 1124 622 l 930 54 q 905 6 921 28 q 876 -15 888 -15 q 850 4 864 -15 l 850 4 l 627 567 q 454 60 521 254 l 454 60 q 432 12 447 39 q 406 -15 418 -15 q 381 4 395 -15 l 381 4 l 137 692 q 90 803 130 714 l 90 803 q 62 830 82 819 l 62 830 q -3 848 34 844 l -3 848 q -8 873 -8 855 q -3 898 -7 891 l -3 898 q 190 888 90 888 q 382 898 290 888 l 382 898 q 387 873 387 892 q 382 848 387 855 l 382 848 q 346 845 357 848 q 329 840 336 842 q 317 836 321 838 q 308 829 313 833 l 308 829 q 300 814 300 823 q 301 797 300 805 q 307 777 303 789 q 315 757 311 765 l 315 757 l 323 732 q 332 709 330 716 l 332 709 l 465 340 q 633 814 613 760 q 665 883 653 868 q 686 898 677 898 q 704 876 696 898 l 704 876 l 936 290 q 1093 790 1090 772 q 1096 815 1096 807 l 1096 815 q 990 848 1096 840 l 990 848 q 986 873 985 855 q 990 898 986 892 l 990 898 q 1152 888 1101 888 z "},"X":{"ha":963,"x_min":-12,"x_max":969,"o":"m 608 98 l 427 370 q 229 88 229 109 q 266 56 229 68 q 342 45 303 45 l 342 45 q 348 22 347 38 q 346 -5 349 5 l 346 -5 q 174 3 212 3 q 106 1 136 3 q 43 -2 77 0 q -7 -5 9 -5 l -7 -5 q -12 19 -12 1 q -7 45 -12 38 l -7 45 q 91 66 56 45 q 141 107 126 87 l 141 107 l 382 437 l 193 728 q 178 751 189 734 q 161 776 168 767 q 146 796 155 785 l 146 796 q 119 827 131 819 q 75 842 106 836 q 27 848 44 848 l 27 848 q 22 870 22 848 q 27 898 22 892 l 27 898 q 249 890 227 890 q 434 898 271 890 l 434 898 q 436 870 437 892 q 431 848 436 848 l 431 848 q 386 840 411 848 q 359 819 360 833 l 359 819 q 370 789 359 806 l 370 789 l 521 562 q 585 640 538 584 l 585 640 q 701 802 701 782 q 669 835 701 823 q 601 848 637 848 l 601 848 q 595 870 595 848 q 600 898 595 892 l 600 898 q 778 888 682 888 q 943 898 873 888 l 943 898 q 946 869 946 891 q 941 848 946 848 l 941 848 q 789 776 851 848 l 789 776 l 557 500 q 825 109 793 145 q 898 59 856 73 q 964 45 939 45 l 964 45 q 969 19 968 35 q 964 -5 969 3 l 964 -5 q 741 3 802 3 q 533 -5 680 3 l 533 -5 q 529 22 528 0 q 536 45 530 45 l 536 45 q 583 56 553 45 q 612 83 612 66 l 612 83 q 608 98 612 92 l 608 98 z "},"Y":{"ha":846,"x_min":0,"x_max":867,"o":"m 316 144 l 316 144 l 317 178 l 317 385 q 174 666 317 409 l 174 666 l 139 728 q 100 798 117 770 l 100 798 q 5 848 74 842 l 5 848 q 0 873 0 855 q 5 898 1 892 l 5 898 q 197 888 98 888 q 390 898 297 888 l 390 898 q 394 873 394 892 q 390 848 395 855 l 390 848 q 354 845 365 848 q 336 840 343 842 q 325 836 329 838 q 316 829 320 833 q 309 821 311 826 q 307 811 307 817 q 317 789 307 806 l 317 789 l 479 490 q 650 784 488 481 l 650 784 q 657 815 657 798 l 657 815 q 557 848 657 840 l 557 848 q 552 873 552 855 q 557 898 553 892 l 557 898 q 710 888 669 888 l 710 888 l 862 898 q 866 873 866 892 q 862 848 867 855 l 862 848 q 790 836 803 843 l 790 836 q 762 814 768 823 l 762 814 q 632 607 725 758 q 523 423 538 456 q 507 378 507 391 l 507 378 l 507 197 q 517 69 505 99 l 517 69 q 604 45 524 51 l 604 45 q 609 19 609 37 q 604 -5 608 1 l 604 -5 q 412 4 511 4 q 219 -5 312 4 l 219 -5 q 215 19 215 1 q 219 45 214 37 l 219 45 q 306 69 299 51 l 306 69 q 316 144 316 93 z "},"Z":{"ha":868,"x_min":28,"x_max":833,"o":"m 63 642 l 63 642 l 112 898 q 195 891 126 895 q 290 888 264 888 l 290 888 l 479 890 q 794 903 629 892 l 794 903 q 803 886 798 903 q 808 859 808 869 l 808 859 q 411 260 805 849 l 411 260 l 280 64 l 573 64 q 702 111 654 64 l 702 111 q 774 231 746 155 l 774 231 q 789 239 776 239 l 789 239 q 833 231 825 239 l 833 231 q 797 122 827 210 q 760 1 767 35 l 760 1 l 63 0 q 36 14 45 0 q 28 30 26 27 l 28 30 l 565 827 l 317 827 q 217 803 252 827 l 217 803 q 177 768 187 783 q 161 744 167 753 q 149 720 156 736 q 139 695 142 703 q 129 668 136 686 q 120 643 123 650 q 94 635 117 635 q 63 642 70 635 z "},"[":{"ha":419,"x_min":102,"x_max":414,"o":"m 102 -134 l 102 1013 q 127 1044 102 1043 l 127 1044 q 406 1066 294 1044 l 406 1066 q 414 1054 414 1066 q 409 1031 414 1042 q 400 1019 404 1020 l 400 1019 q 311 993 366 1002 q 247 982 256 984 l 247 982 l 247 -103 q 290 -111 256 -105 l 290 -111 q 400 -140 366 -123 l 400 -140 q 409 -152 404 -141 q 414 -172 414 -163 l 414 -172 q 406 -187 414 -187 l 406 -187 q 127 -165 294 -165 l 127 -165 q 102 -134 102 -164 l 102 -134 z "},"\\":{"ha":568,"x_min":37,"x_max":529,"o":"m 37 1024 l 37 1024 q 62 1032 43 1032 l 62 1032 q 114 1010 106 1032 l 114 1010 q 529 -35 529 -27 l 529 -35 q 516 -44 528 -40 q 492 -49 505 -49 l 492 -49 q 450 -24 460 -49 l 450 -24 q 234 524 370 178 q 37 1024 98 870 z "},"]":{"ha":419,"x_min":5,"x_max":317,"o":"m 14 -187 l 14 -187 q 5 -175 5 -187 q 11 -152 5 -163 q 19 -140 16 -141 l 19 -140 q 108 -114 53 -123 q 172 -103 163 -105 l 172 -103 l 172 982 q 129 990 163 984 l 129 990 q 19 1019 53 1002 l 19 1019 q 11 1031 16 1020 q 5 1051 5 1042 l 5 1051 q 14 1066 5 1066 l 14 1066 q 292 1044 125 1044 l 292 1044 q 317 1013 317 1043 l 317 1013 l 317 -134 q 292 -165 317 -164 l 292 -165 q 14 -187 125 -165 z "},"^":{"ha":530,"x_min":52,"x_max":452,"o":"m 227 888 l 227 888 q 253 907 237 907 q 279 888 269 907 l 279 888 q 334 791 300 852 l 334 791 q 452 593 399 674 l 452 593 q 443 575 452 583 q 426 568 435 568 l 426 568 q 278 724 355 633 l 278 724 l 252 754 q 79 568 157 642 l 79 568 q 60 575 69 568 q 52 593 52 583 l 52 593 q 227 888 106 676 z "},"_":{"ha":669,"x_min":11,"x_max":646,"o":"m 11 -45 l 11 -45 q 31 18 18 18 l 31 18 l 640 18 q 646 8 646 18 q 638 -27 646 -1 l 638 -27 q 624 -58 630 -57 l 624 -58 l 20 -58 q 11 -45 11 -58 z "},"`":{"ha":338,"x_min":60,"x_max":294,"o":"m 60 892 l 60 892 q 75 918 60 905 q 123 932 91 932 q 168 920 156 932 l 168 920 q 253 803 212 869 q 294 731 294 736 q 286 717 294 726 q 271 708 278 708 q 212 743 263 708 q 110 823 161 777 q 60 892 60 869 z "},"a":{"ha":640,"x_min":42,"x_max":621,"o":"m 225 168 q 252 106 226 128 q 304 84 277 84 q 347 95 331 84 q 363 113 363 105 l 363 113 l 363 302 q 325 285 359 300 q 274 259 290 269 l 274 259 q 225 168 222 226 l 225 168 z m 540 148 q 549 107 540 121 q 573 92 558 92 q 612 106 587 92 l 612 106 q 621 86 621 101 q 616 62 621 71 l 616 62 q 476 -8 538 -8 l 476 -8 q 413 13 444 -8 q 373 60 382 34 l 373 60 q 304 17 356 45 q 220 -11 252 -11 l 220 -11 q 94 40 145 -11 q 42 155 42 92 l 42 155 q 63 223 42 193 q 110 262 85 254 q 181 288 135 271 l 181 288 q 363 358 235 308 l 363 358 l 363 422 q 341 516 363 475 q 283 557 318 557 l 283 557 q 224 509 241 557 l 224 509 q 205 444 213 481 l 205 444 q 129 384 192 384 l 129 384 q 79 402 100 384 q 58 446 58 421 q 77 505 58 471 l 77 505 q 181 570 103 530 q 341 609 260 609 q 481 550 422 609 q 540 401 540 492 l 540 401 l 540 148 z "},"b":{"ha":735,"x_min":-3,"x_max":694,"o":"m 269 783 l 269 783 l 269 551 q 272 544 269 544 q 277 545 274 544 l 277 545 q 342 587 302 566 q 412 609 382 609 l 412 609 q 612 527 530 609 q 694 320 694 444 l 694 320 q 534 43 694 138 l 534 43 q 330 -11 443 -11 l 330 -11 q 231 5 290 -11 q 152 20 172 20 q 109 11 132 20 l 109 11 q 91 25 105 11 q 77 45 77 39 l 77 45 q 93 206 93 87 l 93 206 l 93 757 q 83 822 93 799 l 83 822 q 50 840 79 833 q 2 846 20 846 l 2 846 q -3 867 -5 846 q 2 890 -1 887 l 2 890 q 250 939 131 902 l 250 939 q 266 942 263 943 q 276 933 269 942 q 284 920 283 925 l 284 920 q 269 783 269 859 z m 344 509 l 344 509 q 273 479 300 509 l 273 479 q 269 467 269 475 l 269 467 l 269 133 q 293 73 269 97 q 359 49 317 49 q 433 83 400 49 l 433 83 q 498 273 498 149 q 456 452 498 396 q 344 509 414 509 z "},"c":{"ha":606,"x_min":42,"x_max":576,"o":"m 533 583 l 533 583 q 560 520 560 553 q 538 460 560 486 q 481 434 516 434 l 481 434 q 447 446 460 434 q 428 463 433 457 q 413 480 422 468 l 413 480 q 308 537 367 537 l 308 537 q 257 507 279 537 l 257 507 q 213 365 213 448 q 231 232 213 282 q 278 154 249 181 l 278 154 q 417 102 335 102 q 560 170 498 102 l 560 170 q 572 160 567 168 q 576 139 576 152 q 569 114 576 125 q 541 82 562 102 q 490 40 521 62 l 490 40 q 334 -12 417 -12 q 186 21 250 -12 q 82 120 121 54 q 42 259 42 185 q 71 393 42 332 q 149 502 100 454 q 262 578 197 549 q 387 608 328 608 l 387 608 q 533 583 494 608 z "},"d":{"ha":742,"x_min":43,"x_max":713,"o":"m 472 -9 l 472 -9 q 460 23 460 -9 l 460 23 l 460 45 q 456 52 460 54 l 456 52 q 289 -11 365 -11 l 289 -11 q 117 71 190 -11 q 43 271 43 153 l 43 271 q 68 394 43 337 q 133 489 94 451 q 220 553 172 526 l 220 553 q 399 605 312 605 l 399 605 q 453 602 431 605 l 453 602 q 460 633 460 602 l 460 633 l 460 757 q 450 822 460 799 l 450 822 q 416 840 446 833 q 369 846 387 846 l 369 846 q 363 867 361 846 q 369 890 366 887 l 369 890 q 617 939 498 902 l 617 939 q 633 942 630 943 q 643 933 636 942 q 651 920 650 925 l 651 920 q 636 783 636 859 l 636 783 l 636 146 q 648 95 636 109 q 709 81 661 81 l 709 81 q 713 64 713 77 q 705 38 713 50 l 705 38 q 563 12 648 33 q 472 -9 479 -9 z m 460 475 q 427 515 460 494 q 354 536 395 536 q 285 506 313 536 l 285 506 q 236 334 236 452 q 273 146 236 216 q 373 76 311 76 l 373 76 q 430 94 400 76 q 460 126 460 112 l 460 126 l 460 475 z "},"e":{"ha":624,"x_min":43,"x_max":582,"o":"m 221 382 l 221 382 q 301 386 230 382 q 396 393 372 390 l 396 393 q 414 415 414 395 l 414 415 q 393 510 414 469 q 338 551 373 551 q 280 531 303 551 q 245 484 258 512 l 245 484 q 221 382 221 427 z m 220 328 l 220 328 q 317 127 220 182 l 317 127 q 410 102 362 102 l 410 102 q 562 170 500 102 l 562 170 q 573 160 568 168 q 578 139 578 152 q 570 114 578 125 q 543 82 563 102 q 491 40 522 62 l 491 40 q 335 -12 418 -12 q 187 21 252 -12 q 83 120 123 54 q 43 270 43 185 q 86 433 43 355 q 198 558 128 511 q 332 606 269 606 q 437 592 395 606 q 505 557 479 578 q 549 507 531 535 l 549 507 q 582 401 582 456 l 582 401 q 571 362 582 379 q 545 345 560 345 l 545 345 q 220 328 423 334 z "},"f":{"ha":481,"x_min":31,"x_max":555,"o":"m 236 844 q 328 918 279 890 q 415 947 376 947 q 502 933 454 947 l 502 933 q 555 870 555 905 q 536 806 555 834 q 486 777 517 777 l 486 777 q 443 789 458 777 q 415 813 428 801 q 396 829 401 825 l 396 829 q 342 849 371 849 l 342 849 q 313 817 326 849 q 301 725 301 785 q 307 581 301 665 l 307 581 l 465 581 q 473 567 473 581 q 463 539 473 554 q 442 517 453 524 l 442 517 l 311 517 l 311 197 q 321 69 311 96 l 321 69 q 408 45 328 51 l 408 45 q 413 19 413 37 q 408 -5 412 1 l 408 -5 q 222 4 316 4 q 37 -5 129 4 l 37 -5 q 32 19 33 1 q 37 45 32 37 l 37 45 q 123 69 117 51 l 123 69 q 134 197 134 96 l 134 197 l 134 517 l 38 517 q 31 534 31 519 l 31 534 q 75 581 49 559 l 75 581 l 134 581 l 134 601 q 164 733 134 667 q 236 844 193 798 z "},"g":{"ha":648,"x_min":33,"x_max":636,"o":"m 346 524 l 346 524 q 296 551 325 551 q 251 539 267 551 q 228 505 235 528 l 228 505 q 217 422 217 469 q 226 339 217 375 q 257 277 235 304 q 304 251 280 251 q 339 256 328 251 q 358 267 351 260 q 370 286 365 273 q 377 308 375 299 q 381 334 380 316 q 382 359 382 352 l 382 359 q 382 387 382 359 l 382 387 q 346 524 382 479 z m 353 -19 l 353 -19 l 203 -19 q 182 -79 182 -44 l 182 -79 q 227 -182 182 -144 q 331 -220 272 -220 q 424 -209 391 -220 q 473 -180 457 -198 l 473 -180 q 505 -106 505 -146 q 462 -42 505 -66 q 353 -19 420 -19 z m 263 132 l 263 132 q 452 130 418 132 q 523 111 486 127 q 579 71 559 94 l 579 71 q 623 -19 623 22 l 623 -19 q 570 -163 623 -98 q 435 -261 517 -227 q 256 -296 352 -296 q 96 -252 159 -296 q 33 -140 33 -209 l 33 -140 q 68 -66 33 -102 q 148 -8 104 -30 l 148 -8 q 90 41 114 1 q 66 125 66 81 l 66 125 q 101 171 66 142 q 179 224 136 200 l 179 224 q 87 294 121 248 q 53 399 53 341 l 53 399 q 124 542 53 484 q 294 601 195 601 q 444 567 393 601 l 444 567 q 452 563 448 563 l 452 563 l 621 579 q 636 565 636 574 q 624 530 636 556 q 602 496 612 503 l 602 496 q 526 505 576 498 l 526 505 q 518 500 518 505 l 518 500 q 547 406 547 461 l 547 406 q 476 260 547 320 q 301 201 405 201 l 301 201 q 231 208 267 201 l 231 208 q 198 166 198 181 q 218 141 198 151 q 263 132 237 132 z "},"h":{"ha":791,"x_min":18,"x_max":785,"o":"m 29 846 l 29 846 q 24 867 22 846 q 29 890 26 887 l 29 890 q 277 939 158 902 l 277 939 q 293 942 290 943 q 303 933 296 942 q 311 920 310 925 l 311 920 q 296 781 296 836 l 296 781 l 296 505 q 298 496 296 498 l 298 496 q 307 503 300 496 l 307 503 q 396 572 338 539 q 499 605 454 605 q 577 592 545 605 q 630 554 610 578 q 663 490 651 530 l 663 490 q 683 285 683 418 l 683 285 l 683 197 q 694 69 683 96 l 694 69 q 781 45 701 51 l 781 45 q 785 19 785 37 q 781 -5 785 1 l 781 -5 q 603 4 688 4 q 425 -5 518 4 l 425 -5 q 421 19 421 1 q 425 45 420 37 l 425 45 q 497 73 488 50 q 507 197 507 96 l 507 197 l 507 304 q 416 495 507 495 l 416 495 q 337 468 377 495 q 296 419 296 441 l 296 419 l 296 197 q 307 69 296 96 l 307 69 q 385 45 315 50 l 385 45 q 389 19 389 37 q 385 -5 389 1 l 385 -5 q 203 4 292 4 q 22 -5 115 4 l 22 -5 q 18 19 18 1 q 22 45 18 37 l 22 45 q 109 69 102 51 l 109 69 q 120 197 120 96 l 120 197 l 120 757 q 111 822 120 799 l 111 822 q 77 840 106 833 q 29 846 47 846 z "},"i":{"ha":427,"x_min":35,"x_max":407,"o":"m 329 582 l 329 582 q 314 419 314 537 l 314 419 l 314 197 q 325 69 314 96 l 325 69 q 402 45 332 50 l 402 45 q 407 19 407 37 q 402 -5 406 1 l 402 -5 q 221 4 309 4 q 40 -5 133 4 l 40 -5 q 36 19 36 1 q 40 45 35 37 l 40 45 q 127 69 120 51 l 127 69 q 138 197 138 96 l 138 197 l 138 353 q 125 464 138 441 l 125 464 q 87 484 119 477 q 40 491 56 491 l 40 491 q 37 513 37 493 q 41 533 37 533 l 41 533 q 186 560 112 538 q 306 605 260 582 l 306 605 q 321 594 313 603 q 329 582 329 585 z m 143 766 q 115 836 115 795 q 143 905 115 876 q 212 933 172 933 q 282 905 253 933 q 311 836 311 876 q 282 766 311 795 q 212 738 253 738 q 143 766 172 738 z "},"j":{"ha":388,"x_min":-16,"x_max":312,"o":"m 312 582 l 312 582 q 297 419 297 537 l 297 419 l 297 163 q 232 -138 297 -43 l 232 -138 q 115 -249 188 -203 q 3 -296 41 -296 l 3 -296 q -16 -275 -16 -285 q -15 -263 -16 -264 l -15 -263 q 32 -222 6 -253 q 75 -157 58 -192 q 106 -57 92 -121 q 121 87 121 8 l 121 87 l 121 353 q 109 464 121 441 l 109 464 q 70 484 102 477 q 23 491 39 491 l 23 491 q 20 513 20 493 q 24 533 20 533 l 24 533 q 169 560 95 538 q 289 605 243 582 l 289 605 q 304 594 296 603 q 312 582 312 585 z m 127 764 q 98 836 98 793 q 127 907 98 878 q 198 936 156 936 q 269 907 240 936 q 298 836 298 878 q 269 764 298 793 q 198 735 240 735 q 127 764 156 735 z "},"k":{"ha":800,"x_min":18,"x_max":797,"o":"m 610 590 l 610 590 l 760 597 q 764 570 766 587 q 756 549 762 553 l 756 549 q 622 507 671 541 l 622 507 q 539 435 603 494 q 443 347 475 376 l 443 347 q 555 220 498 282 q 637 131 612 159 q 685 85 662 103 q 729 60 708 67 l 729 60 q 797 49 760 49 l 797 49 q 797 8 806 23 l 797 8 q 677 -8 751 -8 l 677 -8 q 474 72 543 -8 l 474 72 q 346 216 380 172 l 346 216 q 296 273 309 262 l 296 273 l 296 197 q 307 69 296 96 l 307 69 q 394 45 314 51 l 394 45 q 398 19 399 37 q 394 -5 398 1 l 394 -5 q 208 4 301 4 q 22 -5 115 4 l 22 -5 q 18 19 18 1 q 22 45 18 37 l 22 45 q 109 69 102 51 l 109 69 q 120 197 120 96 l 120 197 l 120 757 q 111 822 120 799 l 111 822 q 77 840 106 833 q 29 846 47 846 l 29 846 q 24 867 22 846 q 29 890 26 887 l 29 890 q 277 939 158 902 l 277 939 q 293 942 290 943 q 303 933 296 942 q 311 920 310 925 l 311 920 q 296 781 296 836 l 296 781 l 295 320 q 399 391 331 333 q 491 476 467 449 q 516 519 516 504 l 516 519 q 485 539 516 530 q 429 549 454 548 l 429 549 q 427 576 426 558 q 432 595 427 593 l 432 595 q 610 590 553 590 z "},"l":{"ha":415,"x_min":18,"x_max":399,"o":"m 29 846 l 29 846 q 24 867 22 846 q 29 890 26 887 l 29 890 q 277 939 158 902 l 277 939 q 293 942 290 943 q 303 933 296 942 q 311 920 310 925 l 311 920 q 296 781 296 836 l 296 781 l 296 197 q 307 69 296 96 l 307 69 q 394 45 314 51 l 394 45 q 398 19 399 37 q 394 -5 398 1 l 394 -5 q 208 4 301 4 q 22 -5 115 4 l 22 -5 q 18 19 18 1 q 22 45 18 37 l 22 45 q 109 69 102 51 l 109 69 q 120 197 120 96 l 120 197 l 120 757 q 111 822 120 799 l 111 822 q 77 840 106 833 q 29 846 47 846 z "},"m":{"ha":1198,"x_min":35,"x_max":1192,"o":"m 326 503 q 415 572 358 539 q 527 605 473 605 q 620 579 582 605 q 683 488 659 553 l 683 488 q 794 569 729 534 q 906 605 860 605 q 984 592 951 605 q 1037 554 1017 578 q 1069 490 1058 530 l 1069 490 q 1090 285 1090 418 l 1090 285 l 1090 197 q 1101 69 1090 96 l 1101 69 q 1187 45 1107 51 l 1187 45 q 1192 19 1192 37 q 1187 -5 1192 1 l 1187 -5 q 1010 4 1095 4 q 832 -5 925 4 l 832 -5 q 828 19 828 1 q 832 45 827 37 l 832 45 q 904 73 895 50 q 913 197 913 96 l 913 197 l 913 304 q 823 495 913 495 l 823 495 q 739 468 783 495 q 695 420 695 441 l 695 420 l 695 412 q 701 285 701 336 l 701 285 l 701 197 q 711 69 701 96 l 711 69 q 795 45 718 51 l 795 45 q 800 19 800 37 q 795 -5 800 1 l 795 -5 q 618 4 703 4 q 440 -5 533 4 l 440 -5 q 436 19 436 1 q 440 45 435 37 l 440 45 q 515 73 506 50 q 524 197 524 96 l 524 197 l 524 304 q 433 495 524 495 l 433 495 q 354 468 395 495 q 314 419 314 441 l 314 419 l 314 197 q 325 69 314 96 l 325 69 q 402 45 332 50 l 402 45 q 407 19 407 37 q 402 -5 406 1 l 402 -5 q 221 4 309 4 q 40 -5 133 4 l 40 -5 q 36 19 36 1 q 40 45 35 37 l 40 45 q 127 69 120 51 l 127 69 q 138 197 138 96 l 138 197 l 138 353 q 125 464 138 441 l 125 464 q 87 484 119 477 q 40 491 56 491 l 40 491 q 37 513 37 493 q 41 533 37 533 l 41 533 q 186 560 112 538 q 306 605 260 582 l 306 605 q 321 594 313 603 q 328 580 329 585 q 320 540 326 574 l 320 540 q 317 496 313 500 l 317 496 q 326 503 319 496 l 326 503 z "},"n":{"ha":808,"x_min":35,"x_max":803,"o":"m 326 503 q 415 572 358 539 q 517 605 473 605 q 595 592 562 605 q 648 554 627 578 q 680 490 669 530 l 680 490 q 701 285 701 418 l 701 285 l 701 197 q 711 69 701 96 l 711 69 q 798 45 718 51 l 798 45 q 803 19 803 37 q 798 -5 802 1 l 798 -5 q 621 4 705 4 q 443 -5 536 4 l 443 -5 q 438 19 439 1 q 443 45 438 37 l 443 45 q 515 73 506 50 q 524 197 524 96 l 524 197 l 524 304 q 433 495 524 495 l 433 495 q 354 468 395 495 q 314 419 314 441 l 314 419 l 314 197 q 325 69 314 96 l 325 69 q 402 45 332 50 l 402 45 q 407 19 407 37 q 402 -5 406 1 l 402 -5 q 221 4 309 4 q 40 -5 133 4 l 40 -5 q 36 19 36 1 q 40 45 35 37 l 40 45 q 127 69 120 51 l 127 69 q 138 197 138 96 l 138 197 l 138 353 q 125 464 138 441 l 125 464 q 87 484 119 477 q 40 491 56 491 l 40 491 q 37 513 37 493 q 41 533 37 533 l 41 533 q 186 560 112 538 q 306 605 260 582 l 306 605 q 320 596 312 605 q 328 582 329 587 q 324 558 328 577 l 324 558 q 315 503 315 509 q 317 496 315 498 l 317 496 q 326 503 319 496 l 326 503 z "},"o":{"ha":722,"x_min":43,"x_max":678,"o":"m 472 400 q 425 506 458 460 q 350 551 391 551 q 286 530 309 551 q 253 472 263 509 l 253 472 q 236 333 236 409 q 250 197 236 257 q 296 92 263 137 q 376 47 329 47 l 376 47 q 484 212 473 47 l 484 212 q 486 289 486 239 q 472 400 486 339 z m 43 294 q 135 515 43 423 q 363 606 227 606 q 589 521 499 606 q 678 305 678 435 l 678 305 q 637 148 678 220 q 523 33 595 76 q 362 -9 450 -9 l 362 -9 q 133 78 222 -9 q 43 294 43 165 z "},"p":{"ha":750,"x_min":14,"x_max":707,"o":"m 441 608 l 441 608 q 583 566 521 608 q 676 459 644 525 q 707 318 707 393 q 676 179 707 243 q 597 75 646 115 l 597 75 q 375 -11 493 -11 l 375 -11 q 321 -5 345 -11 q 295 1 298 1 q 292 -20 292 1 l 292 -20 l 292 -94 q 303 -221 292 -194 l 303 -221 q 390 -245 310 -239 l 390 -245 q 394 -271 395 -253 q 390 -296 394 -290 l 390 -296 q 204 -286 297 -286 q 18 -296 111 -286 l 18 -296 q 14 -271 14 -290 q 18 -245 14 -253 l 18 -245 q 105 -221 98 -239 l 105 -221 q 116 -94 116 -194 l 116 -94 l 116 353 q 104 464 116 441 l 104 464 q 65 484 97 477 q 18 491 34 491 l 18 491 q 15 513 15 493 q 20 533 15 533 l 20 533 q 164 560 90 538 q 284 605 239 582 l 284 605 q 299 594 291 603 q 307 583 307 585 q 303 572 307 581 l 303 572 q 295 540 295 553 q 297 526 295 526 q 300 528 300 526 l 300 528 q 372 585 332 562 q 441 608 411 608 z m 367 509 l 367 509 q 300 484 323 509 l 300 484 q 292 471 292 475 l 292 471 l 292 130 q 319 70 292 92 q 375 49 347 49 q 424 62 403 49 q 465 100 444 75 l 465 100 q 512 270 512 158 l 512 270 q 367 509 512 509 z "},"q":{"ha":724,"x_min":43,"x_max":734,"o":"m 438 499 q 400 526 421 517 q 351 534 380 534 q 297 516 321 534 q 260 468 273 498 l 260 468 q 236 348 236 411 q 243 242 236 284 q 266 161 250 199 q 309 99 281 123 q 367 76 337 76 q 417 83 397 76 q 446 98 437 90 q 456 109 456 105 l 456 109 l 456 467 q 438 499 456 481 z m 445 -221 l 445 -221 q 456 -84 456 -194 l 456 -84 l 456 35 q 453 42 456 42 q 438 33 450 42 q 380 7 426 24 q 293 -11 335 -11 l 293 -11 q 117 70 191 -11 q 43 260 43 150 l 43 260 q 76 404 43 337 q 161 513 109 470 l 161 513 q 407 605 272 605 l 407 605 q 491 589 434 605 q 568 574 548 574 q 616 583 587 574 l 616 583 q 635 569 623 581 q 648 549 648 556 l 648 549 q 632 395 632 510 l 632 395 l 632 -94 q 643 -221 632 -194 l 643 -221 q 730 -245 650 -239 l 730 -245 q 734 -271 734 -253 q 730 -296 734 -290 l 730 -296 q 544 -286 637 -286 q 358 -296 450 -286 l 358 -296 q 354 -271 354 -290 q 358 -245 353 -253 l 358 -245 q 445 -221 438 -239 z "},"r":{"ha":609,"x_min":35,"x_max":593,"o":"m 435 594 l 435 594 q 508 606 463 606 q 578 583 553 606 l 578 583 q 593 519 593 559 q 569 445 593 479 q 512 410 545 410 l 512 410 q 454 444 488 410 l 454 444 q 421 470 430 467 q 405 472 412 472 l 405 472 q 341 431 368 472 q 314 362 314 391 l 314 362 l 314 197 q 325 69 314 96 l 325 69 q 425 45 332 52 l 425 45 q 429 19 429 37 q 425 -5 429 1 l 425 -5 q 233 4 332 4 q 40 -5 133 4 l 40 -5 q 36 19 36 1 q 40 45 35 37 l 40 45 q 127 69 120 51 l 127 69 q 138 197 138 96 l 138 197 l 138 353 q 125 464 138 441 l 125 464 q 87 484 119 477 q 40 491 56 491 l 40 491 q 37 513 37 493 q 41 533 37 533 l 41 533 q 186 560 112 538 q 306 605 260 582 l 306 605 q 321 594 313 603 q 328 579 329 585 q 321 532 326 574 q 315 480 315 490 q 317 470 315 471 l 317 470 q 323 471 321 467 l 323 471 q 435 594 378 568 z "},"s":{"ha":548,"x_min":52,"x_max":498,"o":"m 484 415 l 484 415 q 467 406 484 406 q 434 416 450 406 l 434 416 q 290 553 404 553 l 290 553 q 234 534 256 553 q 213 489 213 515 q 219 449 213 463 q 235 424 226 434 q 260 404 244 414 q 288 388 276 394 q 321 374 300 382 l 321 374 q 439 309 402 338 l 439 309 q 498 176 498 261 l 498 176 q 332 0 498 37 l 332 0 q 248 -11 286 -11 q 184 -7 210 -11 q 143 0 158 -3 q 101 10 127 3 q 72 18 75 17 l 72 18 q 65 107 68 38 q 61 194 61 176 l 61 194 q 75 203 61 203 l 75 203 q 111 190 104 203 l 111 190 q 214 50 130 77 l 214 50 q 264 43 235 43 q 314 65 292 43 q 335 112 335 87 q 327 152 335 136 q 303 179 319 167 q 273 199 288 191 q 234 218 258 207 q 185 243 209 230 q 139 272 161 256 q 95 311 116 288 l 95 311 q 52 412 52 355 q 76 506 52 469 q 138 566 100 544 l 138 566 q 304 608 214 608 l 304 608 q 400 595 353 608 q 456 582 448 583 l 456 582 q 484 415 484 461 z "},"t":{"ha":464,"x_min":8,"x_max":450,"o":"m 288 796 l 288 581 q 442 581 288 581 l 442 581 q 450 567 450 581 q 440 539 450 554 q 419 517 430 524 l 419 517 l 288 517 l 288 180 q 305 102 288 127 q 353 77 323 77 l 353 77 q 433 110 400 77 l 433 110 q 442 94 442 100 l 442 94 q 431 64 442 76 q 404 39 420 53 q 354 8 388 25 q 290 -9 319 -9 q 237 -4 261 -9 q 190 17 213 2 q 149 53 166 31 l 149 53 q 111 189 111 102 l 111 189 l 111 517 l 15 517 q 8 534 8 519 l 8 534 q 52 581 26 559 l 52 581 l 111 581 l 111 652 q 197 736 142 678 q 254 796 252 794 l 254 796 q 276 803 265 803 q 288 796 286 802 l 288 796 z "},"u":{"ha":768,"x_min":12,"x_max":736,"o":"m 304 582 l 304 582 q 290 419 290 537 l 290 419 l 290 297 q 312 129 290 182 q 395 76 335 76 l 395 76 q 453 93 423 76 q 482 126 482 111 l 482 126 l 482 353 q 470 464 482 441 l 470 464 q 432 484 463 477 q 385 491 400 491 l 385 491 q 381 513 381 493 q 386 533 381 533 l 386 533 q 531 560 456 538 q 650 605 605 582 l 650 605 q 665 594 657 603 q 673 582 673 585 l 673 582 q 659 419 659 537 l 659 419 l 659 146 q 671 95 659 109 q 732 81 683 81 l 732 81 q 736 64 736 77 q 728 38 736 50 l 728 38 q 586 12 670 33 q 494 -9 501 -9 l 494 -9 q 482 23 482 -9 l 482 23 l 482 45 q 478 52 482 54 l 478 52 q 287 -7 391 -7 l 287 -7 q 122 144 154 -7 l 122 144 q 113 236 113 186 l 113 236 l 113 353 q 101 464 113 441 l 101 464 q 63 484 94 477 q 16 491 31 491 l 16 491 q 12 513 12 493 q 17 533 12 533 l 17 533 q 162 560 87 538 q 281 605 236 582 l 281 605 q 296 594 288 603 q 304 582 304 585 z "},"v":{"ha":723,"x_min":-5,"x_max":729,"o":"m 0 601 l 0 601 q 178 591 82 591 q 354 601 275 591 l 354 601 q 359 576 359 595 q 354 551 359 557 l 354 551 q 305 540 336 551 q 274 515 274 529 q 277 494 274 500 l 277 494 l 416 227 q 509 429 479 363 q 538 510 538 494 q 526 534 538 526 q 494 545 513 542 l 494 545 q 442 551 463 551 l 442 551 q 437 575 437 555 q 441 601 437 594 l 441 601 q 583 591 512 591 q 724 601 653 591 l 724 601 q 729 577 728 595 q 724 551 729 558 l 724 551 q 654 537 684 551 q 614 506 623 524 l 614 506 l 406 61 q 345 -15 367 -15 l 345 -15 q 328 -4 339 -15 l 328 -4 q 85 499 156 355 l 85 499 q 45 538 74 526 q 0 551 16 551 l 0 551 q -5 577 -5 559 q 0 601 -5 594 z "},"w":{"ha":1070,"x_min":-5,"x_max":1075,"o":"m 0 601 l 0 601 q 178 591 82 591 q 354 601 275 591 l 354 601 q 359 576 359 595 q 354 551 359 557 l 354 551 q 305 540 336 551 q 274 515 274 529 q 277 494 274 500 l 277 494 l 408 233 q 498 454 498 434 q 485 499 498 475 q 444 537 473 524 q 400 551 415 551 l 400 551 q 394 577 393 559 q 399 601 394 594 l 399 601 q 582 591 447 595 l 582 591 q 753 601 673 591 l 753 601 q 758 576 758 595 q 753 551 758 557 l 753 551 q 704 540 734 551 q 673 515 673 529 q 675 494 673 500 l 675 494 l 789 244 q 882 464 838 365 l 882 464 q 897 513 897 501 q 884 534 897 526 q 852 545 871 542 l 852 545 q 800 551 821 551 l 800 551 q 795 575 795 555 q 799 601 795 594 l 799 601 q 935 591 870 591 q 1070 601 999 591 l 1070 601 q 1075 577 1074 595 q 1070 551 1075 558 l 1070 551 q 978 509 996 551 l 978 509 q 779 60 870 258 l 779 60 q 742 4 762 24 q 714 -15 722 -15 q 694 -4 705 -15 l 694 -4 q 544 374 589 269 l 544 374 q 434 115 506 281 l 434 115 l 410 60 q 374 5 394 24 q 345 -15 353 -15 q 326 -4 336 -15 l 326 -4 q 85 499 154 361 l 85 499 q 44 538 73 526 q 0 551 16 551 l 0 551 q -5 577 -5 559 q 0 601 -5 594 z "},"x":{"ha":757,"x_min":7,"x_max":752,"o":"m 211 591 l 211 591 q 382 601 302 591 l 382 601 q 387 576 387 595 q 382 551 387 557 l 382 551 q 340 543 363 551 q 317 521 317 536 l 317 521 q 330 502 317 519 l 330 502 l 417 391 q 522 514 522 503 q 509 534 522 526 q 477 545 496 542 l 477 545 q 425 551 446 551 l 425 551 q 420 575 420 555 q 424 601 420 594 l 424 601 q 577 591 495 591 q 730 601 659 591 l 730 601 q 735 577 734 595 q 730 551 735 558 l 730 551 q 612 501 660 551 q 462 334 564 451 l 462 334 q 555 216 494 292 q 654 90 615 140 l 654 90 q 701 56 672 66 q 745 45 730 45 l 745 45 q 752 19 752 36 q 747 -5 751 1 l 747 -5 q 558 4 700 1 l 558 4 q 386 -5 465 4 l 386 -5 q 381 19 381 0 q 386 45 381 39 l 386 45 q 428 52 405 45 q 451 75 451 60 l 451 75 q 437 94 451 77 l 437 94 l 341 212 q 308 177 332 201 l 308 177 q 240 103 252 119 q 229 79 229 88 q 241 62 229 70 q 273 50 254 54 l 273 50 q 325 45 304 45 l 325 45 q 330 21 330 40 q 326 -5 330 1 l 326 -5 q 169 4 255 4 q 12 -5 83 4 l 12 -5 q 7 19 7 0 q 12 45 7 37 l 12 45 q 68 57 34 45 q 134 99 103 70 q 223 191 164 128 q 296 270 281 254 l 296 270 q 119 507 168 444 l 119 507 q 71 540 101 530 q 25 551 41 551 l 25 551 q 19 577 18 559 q 24 601 19 594 l 24 601 q 211 591 71 595 z "},"y":{"ha":724,"x_min":-5,"x_max":729,"o":"m 0 601 l 0 601 q 178 591 82 591 q 354 601 275 591 l 354 601 q 359 576 359 595 q 354 551 359 557 l 354 551 q 305 540 336 551 q 274 515 274 529 q 277 494 274 500 l 277 494 l 416 227 q 509 429 479 363 q 538 510 538 494 q 526 534 538 526 q 494 545 513 542 l 494 545 q 442 551 463 551 l 442 551 q 437 575 437 555 q 441 601 437 594 l 441 601 q 583 591 512 591 q 724 601 653 591 l 724 601 q 729 577 728 595 q 724 551 729 558 l 724 551 q 654 537 684 551 q 614 506 623 524 l 614 506 q 430 115 476 212 q 363 -24 383 18 q 335 -83 344 -66 l 335 -83 q 271 -182 307 -138 l 271 -182 q 99 -296 180 -296 l 99 -296 q 33 -274 58 -296 q 8 -217 8 -253 q 39 -160 8 -182 l 39 -160 q 175 -140 127 -160 q 263 -54 224 -119 l 263 -54 q 311 42 283 -20 l 311 42 l 85 499 q 45 538 74 526 q 0 551 16 551 l 0 551 q -5 577 -5 559 q 0 601 -5 594 z "},"z":{"ha":624,"x_min":39,"x_max":589,"o":"m 203 581 l 203 581 l 391 581 q 566 591 477 581 l 566 591 q 570 559 570 585 l 570 559 l 240 62 l 395 62 q 489 107 450 62 q 537 199 527 151 l 537 199 q 550 209 539 209 q 570 205 562 209 l 570 205 q 589 195 585 199 l 589 195 q 544 37 572 148 l 544 37 l 534 0 l 53 0 q 39 23 39 11 q 45 46 39 35 l 45 46 l 349 517 q 219 518 251 518 q 171 509 188 518 q 143 487 154 499 q 123 456 133 475 l 123 456 q 98 391 110 430 l 98 391 q 73 381 95 381 q 50 387 50 381 l 50 387 q 75 589 68 486 l 75 589 q 203 581 155 581 z "},"{":{"ha":404,"x_min":22,"x_max":369,"o":"m 145 566 q 134 643 145 608 q 116 703 123 679 q 109 768 109 728 q 128 848 109 808 q 178 920 148 889 q 242 976 208 951 l 242 976 q 359 1031 313 1027 l 359 1031 q 369 1017 363 1031 q 369 996 374 1003 l 369 996 q 297 930 331 975 q 263 826 263 885 l 263 826 q 265 788 263 799 q 268 772 267 777 q 272 758 269 767 q 275 747 275 749 q 280 735 276 745 q 284 724 284 725 l 284 724 q 301 631 301 680 q 282 541 301 581 q 235 475 262 501 l 235 475 q 133 418 175 418 l 133 418 q 235 360 175 418 l 235 360 q 282 294 262 334 q 301 205 301 254 l 301 205 q 281 102 301 153 l 281 102 q 263 5 263 60 q 297 -95 263 -50 q 369 -160 331 -140 l 369 -160 q 369 -181 374 -168 q 359 -195 363 -195 l 359 -195 q 242 -140 313 -192 l 242 -140 q 109 68 109 -43 l 109 68 q 127 169 109 110 q 145 269 145 228 q 109 349 145 311 q 26 403 73 388 l 26 403 q 22 418 22 407 q 26 433 22 429 l 26 433 q 109 486 73 448 q 145 566 145 525 z "},"|":{"ha":274,"x_min":100,"x_max":173,"o":"m 108 1038 l 108 1038 q 151 1044 131 1044 q 172 1038 172 1044 l 172 1038 l 172 1036 l 173 -146 q 144 -160 173 -153 q 110 -167 115 -167 q 103 -166 104 -167 q 101 -164 101 -165 q 101 -160 100 -163 q 101 -156 101 -157 l 101 -156 l 101 1027 q 108 1038 100 1035 z "},"}":{"ha":406,"x_min":37,"x_max":384,"o":"m 46 1031 l 46 1031 q 163 976 92 1027 l 163 976 q 297 768 297 879 l 297 768 q 279 671 297 730 q 260 568 260 612 q 296 486 260 525 q 380 433 332 448 l 380 433 q 384 418 384 429 q 380 403 384 407 l 380 403 q 296 349 332 388 q 260 270 260 311 q 279 170 260 229 q 297 70 297 112 q 277 -13 297 28 q 228 -84 258 -54 q 163 -140 198 -115 l 163 -140 q 46 -195 92 -192 l 46 -195 q 37 -181 42 -195 q 37 -160 31 -168 l 37 -160 q 109 -95 75 -140 q 142 9 142 -50 l 142 9 q 136 73 142 56 q 117 123 130 90 q 104 205 104 156 q 124 294 104 254 q 170 360 143 334 l 170 360 q 273 418 231 418 l 273 418 q 170 475 231 418 l 170 475 q 124 541 143 501 q 104 607 104 581 q 105 643 104 633 q 106 661 105 652 q 108 676 107 669 q 111 690 109 682 q 113 701 113 697 q 117 712 114 705 q 120 722 119 720 l 120 722 q 133 756 124 734 q 142 832 142 779 q 109 930 142 885 q 37 996 75 975 l 37 996 q 37 1017 31 1003 q 46 1031 42 1031 z "},"~":{"ha":746,"x_min":65,"x_max":689,"o":"m 378 361 l 378 361 q 354 370 358 369 q 331 380 351 372 q 303 391 311 388 q 278 399 296 393 q 250 408 260 406 l 250 408 q 186 415 216 415 q 123 394 156 415 q 75 351 91 373 l 75 351 q 65 362 67 354 l 65 362 q 119 450 65 404 q 232 496 174 496 l 232 496 q 326 481 288 496 q 384 458 364 466 q 417 443 403 450 q 437 435 432 437 q 455 428 441 433 q 476 420 469 422 q 496 415 484 418 q 518 410 509 411 l 518 410 q 572 406 546 406 q 631 427 598 406 q 680 469 663 448 l 680 469 q 689 458 687 467 l 689 458 q 635 370 689 416 q 522 324 581 324 l 522 324 q 378 361 467 324 z "},"¡":{"ha":335,"x_min":66,"x_max":270,"o":"m 168 397 q 96 428 126 397 q 66 500 66 459 q 96 571 66 541 q 168 601 125 601 q 240 570 210 601 q 270 498 270 540 q 240 427 270 456 q 168 397 210 397 z m 252 -191 q 227 -260 252 -235 q 165 -285 201 -285 q 104 -260 129 -285 q 79 -200 79 -235 q 100 13 79 -165 q 136 286 121 191 l 136 286 q 163 321 144 315 l 163 321 q 178 315 168 321 q 194 298 189 308 l 194 298 q 230 34 208 216 q 252 -191 252 -147 z "},"¢":{"ha":654,"x_min":60,"x_max":594,"o":"m 551 583 l 551 583 q 578 520 578 553 q 556 460 578 486 q 499 434 534 434 l 499 434 q 465 446 478 434 q 446 463 451 457 q 431 480 440 468 l 431 480 q 326 537 385 537 l 326 537 q 275 507 297 537 l 275 507 q 231 365 231 448 q 249 232 231 282 q 296 154 267 181 l 296 154 q 434 102 353 102 q 578 170 516 102 l 578 170 q 589 160 585 168 q 594 139 594 152 q 587 114 594 125 q 559 82 579 102 q 507 40 538 62 l 507 40 q 351 -12 435 -12 q 203 21 268 -12 q 99 120 139 54 q 60 259 60 185 q 89 393 60 332 q 166 502 118 454 q 280 578 214 549 q 404 608 345 608 l 404 608 q 551 583 511 608 z m 269 -39 l 381 652 q 429 642 429 652 l 429 642 l 316 -52 q 269 -39 275 -52 l 269 -39 z "},"£":{"ha":648,"x_min":63,"x_max":602,"o":"m 234 762 q 330 835 277 807 q 421 863 382 863 q 481 855 461 863 q 526 833 501 848 l 526 833 q 534 814 530 829 q 538 777 538 800 q 519 731 538 753 q 473 709 500 709 q 431 718 446 709 q 404 743 416 727 q 385 765 391 758 l 385 765 q 345 787 366 787 q 311 775 324 787 q 290 739 297 763 l 290 739 q 277 634 277 699 q 304 494 277 570 l 304 494 q 312 473 309 484 l 312 473 l 520 473 q 518 430 536 460 l 518 430 q 507 416 511 420 l 507 416 l 327 416 q 332 368 332 390 l 332 368 q 300 256 332 316 q 235 165 269 197 l 235 165 q 323 186 272 186 l 323 186 q 400 157 347 186 q 481 127 453 127 q 523 134 509 127 q 548 153 537 140 l 548 153 q 573 191 562 171 l 573 191 q 593 185 584 197 q 602 156 602 174 l 602 156 q 555 70 587 112 l 555 70 q 418 -11 492 -11 l 418 -11 q 307 29 362 -11 q 189 69 252 69 l 189 69 q 144 50 165 69 q 105 12 122 30 q 85 -8 88 -5 l 85 -8 q 70 2 77 -8 q 63 22 63 12 q 68 45 63 33 q 82 70 73 58 q 98 92 91 83 l 98 92 q 136 134 117 114 q 166 206 155 154 q 177 305 177 258 l 177 305 q 159 416 177 349 l 159 416 l 64 416 q 71 448 58 422 q 92 473 83 473 l 92 473 l 144 473 q 135 521 135 511 l 135 521 q 163 652 135 587 q 234 762 191 716 z "},"¤":{"ha":764,"x_min":99,"x_max":669,"o":"m 258 426 q 297 279 258 341 q 388 217 336 217 q 470 269 440 217 q 500 406 500 321 q 463 555 500 492 q 373 618 425 618 q 290 565 321 618 q 258 426 258 511 z m 533 617 l 533 617 l 613 692 q 630 689 618 697 l 630 689 q 669 632 658 669 l 669 632 l 587 556 q 627 413 627 490 q 582 270 627 336 l 582 270 l 655 191 q 652 174 661 186 l 652 174 q 595 136 632 146 l 595 136 l 525 210 q 377 163 460 163 q 227 217 294 163 l 227 217 l 155 149 q 138 152 149 144 l 138 152 q 99 209 110 172 l 99 209 l 172 278 q 132 424 132 342 q 183 574 132 505 l 183 574 l 113 650 q 115 667 107 655 l 115 667 q 172 705 136 694 l 172 705 l 243 631 q 385 673 304 673 q 533 617 467 673 z "},"¥":{"ha":939,"x_min":38,"x_max":905,"o":"m 354 144 l 354 144 l 355 178 l 355 202 l 220 202 q 227 234 214 208 q 248 259 239 259 l 248 259 l 355 259 l 355 311 l 220 311 q 227 342 214 317 q 248 368 239 368 l 248 368 l 353 368 q 214 636 338 414 l 214 636 l 177 703 q 138 772 155 745 l 138 772 q 43 822 112 816 l 43 822 q 38 848 38 829 q 43 872 39 866 l 43 872 q 235 863 136 863 q 428 872 335 863 l 428 872 q 432 848 432 866 q 428 822 433 829 l 428 822 q 392 819 403 822 q 374 814 381 816 q 362 810 367 812 q 354 804 358 807 q 347 795 349 800 q 345 785 345 791 q 355 764 345 780 l 355 764 l 517 464 q 688 758 526 456 l 688 758 q 695 789 695 772 l 695 789 q 595 822 695 814 l 595 822 q 590 848 590 829 q 595 872 591 866 l 595 872 q 748 863 707 863 l 748 863 l 900 872 q 904 848 904 866 q 900 822 905 829 l 900 822 q 828 810 841 817 l 828 810 q 800 788 806 798 l 800 788 q 673 586 769 743 q 562 396 576 429 l 562 396 q 549 368 553 379 l 549 368 l 676 368 q 674 324 692 354 l 674 324 q 663 311 667 314 l 663 311 l 545 311 l 545 259 l 676 259 q 674 216 692 245 l 674 216 q 663 202 667 205 l 663 202 l 545 202 l 545 197 q 555 69 543 99 l 555 69 q 642 45 562 51 l 642 45 q 647 19 647 37 q 642 -5 646 1 l 642 -5 q 450 4 549 4 q 257 -5 350 4 l 257 -5 q 253 19 253 1 q 257 45 252 37 l 257 45 q 344 69 337 51 l 344 69 q 354 144 354 93 z "},"¦":{"ha":285,"x_min":107,"x_max":180,"o":"m 115 1038 l 115 1038 q 159 1044 138 1044 q 180 1038 180 1044 l 180 1038 l 180 543 q 151 529 179 536 q 117 522 122 522 q 110 523 111 522 q 107 525 108 524 q 107 529 107 526 q 108 533 108 532 l 108 533 l 108 1027 q 115 1038 106 1035 z m 115 349 l 115 349 q 159 355 138 355 q 180 349 180 355 l 180 349 l 180 -146 q 151 -160 179 -153 q 117 -167 122 -167 q 110 -166 111 -167 q 107 -164 108 -165 q 107 -160 107 -163 q 108 -156 108 -157 l 108 -156 l 108 338 q 115 349 106 346 z "},"§":{"ha":633,"x_min":49,"x_max":585,"o":"m 198 -125 l 198 -125 q 386 -54 308 -125 l 386 -54 q 395 -45 391 -50 l 395 -45 q 395 -46 395 -46 l 395 -46 q 491 51 441 -14 l 491 51 q 585 250 585 173 l 585 250 q 547 384 585 328 l 547 384 q 481 465 513 435 q 422 521 450 495 l 422 521 q 248 745 248 680 l 248 745 q 281 799 248 780 q 349 818 314 818 q 410 795 385 818 q 460 773 435 773 l 460 773 q 513 827 513 773 l 513 827 q 503 868 513 849 l 503 868 q 435 886 462 886 l 435 886 q 248 815 326 886 l 248 815 q 239 806 243 810 l 239 806 q 239 807 239 807 l 239 807 q 142 710 192 775 l 142 710 q 49 511 49 588 l 49 511 q 87 377 49 433 l 87 377 q 152 296 121 326 q 212 240 183 266 l 212 240 q 385 16 385 81 l 385 16 q 352 -38 385 -19 q 284 -57 319 -57 q 233 -42 248 -57 l 233 -42 q 175 -12 203 -12 l 175 -12 q 121 -71 121 -12 l 121 -71 q 130 -106 121 -90 l 130 -106 q 198 -125 168 -125 z m 463 87 l 463 87 q 464 102 464 95 l 464 102 q 371 262 464 174 l 371 262 q 332 297 358 274 q 289 336 307 319 q 254 369 271 353 q 214 414 237 386 q 178 465 191 441 l 178 465 q 145 574 145 523 q 156 650 145 626 l 156 650 q 170 673 161 661 l 170 673 q 170 659 170 666 l 170 659 q 262 499 170 587 l 262 499 q 301 464 275 487 q 345 425 327 441 q 380 392 363 408 q 420 347 397 375 q 456 296 443 319 l 456 296 q 488 187 488 238 q 476 110 488 136 l 476 110 q 463 87 471 100 z "},"¨":{"ha":552,"x_min":52,"x_max":496,"o":"m 335 763 q 401 791 363 791 q 468 763 440 791 q 496 697 496 736 q 468 630 496 659 q 401 602 440 602 q 335 630 363 602 q 308 697 308 659 q 335 763 308 736 z m 80 763 q 146 791 108 791 q 213 763 185 791 q 240 697 240 736 q 213 630 240 659 q 146 602 185 602 q 80 630 108 602 q 52 697 52 659 q 80 763 52 736 z "},"©":{"ha":886,"x_min":72,"x_max":814,"o":"m 598 342 l 598 342 q 589 296 598 334 q 574 256 581 258 q 548 246 567 254 q 516 234 529 239 l 516 234 q 446 221 481 221 l 446 221 q 304 273 359 221 q 250 414 250 326 q 310 559 250 502 q 452 617 370 617 l 452 617 q 522 607 481 617 q 570 595 563 597 l 570 595 q 580 553 571 591 q 589 512 589 514 q 581 506 589 509 q 568 503 574 503 q 560 505 562 503 l 560 505 q 456 582 541 582 l 456 582 q 393 557 418 582 l 393 557 q 347 432 347 513 q 377 303 347 351 q 457 255 407 255 q 532 278 508 255 q 572 347 557 300 l 572 347 q 598 342 593 347 z m 223 639 q 133 420 133 549 q 223 202 133 292 q 442 111 314 111 q 661 202 570 111 q 751 420 751 292 q 661 639 751 549 q 442 730 570 730 q 223 639 314 730 z m 180 160 q 72 422 72 269 q 180 684 72 575 q 442 792 289 792 l 442 792 q 629 743 543 792 q 764 608 714 693 q 814 422 814 522 q 764 236 814 321 q 629 101 714 151 q 442 52 543 52 l 442 52 q 180 160 289 52 z "},"ª":{"ha":525,"x_min":58,"x_max":486,"o":"m 192 462 q 211 416 192 430 q 248 401 230 401 q 279 409 266 401 q 292 422 292 417 l 292 422 l 292 541 q 225 514 239 522 l 225 514 q 192 462 191 494 z m 420 613 l 420 444 q 445 410 420 410 l 445 410 q 466 416 456 410 q 477 421 475 422 q 482 414 479 421 q 486 401 486 407 q 480 387 486 395 l 480 387 q 432 355 463 372 q 376 338 401 338 q 328 350 351 338 q 298 380 306 363 l 298 380 q 248 353 285 370 q 189 336 211 336 l 189 336 q 96 371 134 336 q 58 439 58 406 q 74 494 58 473 q 110 524 90 516 l 110 524 q 292 590 247 574 l 292 590 l 292 628 q 276 689 292 663 q 234 715 260 715 q 198 697 209 715 q 177 641 186 679 q 122 602 168 602 l 122 602 q 86 614 101 602 q 71 646 71 627 q 84 685 71 665 l 84 685 q 159 729 101 702 q 275 755 216 755 q 377 715 334 755 q 420 613 420 674 l 420 613 z "},"«":{"ha":681,"x_min":35,"x_max":620,"o":"m 298 316 q 289 336 289 326 q 298 357 289 347 l 298 357 q 583 574 465 455 l 583 574 q 604 565 591 572 q 620 548 616 557 l 620 548 q 534 444 608 530 q 438 336 460 358 l 438 336 q 548 213 479 296 q 620 125 616 130 l 620 125 q 604 108 616 116 q 583 99 591 100 l 583 99 q 298 316 465 218 l 298 316 z m 45 316 q 35 336 35 326 q 45 357 35 347 l 45 357 q 330 574 211 455 l 330 574 q 350 565 338 572 q 366 548 363 557 l 366 548 q 281 444 355 530 q 184 336 207 358 l 184 336 q 294 213 226 296 q 366 125 363 130 l 366 125 q 350 108 363 116 q 330 99 338 100 l 330 99 q 45 316 211 218 l 45 316 z "},"¬":{"ha":799,"x_min":62,"x_max":705,"o":"m 670 221 q 626 217 639 217 q 608 227 613 217 l 608 227 l 608 491 l 71 491 q 62 505 62 491 l 62 505 q 83 570 69 570 l 83 570 l 705 570 l 705 229 q 670 221 702 226 z "},"­":{"ha":507,"x_min":77,"x_max":431,"o":"m 84 262 l 84 262 q 77 284 77 262 q 81 327 77 307 l 81 327 q 94 362 86 362 l 94 362 l 95 362 l 422 378 l 423 378 q 431 357 431 378 l 431 357 q 414 277 431 307 l 414 277 l 87 262 q 84 262 85 262 z "},"®":{"ha":886,"x_min":72,"x_max":814,"o":"m 357 678 l 357 678 l 441 680 q 530 653 494 680 q 566 588 566 626 q 537 524 566 549 q 483 491 508 498 l 483 491 q 555 404 518 444 l 555 404 l 567 391 q 644 340 610 340 l 644 340 q 644 317 646 336 l 644 317 q 583 315 612 315 l 583 315 q 494 363 532 315 l 494 363 l 412 473 q 403 481 407 481 l 403 481 l 395 481 l 395 400 q 397 353 395 361 l 397 353 q 434 339 404 339 l 434 339 q 436 328 436 336 q 434 317 436 319 l 434 317 q 355 321 401 321 q 275 317 308 321 l 275 317 q 273 328 273 319 q 275 339 273 336 l 275 339 q 311 350 306 339 l 311 350 q 315 400 315 361 l 315 400 l 315 598 q 311 647 315 637 q 275 656 307 656 l 275 656 q 273 668 273 659 q 275 680 273 677 l 275 680 q 357 678 300 678 z m 416 507 q 463 526 444 507 q 481 577 481 545 q 466 631 481 609 q 426 654 451 654 q 397 648 400 654 q 395 614 395 642 l 395 614 l 395 507 l 416 507 z m 223 708 q 133 490 133 618 q 223 271 133 361 q 442 180 314 180 q 661 271 570 180 q 751 490 751 361 q 661 708 751 618 q 442 799 570 799 q 223 708 314 799 z m 180 229 q 72 491 72 338 q 180 753 72 644 q 442 861 289 861 l 442 861 q 629 812 543 861 q 764 677 714 762 q 814 491 814 591 q 764 305 814 391 q 629 170 714 220 q 442 121 543 121 l 442 121 q 180 229 289 121 z "},"¯":{"ha":636,"x_min":762,"x_max":1077,"o":"m 768 742 l 768 742 q 762 754 762 742 l 762 754 q 779 810 762 810 l 779 810 l 1070 810 q 1077 795 1077 810 q 1072 764 1077 781 l 1072 764 q 1059 742 1067 745 l 1059 742 q 768 742 914 742 z "},"°":{"ha":393,"x_min":46,"x_max":347,"o":"m 135 791 q 110 728 110 765 q 135 665 110 692 q 197 639 160 639 q 259 665 233 639 q 285 728 285 692 q 259 791 285 765 q 197 817 233 817 q 135 791 160 817 z m 197 576 q 91 621 135 576 q 46 728 46 666 q 90 834 46 790 q 197 878 134 878 q 303 834 259 878 q 347 728 347 790 q 303 621 347 666 q 197 576 258 576 z "},"±":{"ha":789,"x_min":68,"x_max":720,"o":"m 700 12 l 76 12 q 68 40 68 12 q 83 91 68 68 l 83 91 l 708 91 q 720 64 720 91 q 700 12 720 38 l 700 12 z m 353 415 l 76 415 q 68 443 68 415 q 83 494 68 471 l 83 494 l 353 494 l 353 764 q 401 779 372 779 q 431 766 431 779 l 431 766 l 431 494 l 708 494 q 720 467 720 494 q 700 415 720 441 l 700 415 l 431 415 l 431 146 q 368 132 409 132 l 368 132 q 353 142 353 132 l 353 142 l 353 415 z "},"²":{"ha":477,"x_min":52,"x_max":420,"o":"m 420 518 l 420 518 q 394 425 414 492 q 369 345 374 359 l 369 345 l 61 345 q 52 363 56 349 l 52 363 q 262 636 233 564 l 262 636 q 277 712 277 673 q 251 775 277 751 q 198 799 226 799 q 151 789 170 799 l 151 789 q 103 745 126 777 l 103 745 l 94 732 q 78 738 83 732 q 72 751 72 744 l 72 751 q 119 813 87 783 l 119 813 q 252 871 182 871 q 363 834 321 871 q 406 739 406 798 q 376 636 406 680 l 376 636 q 167 441 316 549 l 167 441 l 319 441 q 372 482 351 441 l 372 482 q 386 513 382 503 q 401 522 389 522 q 420 518 414 522 z "},"³":{"ha":458,"x_min":49,"x_max":412,"o":"m 77 787 q 150 845 102 820 q 242 871 197 871 q 331 842 288 871 q 373 757 373 812 l 373 757 q 302 655 373 682 l 302 655 q 274 647 288 650 l 274 647 q 372 602 324 644 l 372 602 q 412 518 412 568 q 390 433 412 468 q 332 376 368 397 l 332 376 q 174 332 260 332 l 174 332 q 61 361 94 332 l 61 361 q 49 397 49 379 q 61 430 49 414 q 96 445 73 445 q 146 403 119 445 l 146 403 q 207 369 167 369 q 269 397 247 369 q 290 477 290 425 q 262 565 290 528 q 198 601 233 601 q 149 597 163 601 l 149 597 q 141 618 141 609 q 144 633 141 628 l 144 633 q 252 688 224 645 l 252 688 q 264 735 264 706 q 242 786 264 764 q 191 808 220 808 q 142 798 163 808 l 142 798 q 96 764 111 782 l 96 764 q 82 771 90 765 q 77 787 75 778 l 77 787 z "},"´":{"ha":320,"x_min":38,"x_max":273,"o":"m 164 920 l 164 920 q 209 932 176 932 q 257 918 241 932 q 273 892 273 905 l 273 892 q 222 823 273 869 q 120 743 172 777 q 62 708 69 708 q 46 717 54 708 q 38 731 38 726 q 58 769 38 736 l 58 769 q 164 920 120 869 z "},"µ":{"ha":693,"x_min":199,"x_max":830,"o":"m 233 293 l 233 293 l 212 515 q 216 575 212 559 l 216 575 q 250 605 227 605 l 250 605 q 310 584 263 605 q 357 551 357 562 l 357 551 q 335 401 357 498 q 312 298 313 305 l 312 298 q 374 169 326 203 l 374 169 q 418 155 393 155 l 418 155 q 525 198 477 155 q 572 294 572 241 l 572 294 q 563 420 563 370 q 560 572 563 469 l 560 572 q 597 605 581 605 q 663 584 614 605 q 712 551 712 562 l 712 551 q 696 455 712 516 q 675 378 680 395 q 661 323 671 361 q 644 264 650 286 l 644 264 q 693 145 642 165 l 693 145 q 718 141 703 141 q 749 148 733 141 q 777 170 764 155 l 777 170 q 808 213 794 189 l 808 213 q 822 199 814 213 l 822 199 q 830 148 838 171 l 830 148 q 720 -5 779 -5 l 720 -5 q 664 20 689 -5 l 664 20 q 604 165 616 68 l 604 165 q 541 39 582 88 q 449 -11 500 -11 q 353 54 398 -11 q 300 186 309 119 l 300 186 q 303 122 300 181 q 309 2 306 64 l 309 2 q 339 -275 318 -163 l 339 -275 q 316 -297 333 -286 q 281 -308 298 -308 q 232 -279 264 -308 q 199 -237 199 -251 l 199 -237 q 211 -1 199 -204 q 233 293 222 202 z "},"¶":{"ha":718,"x_min":45,"x_max":659,"o":"m 404 452 l 404 452 q 481 458 473 452 l 481 458 l 481 811 q 444 818 475 818 q 404 810 412 818 l 404 810 q 404 452 404 810 z m 480 152 l 480 396 q 458 394 475 395 q 428 392 442 393 l 428 392 l 404 391 l 404 160 q 411 71 404 90 l 411 71 q 441 64 413 64 q 472 69 469 64 l 472 69 q 480 152 480 87 l 480 152 z m 308 884 l 308 884 l 454 879 q 597 884 536 879 l 597 884 l 617 886 q 622 860 622 880 q 616 836 621 839 l 616 836 q 578 828 599 836 q 553 808 558 820 l 553 808 q 549 722 549 794 l 549 722 l 549 467 q 601 479 555 465 l 601 479 l 616 484 q 621 472 621 484 q 608 441 620 460 q 590 419 597 422 l 590 419 q 548 406 565 408 l 548 406 l 548 159 q 554 83 548 100 q 598 56 561 65 q 654 46 635 46 l 654 46 q 659 20 659 37 q 656 -5 659 3 l 656 -5 q 447 4 486 4 q 370 2 408 4 q 290 -2 332 1 q 233 -5 248 -5 l 233 -5 q 229 25 227 5 q 233 45 232 45 l 233 45 q 287 55 253 45 q 329 81 321 64 q 336 157 336 98 l 336 157 l 336 389 q 124 453 203 389 q 45 636 45 517 l 45 636 q 168 851 45 787 l 168 851 q 308 884 231 884 z "},"·":{"ha":327,"x_min":64,"x_max":263,"o":"m 166 256 q 94 287 125 256 q 64 359 64 318 q 93 429 64 400 q 164 458 123 458 q 234 429 205 458 q 263 359 263 400 q 235 287 263 318 q 166 256 207 256 z "},"¸":{"ha":616,"x_min":212,"x_max":414,"o":"m 340 -133 l 340 -133 q 305 -88 340 -88 l 305 -88 q 270 -98 294 -88 l 270 -98 q 259 -90 267 -98 q 252 -77 252 -83 l 252 -77 q 290 -3 277 -37 l 290 -3 l 334 -3 q 316 -34 323 -22 l 316 -34 q 355 -31 338 -31 q 393 -51 373 -31 q 414 -98 414 -71 l 414 -98 q 378 -179 414 -147 q 282 -212 342 -212 l 282 -212 q 217 -190 239 -212 l 217 -190 q 212 -168 212 -182 q 216 -153 212 -153 l 216 -153 q 284 -174 256 -174 q 327 -162 313 -174 q 340 -133 340 -150 z "},"¹":{"ha":395,"x_min":53,"x_max":352,"o":"m 155 471 l 155 693 q 129 757 155 757 l 129 757 q 68 735 115 757 l 68 735 q 58 745 63 736 q 53 762 53 754 q 54 772 53 770 l 54 772 q 194 835 122 800 q 266 869 265 869 l 266 869 l 267 869 q 279 858 271 869 q 289 842 288 846 l 289 842 q 273 727 273 783 l 273 727 l 273 469 q 286 395 273 408 l 286 395 q 316 382 293 387 q 350 377 340 377 l 350 377 q 352 360 352 377 q 350 342 351 343 l 350 342 q 213 347 220 347 q 76 342 206 347 l 76 342 q 73 361 73 345 q 76 377 73 377 l 76 377 q 111 383 87 377 q 140 395 135 389 q 150 429 146 401 q 155 471 155 457 l 155 471 z "},"º":{"ha":551,"x_min":47,"x_max":503,"o":"m 355 611 q 321 680 345 650 q 271 709 297 709 q 232 703 245 709 q 211 685 219 697 q 197 660 203 673 q 190 628 192 646 l 190 628 q 186 558 186 598 q 195 479 186 517 q 229 411 205 440 q 282 382 252 382 q 329 396 312 382 q 353 433 345 409 l 353 433 q 365 522 365 471 q 355 611 365 572 z m 47 543 q 113 689 47 629 q 276 750 179 750 q 438 693 374 750 q 503 549 503 635 q 437 402 503 463 q 273 340 371 340 q 112 398 176 340 q 47 543 47 456 z "},"»":{"ha":681,"x_min":61,"x_max":646,"o":"m 382 357 q 392 336 392 347 q 382 316 392 326 l 382 316 q 98 99 216 218 l 98 99 q 77 108 90 100 q 61 125 64 116 l 61 125 q 146 229 73 143 q 243 336 220 315 l 243 336 q 133 459 201 376 q 61 548 64 543 l 61 548 q 77 565 64 557 q 98 574 90 572 l 98 574 q 382 357 216 455 l 382 357 z m 636 357 q 646 336 646 347 q 636 316 646 326 l 636 316 q 351 99 470 218 l 351 99 q 331 108 343 100 q 315 125 318 116 l 315 125 q 400 229 326 143 q 496 336 474 315 l 496 336 q 387 459 455 376 q 315 548 318 543 l 315 548 q 331 565 318 557 q 351 574 343 572 l 351 574 q 636 357 470 455 l 636 357 z "},"¼":{"ha":1000,"x_min":45,"x_max":948,"o":"m 856 513 l 856 513 q 872 524 865 524 q 890 515 879 524 q 901 498 901 507 l 901 498 l 901 187 l 935 187 q 948 125 961 163 l 948 125 l 901 125 l 901 3 q 828 -4 873 -4 q 783 7 783 -4 l 783 7 l 783 125 l 575 125 q 559 148 559 130 l 559 148 q 856 513 583 176 z m 644 187 l 644 187 l 783 187 l 783 355 l 644 187 l 644 187 q 644 187 644 187 z m 145 471 l 145 693 q 119 757 145 757 l 119 757 q 58 735 106 757 l 58 735 q 48 753 54 736 q 45 772 43 770 l 45 772 q 184 834 111 800 q 258 869 257 869 l 258 869 q 279 842 278 846 l 279 842 q 263 727 263 783 l 263 727 l 263 469 q 277 395 263 408 l 277 395 q 307 382 283 387 q 340 377 330 377 l 340 377 q 342 360 342 377 q 340 342 342 343 l 340 342 q 203 347 210 347 q 66 342 197 347 l 66 342 q 64 361 64 345 q 66 377 64 377 l 66 377 q 101 383 77 377 q 131 395 125 389 q 141 429 136 401 q 145 471 145 457 l 145 471 z m 347 -15 q 329 -32 344 -22 q 301 -45 313 -42 l 301 -45 q 275 -38 279 -50 l 275 -38 l 274 -34 l 742 899 q 791 928 755 920 l 791 928 q 815 918 812 932 l 815 918 l 347 -15 z "},"½":{"ha":1015,"x_min":47,"x_max":969,"o":"m 800 524 q 912 487 870 524 q 954 392 954 451 q 924 289 954 333 l 924 289 q 715 94 865 202 l 715 94 l 867 94 q 921 135 900 94 l 921 135 q 934 165 931 156 q 950 175 937 175 q 969 171 963 175 l 969 171 q 943 78 963 144 q 918 -3 923 12 l 918 -3 l 610 -3 q 600 16 605 2 l 600 16 q 811 289 782 217 l 811 289 q 825 365 825 326 q 800 428 825 404 q 746 452 774 452 q 699 442 718 452 l 699 442 q 652 398 675 429 l 652 398 l 642 385 q 626 391 632 385 q 621 404 621 397 l 621 404 q 668 466 635 435 l 668 466 q 800 524 730 524 z m 147 471 l 147 693 q 121 757 147 757 l 121 757 q 60 735 108 757 l 60 735 q 50 750 56 736 q 47 772 45 764 l 47 772 q 186 834 113 800 q 260 869 259 869 l 260 869 q 281 842 279 850 l 281 842 q 265 727 265 783 l 265 727 l 265 469 q 279 395 265 408 l 279 395 q 309 382 286 387 q 342 377 332 377 l 342 377 q 344 360 345 377 q 342 342 344 343 l 342 342 q 205 347 212 347 q 68 342 199 347 l 68 342 q 65 361 65 345 q 68 377 65 377 l 68 377 q 103 383 79 377 q 133 395 127 389 q 143 429 138 401 q 147 471 147 457 l 147 471 z m 787 918 l 787 918 l 319 -15 q 301 -32 316 -22 q 273 -45 286 -42 l 273 -45 q 248 -38 252 -50 l 248 -38 l 246 -34 l 714 899 q 763 928 728 920 l 763 928 q 787 918 784 932 z "},"¾":{"ha":1004,"x_min":46,"x_max":952,"o":"m 860 513 l 860 513 q 876 524 869 524 q 894 515 883 524 q 905 498 905 507 l 905 498 l 905 187 l 939 187 q 952 125 965 163 l 952 125 l 905 125 l 905 3 q 832 -4 878 -4 q 787 7 787 -4 l 787 7 l 787 125 l 579 125 q 563 148 563 130 l 563 148 q 860 513 587 176 z m 648 187 l 648 187 l 787 187 l 787 355 l 648 187 l 648 187 q 648 187 648 187 z m 75 787 q 147 845 100 820 q 240 871 194 871 q 328 842 286 871 q 370 757 370 812 l 370 757 q 300 655 370 682 l 300 655 q 271 647 286 650 l 271 647 q 369 602 321 644 l 369 602 q 410 518 410 568 q 388 433 410 468 q 330 376 366 397 l 330 376 q 171 332 257 332 l 171 332 q 58 361 92 332 l 58 361 q 46 397 46 379 q 58 430 46 414 q 93 445 70 445 q 144 403 117 445 l 144 403 q 204 369 164 369 q 266 397 244 369 q 288 477 288 425 q 259 565 288 528 q 195 601 231 601 q 146 597 160 601 l 146 597 q 138 618 138 609 q 141 633 138 628 l 141 633 q 250 688 221 645 l 250 688 q 262 735 262 706 q 239 786 262 764 q 189 808 217 808 q 140 798 160 808 l 140 798 q 94 764 108 782 l 94 764 q 80 771 87 765 q 75 787 73 778 l 75 787 z m 833 918 l 833 918 l 365 -15 q 346 -32 361 -22 q 319 -45 331 -42 l 319 -45 q 293 -38 297 -50 l 293 -38 l 292 -34 l 760 899 q 808 928 773 920 l 808 928 q 833 918 829 932 z "},"¿":{"ha":526,"x_min":43,"x_max":465,"o":"m 344 602 q 416 572 384 602 q 448 499 448 542 q 418 427 448 456 q 348 399 389 399 q 278 428 307 399 q 248 498 248 456 q 276 571 248 540 q 344 602 304 602 z m 384 305 l 384 305 q 411 170 411 245 l 411 170 q 374 75 411 113 l 374 75 q 302 15 346 45 l 302 15 q 159 -134 159 -80 l 159 -134 q 178 -179 159 -159 q 223 -199 198 -199 q 268 -186 248 -199 q 304 -157 288 -173 l 304 -157 q 382 -115 347 -115 q 442 -142 418 -115 q 465 -195 465 -170 l 465 -195 q 445 -267 465 -250 l 445 -267 q 323 -290 404 -290 l 323 -290 q 213 -267 269 -290 q 124 -217 158 -243 q 67 -149 90 -192 q 43 -67 43 -105 q 48 -10 43 -30 q 59 25 53 10 q 79 56 66 40 q 101 81 92 72 q 129 104 111 91 q 157 123 148 118 q 187 142 165 129 q 215 159 208 155 q 243 176 222 163 q 275 196 264 189 l 275 196 q 332 262 330 231 l 332 262 q 333 275 332 269 q 333 288 333 280 q 333 299 332 295 q 341 313 334 304 q 358 321 348 321 q 384 305 368 321 z "},"À":{"ha":916,"x_min":-18,"x_max":924,"o":"m 357 1173 q 460 1081 401 1139 q 519 1015 519 1022 q 513 998 519 1008 q 498 987 507 987 q 430 1011 489 987 q 314 1070 372 1035 q 256 1128 256 1105 q 282 1165 256 1152 q 327 1179 308 1179 q 357 1173 346 1179 l 357 1173 z m 127 182 l 127 182 l 416 846 q 440 880 423 861 q 466 898 456 898 l 466 898 q 495 888 490 898 l 495 888 l 773 201 q 794 148 783 178 q 812 100 806 117 q 836 71 819 84 q 870 53 852 58 l 870 53 q 918 45 901 45 l 918 45 q 924 17 923 36 q 921 -5 925 -1 l 921 -5 q 842 0 909 -5 q 743 5 774 5 q 673 3 711 5 q 591 -2 635 1 q 534 -5 547 -5 l 534 -5 q 529 22 529 0 q 534 45 529 45 l 534 45 q 614 69 586 45 l 614 69 q 627 88 627 79 l 627 88 q 566 250 627 103 l 566 250 l 545 298 q 525 304 540 304 q 411 305 510 305 q 264 304 312 305 l 264 304 q 255 297 258 304 l 255 297 q 176 91 176 121 l 176 91 q 259 47 176 60 l 259 47 q 281 45 275 45 l 281 45 q 286 18 286 37 q 282 -5 286 -1 l 282 -5 q 135 5 187 5 q -12 -5 83 5 l -12 -5 q -18 15 -16 -1 q -15 43 -19 32 l -15 43 q 35 58 0 43 q 80 87 71 72 l 80 87 q 127 182 103 125 z m 513 380 l 400 646 l 285 380 q 288 374 285 374 l 288 374 q 397 370 328 370 q 488 372 467 370 q 511 375 510 373 q 513 380 512 376 l 513 380 z "},"Á":{"ha":916,"x_min":-18,"x_max":924,"o":"m 413 987 q 398 998 404 987 q 392 1015 392 1008 q 451 1081 392 1022 q 555 1173 511 1139 l 555 1173 q 585 1179 566 1179 q 629 1165 604 1179 q 655 1128 655 1152 q 597 1070 655 1105 q 481 1011 540 1035 q 413 987 422 987 z m 127 182 l 127 182 l 416 846 q 440 880 423 861 q 466 898 456 898 l 466 898 q 495 888 490 898 l 495 888 l 773 201 q 794 148 783 178 q 812 100 806 117 q 836 71 819 84 q 870 53 852 58 l 870 53 q 918 45 901 45 l 918 45 q 924 17 923 36 q 921 -5 925 -1 l 921 -5 q 842 0 909 -5 q 743 5 774 5 q 673 3 711 5 q 591 -2 635 1 q 534 -5 547 -5 l 534 -5 q 529 22 529 0 q 534 45 529 45 l 534 45 q 614 69 586 45 l 614 69 q 627 88 627 79 l 627 88 q 566 250 627 103 l 566 250 l 545 298 q 525 304 540 304 q 411 305 510 305 q 264 304 312 305 l 264 304 q 255 297 258 304 l 255 297 q 176 91 176 121 l 176 91 q 259 47 176 60 l 259 47 q 281 45 275 45 l 281 45 q 286 18 286 37 q 282 -5 286 -1 l 282 -5 q 135 5 187 5 q -12 -5 83 5 l -12 -5 q -18 15 -16 -1 q -15 43 -19 32 l -15 43 q 35 58 0 43 q 80 87 71 72 l 80 87 q 127 182 103 125 z m 513 380 l 400 646 l 285 380 q 288 374 285 374 l 288 374 q 397 370 328 370 q 488 372 467 370 q 511 375 510 373 q 513 380 512 376 l 513 380 z "},"Â":{"ha":916,"x_min":-18,"x_max":924,"o":"m 635 990 l 635 990 q 562 1023 621 994 q 472 1072 502 1053 l 472 1072 q 384 1023 442 1052 q 309 990 326 994 l 309 990 q 296 1013 296 997 l 296 1013 q 366 1075 311 1024 q 444 1153 421 1126 q 471 1180 466 1180 q 499 1156 476 1180 l 499 1156 q 648 1013 595 1053 l 648 1013 q 635 990 648 995 z m 127 182 l 127 182 l 416 846 q 440 880 423 861 q 466 898 456 898 l 466 898 q 495 888 490 898 l 495 888 l 773 201 q 794 148 783 178 q 812 100 806 117 q 836 71 819 84 q 870 53 852 58 l 870 53 q 918 45 901 45 l 918 45 q 924 17 923 36 q 921 -5 925 -1 l 921 -5 q 842 0 909 -5 q 743 5 774 5 q 673 3 711 5 q 591 -2 635 1 q 534 -5 547 -5 l 534 -5 q 529 22 529 0 q 534 45 529 45 l 534 45 q 614 69 586 45 l 614 69 q 627 88 627 79 l 627 88 q 566 250 627 103 l 566 250 l 545 298 q 525 304 540 304 q 411 305 510 305 q 264 304 312 305 l 264 304 q 255 297 258 304 l 255 297 q 176 91 176 121 l 176 91 q 259 47 176 60 l 259 47 q 281 45 275 45 l 281 45 q 286 18 286 37 q 282 -5 286 -1 l 282 -5 q 135 5 187 5 q -12 -5 83 5 l -12 -5 q -18 15 -16 -1 q -15 43 -19 32 l -15 43 q 35 58 0 43 q 80 87 71 72 l 80 87 q 127 182 103 125 z m 513 380 l 400 646 l 285 380 q 288 374 285 374 l 288 374 q 397 370 328 370 q 488 372 467 370 q 511 375 510 373 q 513 380 512 376 l 513 380 z "},"Ã":{"ha":916,"x_min":-18,"x_max":924,"o":"m 232 1008 l 232 1008 q 221 1033 221 1008 q 247 1093 221 1059 l 247 1093 q 373 1158 299 1158 l 373 1158 q 444 1145 416 1158 q 495 1119 471 1132 l 495 1119 q 603 1076 574 1076 q 655 1086 633 1076 q 689 1108 677 1096 q 712 1132 701 1120 q 726 1145 722 1143 l 726 1145 q 736 1120 736 1145 q 711 1061 736 1095 l 711 1061 q 585 994 657 994 l 585 994 q 514 1007 542 994 q 473 1028 486 1021 q 446 1043 459 1036 q 429 1052 433 1050 q 414 1060 425 1055 q 397 1068 403 1065 q 382 1073 391 1070 l 382 1073 q 346 1078 367 1078 q 303 1068 325 1078 q 269 1046 281 1058 q 246 1021 256 1034 q 232 1008 235 1009 z m 127 182 l 127 182 l 416 846 q 440 880 423 861 q 466 898 456 898 l 466 898 q 495 888 490 898 l 495 888 l 773 201 q 794 148 783 178 q 812 100 806 117 q 836 71 819 84 q 870 53 852 58 l 870 53 q 918 45 901 45 l 918 45 q 924 17 923 36 q 921 -5 925 -1 l 921 -5 q 842 0 909 -5 q 743 5 774 5 q 673 3 711 5 q 591 -2 635 1 q 534 -5 547 -5 l 534 -5 q 529 22 529 0 q 534 45 529 45 l 534 45 q 614 69 586 45 l 614 69 q 627 88 627 79 l 627 88 q 566 250 627 103 l 566 250 l 545 298 q 525 304 540 304 q 411 305 510 305 q 264 304 312 305 l 264 304 q 255 297 258 304 l 255 297 q 176 91 176 121 l 176 91 q 259 47 176 60 l 259 47 q 281 45 275 45 l 281 45 q 286 18 286 37 q 282 -5 286 -1 l 282 -5 q 135 5 187 5 q -12 -5 83 5 l -12 -5 q -18 15 -16 -1 q -15 43 -19 32 l -15 43 q 35 58 0 43 q 80 87 71 72 l 80 87 q 127 182 103 125 z m 513 380 l 400 646 l 285 380 q 288 374 285 374 l 288 374 q 397 370 328 370 q 488 372 467 370 q 511 375 510 373 q 513 380 512 376 l 513 380 z "},"Ä":{"ha":916,"x_min":-18,"x_max":924,"o":"m 537 1016 q 510 1081 510 1042 q 537 1146 510 1120 q 602 1172 564 1172 q 668 1146 641 1172 q 694 1081 694 1120 q 668 1016 694 1042 q 602 989 641 989 q 537 1016 564 989 z m 258 1016 q 232 1081 232 1042 q 258 1146 232 1120 q 323 1172 284 1172 q 388 1146 361 1172 q 415 1081 415 1120 q 388 1016 415 1042 q 323 989 361 989 q 258 1016 284 989 z m 127 182 l 127 182 l 416 846 q 440 880 423 861 q 466 898 456 898 l 466 898 q 495 888 490 898 l 495 888 l 773 201 q 794 148 783 178 q 812 100 806 117 q 836 71 819 84 q 870 53 852 58 l 870 53 q 918 45 901 45 l 918 45 q 924 17 923 36 q 921 -5 925 -1 l 921 -5 q 842 0 909 -5 q 743 5 774 5 q 673 3 711 5 q 591 -2 635 1 q 534 -5 547 -5 l 534 -5 q 529 22 529 0 q 534 45 529 45 l 534 45 q 614 69 586 45 l 614 69 q 627 88 627 79 l 627 88 q 566 250 627 103 l 566 250 l 545 298 q 525 304 540 304 q 411 305 510 305 q 264 304 312 305 l 264 304 q 255 297 258 304 l 255 297 q 176 91 176 121 l 176 91 q 259 47 176 60 l 259 47 q 281 45 275 45 l 281 45 q 286 18 286 37 q 282 -5 286 -1 l 282 -5 q 135 5 187 5 q -12 -5 83 5 l -12 -5 q -18 15 -16 -1 q -15 43 -19 32 l -15 43 q 35 58 0 43 q 80 87 71 72 l 80 87 q 127 182 103 125 z m 513 380 l 400 646 l 285 380 q 288 374 285 374 l 288 374 q 397 370 328 370 q 488 372 467 370 q 511 375 510 373 q 513 380 512 376 l 513 380 z "},"Å":{"ha":916,"x_min":-18,"x_max":924,"o":"m 422 1081 q 401 1029 401 1060 q 422 978 401 999 q 473 956 443 956 q 525 978 504 956 q 545 1029 545 999 q 525 1081 545 1060 q 473 1103 504 1103 q 422 1081 443 1103 z m 379 935 q 339 1029 339 975 q 379 1123 339 1084 q 473 1162 418 1162 q 567 1123 528 1162 q 606 1029 606 1084 q 567 935 606 975 q 473 895 528 895 q 379 935 418 895 z m 127 182 l 127 182 l 416 846 q 440 880 423 861 q 466 898 456 898 l 466 898 q 495 888 490 898 l 495 888 l 773 201 q 794 148 783 178 q 812 100 806 117 q 836 71 819 84 q 870 53 852 58 l 870 53 q 918 45 901 45 l 918 45 q 924 17 923 36 q 921 -5 925 -1 l 921 -5 q 842 0 909 -5 q 743 5 774 5 q 673 3 711 5 q 591 -2 635 1 q 534 -5 547 -5 l 534 -5 q 529 22 529 0 q 534 45 529 45 l 534 45 q 614 69 586 45 l 614 69 q 627 88 627 79 l 627 88 q 566 250 627 103 l 566 250 l 545 298 q 525 304 540 304 q 411 305 510 305 q 264 304 312 305 l 264 304 q 255 297 258 304 l 255 297 q 176 91 176 121 l 176 91 q 259 47 176 60 l 259 47 q 281 45 275 45 l 281 45 q 286 18 286 37 q 282 -5 286 -1 l 282 -5 q 135 5 187 5 q -12 -5 83 5 l -12 -5 q -18 15 -16 -1 q -15 43 -19 32 l -15 43 q 35 58 0 43 q 80 87 71 72 l 80 87 q 127 182 103 125 z m 513 380 l 400 646 l 285 380 q 288 374 285 374 l 288 374 q 397 370 328 370 q 488 372 467 370 q 511 375 510 373 q 513 380 512 376 l 513 380 z "},"Æ":{"ha":1222,"x_min":-31,"x_max":1192,"o":"m 555 373 l 555 373 l 555 705 l 350 380 q 351 374 349 374 l 351 374 q 455 370 392 370 q 555 373 518 370 z m 457 895 l 457 895 q 629 891 518 891 q 1092 901 741 891 l 1092 901 q 1113 787 1098 857 q 1131 700 1128 718 l 1131 700 q 1103 693 1124 693 q 1078 704 1082 693 l 1078 704 q 985 831 1039 808 l 985 831 q 932 841 962 841 l 932 841 l 819 841 q 752 825 759 841 q 745 742 745 808 l 745 742 l 745 499 q 762 489 745 493 q 803 484 780 484 l 803 484 l 875 484 q 956 502 935 484 q 994 579 978 519 l 994 579 q 1013 590 996 590 q 1036 583 1029 590 l 1036 583 l 1036 323 q 1013 317 1031 317 q 993 328 995 317 l 993 328 q 949 409 975 397 q 833 420 922 420 q 745 401 745 420 l 745 401 l 745 191 q 755 84 745 111 l 755 84 q 787 64 761 71 q 844 57 814 57 l 844 57 l 933 57 q 1057 99 1015 57 q 1133 231 1099 141 l 1133 231 q 1149 239 1135 239 l 1149 239 q 1192 231 1184 239 l 1192 231 q 1176 186 1190 222 q 1157 132 1163 149 q 1142 86 1152 115 l 1142 86 q 1119 -3 1124 33 l 1119 -3 q 457 -4 495 -3 l 457 -4 q 453 20 453 2 q 457 46 452 39 l 457 46 q 544 69 537 52 l 544 69 q 555 197 555 96 l 555 197 l 555 305 l 448 305 q 315 304 362 305 l 315 304 q 304 297 307 304 l 304 297 q 218 161 251 217 q 183 92 186 106 q 192 68 181 77 q 220 54 203 58 l 220 54 q 270 45 256 45 l 270 45 q 275 18 275 38 q 271 -5 275 -1 l 271 -5 q 125 5 179 5 q -27 -5 71 5 l -27 -5 q -31 15 -31 -1 q -26 43 -31 31 l -26 43 q 29 58 -10 43 q 80 87 68 72 l 80 87 q 146 182 114 128 l 146 182 l 545 819 q 511 840 545 831 l 511 840 q 487 843 500 842 q 467 844 475 844 q 457 845 458 845 l 457 845 q 453 871 452 852 q 457 895 453 889 z "},"Ç":{"ha":914,"x_min":56,"x_max":875,"o":"m 538 -35 l 538 -35 q 571 -33 563 -33 l 571 -33 q 623 -54 601 -33 q 644 -103 644 -75 l 644 -103 q 606 -190 644 -155 q 512 -225 568 -225 q 433 -202 456 -225 l 433 -202 q 427 -178 427 -194 q 431 -163 427 -163 l 431 -163 q 505 -184 475 -184 q 550 -172 534 -184 q 566 -141 566 -159 l 566 -141 q 528 -94 566 -94 l 528 -94 q 490 -103 515 -94 l 490 -103 q 478 -95 486 -103 q 471 -81 471 -87 l 471 -81 q 511 -1 497 -39 l 511 -1 l 557 -1 q 538 -35 545 -22 z m 807 879 l 807 879 l 853 674 q 842 661 853 668 q 817 654 830 654 q 799 659 804 654 l 799 659 q 762 740 788 704 q 708 796 735 775 l 708 796 q 537 846 642 846 l 537 846 q 415 816 468 846 q 332 732 363 785 l 332 732 q 273 477 273 627 l 273 477 q 341 185 273 310 l 341 185 q 433 87 375 123 q 564 50 490 50 l 564 50 q 732 109 669 50 l 732 109 q 781 172 758 132 l 781 172 q 827 277 818 236 l 827 277 q 875 260 857 277 l 875 260 q 853 151 875 241 q 819 54 832 60 l 819 54 q 728 22 760 33 l 728 22 q 513 -9 630 -9 q 289 48 396 -9 q 119 208 182 105 q 56 422 56 311 q 93 620 56 533 q 193 769 130 707 q 343 868 256 831 q 525 905 430 905 l 525 905 q 807 879 680 905 z "},"È":{"ha":817,"x_min":47,"x_max":787,"o":"m 344 1173 q 447 1081 388 1139 q 507 1015 507 1022 q 500 998 507 1008 q 485 987 494 987 q 417 1011 476 987 q 301 1070 359 1035 q 243 1128 243 1105 q 269 1165 243 1152 q 314 1179 295 1179 q 344 1173 333 1179 l 344 1173 z m 52 895 l 52 895 q 224 891 113 891 q 687 901 336 891 l 687 901 q 708 787 693 857 q 726 700 723 718 l 726 700 q 699 693 720 693 q 673 704 677 693 l 673 704 q 581 831 634 808 l 581 831 q 527 841 557 841 l 527 841 l 414 841 q 347 825 354 841 q 340 742 340 808 l 340 742 l 340 499 q 358 489 340 493 q 398 484 376 484 l 398 484 l 470 484 q 551 502 530 484 q 589 579 573 519 l 589 579 q 608 590 591 590 q 631 583 625 590 l 631 583 l 631 323 q 608 317 626 317 q 588 328 590 317 l 588 328 q 544 409 570 397 q 429 420 517 420 q 340 401 340 420 l 340 401 l 340 191 q 351 84 340 111 l 351 84 q 382 64 356 71 q 439 57 409 57 l 439 57 l 528 57 q 652 99 610 57 q 728 231 694 141 l 728 231 q 743 239 730 239 l 743 239 q 787 231 779 239 l 787 231 q 771 186 785 222 q 752 132 758 149 q 737 86 747 115 l 737 86 q 714 -3 720 33 l 714 -3 q 52 -4 105 -3 l 52 -4 q 48 20 48 2 q 52 46 47 39 l 52 46 q 139 69 132 52 l 139 69 q 150 197 150 96 l 150 197 l 150 696 q 139 823 150 796 l 139 823 q 52 845 133 839 l 52 845 q 48 871 47 852 q 52 895 48 889 z "},"É":{"ha":817,"x_min":47,"x_max":787,"o":"m 333 987 q 317 998 323 987 q 311 1015 311 1008 q 371 1081 311 1022 q 474 1173 430 1139 l 474 1173 q 504 1179 485 1179 q 549 1165 523 1179 q 574 1128 574 1152 q 517 1070 574 1105 q 400 1011 459 1035 q 333 987 342 987 z m 52 895 l 52 895 q 224 891 113 891 q 687 901 336 891 l 687 901 q 708 787 693 857 q 726 700 723 718 l 726 700 q 699 693 720 693 q 673 704 677 693 l 673 704 q 581 831 634 808 l 581 831 q 527 841 557 841 l 527 841 l 414 841 q 347 825 354 841 q 340 742 340 808 l 340 742 l 340 499 q 358 489 340 493 q 398 484 376 484 l 398 484 l 470 484 q 551 502 530 484 q 589 579 573 519 l 589 579 q 608 590 591 590 q 631 583 625 590 l 631 583 l 631 323 q 608 317 626 317 q 588 328 590 317 l 588 328 q 544 409 570 397 q 429 420 517 420 q 340 401 340 420 l 340 401 l 340 191 q 351 84 340 111 l 351 84 q 382 64 356 71 q 439 57 409 57 l 439 57 l 528 57 q 652 99 610 57 q 728 231 694 141 l 728 231 q 743 239 730 239 l 743 239 q 787 231 779 239 l 787 231 q 771 186 785 222 q 752 132 758 149 q 737 86 747 115 l 737 86 q 714 -3 720 33 l 714 -3 q 52 -4 105 -3 l 52 -4 q 48 20 48 2 q 52 46 47 39 l 52 46 q 139 69 132 52 l 139 69 q 150 197 150 96 l 150 197 l 150 696 q 139 823 150 796 l 139 823 q 52 845 133 839 l 52 845 q 48 871 47 852 q 52 895 48 889 z "},"Ê":{"ha":817,"x_min":47,"x_max":787,"o":"m 568 990 l 568 990 q 494 1023 554 994 q 405 1072 435 1053 l 405 1072 q 317 1023 375 1052 q 242 990 258 994 l 242 990 q 229 1013 229 997 l 229 1013 q 299 1075 243 1024 q 376 1153 354 1126 q 404 1180 399 1180 q 432 1156 409 1180 l 432 1156 q 581 1013 528 1053 l 581 1013 q 568 990 581 995 z m 52 895 l 52 895 q 224 891 113 891 q 687 901 336 891 l 687 901 q 708 787 693 857 q 726 700 723 718 l 726 700 q 699 693 720 693 q 673 704 677 693 l 673 704 q 581 831 634 808 l 581 831 q 527 841 557 841 l 527 841 l 414 841 q 347 825 354 841 q 340 742 340 808 l 340 742 l 340 499 q 358 489 340 493 q 398 484 376 484 l 398 484 l 470 484 q 551 502 530 484 q 589 579 573 519 l 589 579 q 608 590 591 590 q 631 583 625 590 l 631 583 l 631 323 q 608 317 626 317 q 588 328 590 317 l 588 328 q 544 409 570 397 q 429 420 517 420 q 340 401 340 420 l 340 401 l 340 191 q 351 84 340 111 l 351 84 q 382 64 356 71 q 439 57 409 57 l 439 57 l 528 57 q 652 99 610 57 q 728 231 694 141 l 728 231 q 743 239 730 239 l 743 239 q 787 231 779 239 l 787 231 q 771 186 785 222 q 752 132 758 149 q 737 86 747 115 l 737 86 q 714 -3 720 33 l 714 -3 q 52 -4 105 -3 l 52 -4 q 48 20 48 2 q 52 46 47 39 l 52 46 q 139 69 132 52 l 139 69 q 150 197 150 96 l 150 197 l 150 696 q 139 823 150 796 l 139 823 q 52 845 133 839 l 52 845 q 48 871 47 852 q 52 895 48 889 z "},"Ë":{"ha":817,"x_min":47,"x_max":787,"o":"m 470 1016 q 443 1081 443 1042 q 470 1146 443 1120 q 535 1172 496 1172 q 601 1146 574 1172 q 627 1081 627 1120 q 601 1016 627 1042 q 535 989 574 989 q 470 1016 496 989 z m 191 1016 q 165 1081 165 1042 q 191 1146 165 1120 q 256 1172 217 1172 q 321 1146 294 1172 q 348 1081 348 1120 q 321 1016 348 1042 q 256 989 294 989 q 191 1016 217 989 z m 52 895 l 52 895 q 224 891 113 891 q 687 901 336 891 l 687 901 q 708 787 693 857 q 726 700 723 718 l 726 700 q 699 693 720 693 q 673 704 677 693 l 673 704 q 581 831 634 808 l 581 831 q 527 841 557 841 l 527 841 l 414 841 q 347 825 354 841 q 340 742 340 808 l 340 742 l 340 499 q 358 489 340 493 q 398 484 376 484 l 398 484 l 470 484 q 551 502 530 484 q 589 579 573 519 l 589 579 q 608 590 591 590 q 631 583 625 590 l 631 583 l 631 323 q 608 317 626 317 q 588 328 590 317 l 588 328 q 544 409 570 397 q 429 420 517 420 q 340 401 340 420 l 340 401 l 340 191 q 351 84 340 111 l 351 84 q 382 64 356 71 q 439 57 409 57 l 439 57 l 528 57 q 652 99 610 57 q 728 231 694 141 l 728 231 q 743 239 730 239 l 743 239 q 787 231 779 239 l 787 231 q 771 186 785 222 q 752 132 758 149 q 737 86 747 115 l 737 86 q 714 -3 720 33 l 714 -3 q 52 -4 105 -3 l 52 -4 q 48 20 48 2 q 52 46 47 39 l 52 46 q 139 69 132 52 l 139 69 q 150 197 150 96 l 150 197 l 150 696 q 139 823 150 796 l 139 823 q 52 845 133 839 l 52 845 q 48 871 47 852 q 52 895 48 889 z "},"Ì":{"ha":488,"x_min":47,"x_max":442,"o":"m 178 1173 q 282 1081 222 1139 q 341 1015 341 1022 q 335 998 341 1008 q 320 987 329 987 q 252 1011 311 987 q 136 1070 193 1035 q 78 1128 78 1105 q 104 1165 78 1152 q 149 1179 130 1179 q 178 1173 168 1179 l 178 1173 z m 52 898 l 52 898 q 245 888 145 888 q 437 898 345 888 l 437 898 q 442 873 441 892 q 437 848 442 855 l 437 848 q 351 823 357 842 l 351 823 q 340 696 340 796 l 340 696 l 340 197 q 351 69 340 96 l 351 69 q 437 45 357 51 l 437 45 q 442 19 442 37 q 437 -5 441 1 l 437 -5 q 245 4 345 4 q 52 -5 145 4 l 52 -5 q 48 19 48 1 q 52 45 47 37 l 52 45 q 139 69 132 51 l 139 69 q 150 197 150 96 l 150 197 l 150 696 q 139 823 150 796 l 139 823 q 52 848 132 842 l 52 848 q 48 873 47 855 q 52 898 48 892 z "},"Í":{"ha":488,"x_min":47,"x_max":442,"o":"m 170 987 q 155 998 161 987 q 149 1015 149 1008 q 208 1081 149 1022 q 311 1173 267 1139 l 311 1173 q 341 1179 322 1179 q 386 1165 360 1179 q 412 1128 412 1152 q 354 1070 412 1105 q 238 1011 296 1035 q 170 987 179 987 z m 52 898 l 52 898 q 245 888 145 888 q 437 898 345 888 l 437 898 q 442 873 441 892 q 437 848 442 855 l 437 848 q 351 823 357 842 l 351 823 q 340 696 340 796 l 340 696 l 340 197 q 351 69 340 96 l 351 69 q 437 45 357 51 l 437 45 q 442 19 442 37 q 437 -5 441 1 l 437 -5 q 245 4 345 4 q 52 -5 145 4 l 52 -5 q 48 19 48 1 q 52 45 47 37 l 52 45 q 139 69 132 51 l 139 69 q 150 197 150 96 l 150 197 l 150 696 q 139 823 150 796 l 139 823 q 52 848 132 842 l 52 848 q 48 873 47 855 q 52 898 48 892 z "},"Î":{"ha":488,"x_min":47,"x_max":442,"o":"m 410 990 l 410 990 q 337 1023 397 994 q 248 1072 277 1053 l 248 1072 q 159 1023 218 1052 q 85 990 101 994 l 85 990 q 71 1013 71 997 l 71 1013 q 141 1075 86 1024 q 219 1153 197 1126 q 247 1180 241 1180 q 275 1156 252 1180 l 275 1156 q 424 1013 371 1053 l 424 1013 q 410 990 424 995 z m 52 898 l 52 898 q 245 888 145 888 q 437 898 345 888 l 437 898 q 442 873 441 892 q 437 848 442 855 l 437 848 q 351 823 357 842 l 351 823 q 340 696 340 796 l 340 696 l 340 197 q 351 69 340 96 l 351 69 q 437 45 357 51 l 437 45 q 442 19 442 37 q 437 -5 441 1 l 437 -5 q 245 4 345 4 q 52 -5 145 4 l 52 -5 q 48 19 48 1 q 52 45 47 37 l 52 45 q 139 69 132 51 l 139 69 q 150 197 150 96 l 150 197 l 150 696 q 139 823 150 796 l 139 823 q 52 848 132 842 l 52 848 q 48 873 47 855 q 52 898 48 892 z "},"Ï":{"ha":488,"x_min":12,"x_max":475,"o":"m 317 1016 q 290 1081 290 1042 q 317 1146 290 1120 q 382 1172 344 1172 q 448 1146 421 1172 q 475 1081 475 1120 q 448 1016 475 1042 q 382 989 421 989 q 317 1016 344 989 z m 38 1016 q 12 1081 12 1042 q 38 1146 12 1120 q 103 1172 64 1172 q 169 1146 142 1172 q 195 1081 195 1120 q 169 1016 195 1042 q 103 989 142 989 q 38 1016 64 989 z m 53 898 l 53 898 q 245 888 146 888 q 438 898 345 888 l 438 898 q 443 873 442 892 q 438 848 443 855 l 438 848 q 351 823 358 842 l 351 823 q 340 696 340 796 l 340 696 l 340 197 q 351 69 340 96 l 351 69 q 438 45 358 51 l 438 45 q 443 19 443 37 q 438 -5 442 1 l 438 -5 q 245 4 345 4 q 53 -5 146 4 l 53 -5 q 48 19 49 1 q 53 45 48 37 l 53 45 q 140 69 133 51 l 140 69 q 151 197 151 96 l 151 197 l 151 696 q 140 823 151 796 l 140 823 q 53 848 133 842 l 53 848 q 48 873 48 855 q 53 898 49 892 z "},"Ð":{"ha":1038,"x_min":39,"x_max":980,"o":"m 345 742 l 345 742 l 345 191 q 356 84 345 111 l 356 84 q 388 62 362 71 q 441 53 414 53 l 441 53 q 686 148 607 53 q 764 438 764 242 q 670 738 764 634 q 420 841 576 841 l 420 841 q 352 825 359 841 q 345 742 345 808 z m 58 895 l 58 895 q 210 891 119 891 q 459 895 300 891 l 459 895 q 733 844 616 895 q 915 692 850 792 q 980 456 980 593 l 980 456 q 762 66 980 186 l 762 66 q 450 -4 634 -4 l 450 -4 l 58 -4 q 53 20 54 2 q 58 46 53 39 l 58 46 q 144 69 138 52 l 144 69 q 155 197 155 96 l 155 197 l 155 696 q 144 823 155 796 l 144 823 q 58 845 138 839 l 58 845 q 53 871 53 852 q 58 895 54 889 z m 519 418 l 45 418 q 40 442 37 418 q 46 472 42 467 l 46 472 l 519 472 q 524 450 524 472 q 519 418 524 427 l 519 418 z "},"Ñ":{"ha":1031,"x_min":39,"x_max":1004,"o":"m 281 1008 l 281 1008 q 271 1033 271 1008 q 296 1093 271 1059 l 296 1093 q 422 1158 349 1158 l 422 1158 q 493 1145 465 1158 q 545 1119 521 1132 l 545 1119 q 653 1076 623 1076 q 704 1086 682 1076 q 739 1108 726 1096 q 761 1132 751 1120 q 775 1145 772 1143 l 775 1145 q 786 1120 786 1145 q 760 1061 786 1095 l 760 1061 q 634 994 707 994 l 634 994 q 564 1007 591 994 q 522 1028 536 1021 q 496 1043 509 1036 q 478 1052 483 1050 q 463 1060 474 1055 q 446 1068 452 1065 q 431 1073 440 1070 l 431 1073 q 395 1078 416 1078 q 352 1068 374 1078 q 318 1046 330 1058 q 295 1021 306 1034 q 281 1008 285 1009 z m 665 849 l 665 849 q 661 871 661 849 q 665 899 662 894 l 665 899 q 743 893 690 898 q 831 888 796 888 q 926 893 865 888 q 1002 899 986 899 l 1002 899 q 1004 874 1004 891 q 999 848 1004 857 l 999 848 q 924 839 956 848 q 886 816 891 829 q 877 746 882 803 q 873 650 873 689 l 873 650 l 873 189 q 878 -1 873 140 l 878 -1 q 849 -7 873 -7 q 802 24 826 -7 l 802 24 l 250 704 l 250 213 q 265 81 250 122 l 265 81 q 314 56 271 65 q 376 46 356 46 l 376 46 q 382 20 382 37 q 379 -5 382 3 l 379 -5 q 303 0 363 -5 q 208 5 243 5 q 120 1 174 5 q 43 -5 67 -4 l 43 -5 q 39 25 36 5 q 43 45 41 45 l 43 45 q 104 55 64 45 q 151 80 144 64 l 151 80 q 168 217 168 117 l 168 217 l 168 697 q 143 819 168 783 l 143 819 q 103 839 135 831 q 54 848 71 848 l 54 848 q 47 870 48 848 q 51 898 46 892 l 51 898 q 92 895 63 897 l 92 895 q 217 888 158 888 q 352 898 276 888 l 352 898 q 524 659 386 829 l 524 659 q 659 493 574 597 q 787 336 745 390 l 787 336 q 790 392 790 346 l 790 392 l 790 646 q 775 819 790 788 l 775 819 q 730 842 768 835 q 665 849 691 849 z "},"Ò":{"ha":1031,"x_min":54,"x_max":977,"o":"m 419 1173 q 523 1081 463 1139 q 582 1015 582 1022 q 576 998 582 1008 q 561 987 570 987 q 493 1011 551 987 q 376 1070 434 1035 q 319 1128 319 1105 q 345 1165 319 1152 q 389 1179 370 1179 q 419 1173 408 1179 l 419 1173 z m 668 748 q 589 819 637 792 q 489 846 541 846 q 400 825 437 846 q 339 769 363 804 q 300 688 315 734 l 300 688 q 271 520 271 602 q 278 387 271 439 q 297 284 284 335 q 332 191 310 233 q 383 115 354 148 l 383 115 q 544 45 446 45 l 544 45 q 730 202 676 45 l 730 202 q 760 374 760 288 q 750 523 760 460 q 720 644 741 585 q 668 748 699 703 z m 343 868 q 515 905 427 905 q 688 868 604 905 q 836 770 772 831 q 938 624 899 709 q 977 445 977 538 q 938 267 977 352 q 836 120 899 181 q 688 23 772 59 q 515 -14 604 -14 q 343 23 427 -14 q 195 120 258 59 q 93 267 132 181 q 54 445 54 352 q 93 624 54 538 q 195 770 132 709 q 343 868 258 831 z "},"Ó":{"ha":1031,"x_min":54,"x_max":977,"o":"m 454 987 q 439 998 445 987 q 433 1015 433 1008 q 492 1081 433 1022 q 595 1173 551 1139 l 595 1173 q 625 1179 606 1179 q 670 1165 644 1179 q 696 1128 696 1152 q 638 1070 696 1105 q 522 1011 581 1035 q 454 987 463 987 z m 668 748 q 589 819 637 792 q 489 846 541 846 q 400 825 437 846 q 339 769 363 804 q 300 688 315 734 l 300 688 q 271 520 271 602 q 278 387 271 439 q 297 284 284 335 q 332 191 310 233 q 383 115 354 148 l 383 115 q 544 45 446 45 l 544 45 q 730 202 676 45 l 730 202 q 760 374 760 288 q 750 523 760 460 q 720 644 741 585 q 668 748 699 703 z m 343 868 q 515 905 427 905 q 688 868 604 905 q 836 770 772 831 q 938 624 899 709 q 977 445 977 538 q 938 267 977 352 q 836 120 899 181 q 688 23 772 59 q 515 -14 604 -14 q 343 23 427 -14 q 195 120 258 59 q 93 267 132 181 q 54 445 54 352 q 93 624 54 538 q 195 770 132 709 q 343 868 258 831 z "},"Ô":{"ha":1031,"x_min":54,"x_max":977,"o":"m 681 990 l 681 990 q 608 1023 667 994 q 518 1072 548 1053 l 518 1072 q 430 1023 488 1052 q 355 990 372 994 l 355 990 q 342 1013 342 997 l 342 1013 q 412 1075 357 1024 q 490 1153 467 1126 q 517 1180 512 1180 q 545 1156 522 1180 l 545 1156 q 694 1013 642 1053 l 694 1013 q 681 990 694 995 z m 668 748 q 589 819 637 792 q 489 846 541 846 q 400 825 437 846 q 339 769 363 804 q 300 688 315 734 l 300 688 q 271 520 271 602 q 278 387 271 439 q 297 284 284 335 q 332 191 310 233 q 383 115 354 148 l 383 115 q 544 45 446 45 l 544 45 q 730 202 676 45 l 730 202 q 760 374 760 288 q 750 523 760 460 q 720 644 741 585 q 668 748 699 703 z m 343 868 q 515 905 427 905 q 688 868 604 905 q 836 770 772 831 q 938 624 899 709 q 977 445 977 538 q 938 267 977 352 q 836 120 899 181 q 688 23 772 59 q 515 -14 604 -14 q 343 23 427 -14 q 195 120 258 59 q 93 267 132 181 q 54 445 54 352 q 93 624 54 538 q 195 770 132 709 q 343 868 258 831 z "},"Õ":{"ha":1031,"x_min":54,"x_max":977,"o":"m 278 1008 l 278 1008 q 267 1033 267 1008 q 293 1093 267 1059 l 293 1093 q 419 1158 345 1158 l 419 1158 q 490 1145 462 1158 q 541 1119 517 1132 l 541 1119 q 649 1076 620 1076 q 701 1086 679 1076 q 735 1108 723 1096 q 758 1132 747 1120 q 772 1145 768 1143 l 772 1145 q 783 1120 783 1145 q 757 1061 783 1095 l 757 1061 q 631 994 703 994 l 631 994 q 560 1007 588 994 q 519 1028 532 1021 q 492 1043 505 1036 q 475 1052 479 1050 q 460 1060 471 1055 q 443 1068 449 1065 q 428 1073 437 1070 l 428 1073 q 392 1078 413 1078 q 349 1068 371 1078 q 315 1046 327 1058 q 292 1021 302 1034 q 278 1008 281 1009 z m 668 748 q 589 819 637 792 q 489 846 541 846 q 400 825 437 846 q 339 769 363 804 q 300 688 315 734 l 300 688 q 271 520 271 602 q 278 387 271 439 q 297 284 284 335 q 332 191 310 233 q 383 115 354 148 l 383 115 q 544 45 446 45 l 544 45 q 730 202 676 45 l 730 202 q 760 374 760 288 q 750 523 760 460 q 720 644 741 585 q 668 748 699 703 z m 343 868 q 515 905 427 905 q 688 868 604 905 q 836 770 772 831 q 938 624 899 709 q 977 445 977 538 q 938 267 977 352 q 836 120 899 181 q 688 23 772 59 q 515 -14 604 -14 q 343 23 427 -14 q 195 120 258 59 q 93 267 132 181 q 54 445 54 352 q 93 624 54 538 q 195 770 132 709 q 343 868 258 831 z "},"Ö":{"ha":1031,"x_min":54,"x_max":977,"o":"m 588 1016 q 562 1081 562 1042 q 588 1146 562 1120 q 654 1172 615 1172 q 719 1146 692 1172 q 746 1081 746 1120 q 719 1016 746 1042 q 654 989 692 989 q 588 1016 615 989 z m 310 1016 q 283 1081 283 1042 q 310 1146 283 1120 q 374 1172 336 1172 q 440 1146 413 1172 q 467 1081 467 1120 q 440 1016 467 1042 q 374 989 413 989 q 310 1016 336 989 z m 668 748 q 589 819 637 792 q 489 846 541 846 q 400 825 437 846 q 339 769 363 804 q 300 688 315 734 l 300 688 q 271 520 271 602 q 278 387 271 439 q 297 284 284 335 q 332 191 310 233 q 383 115 354 148 l 383 115 q 544 45 446 45 l 544 45 q 730 202 676 45 l 730 202 q 760 374 760 288 q 750 523 760 460 q 720 644 741 585 q 668 748 699 703 z m 343 868 q 515 905 427 905 q 688 868 604 905 q 836 770 772 831 q 938 624 899 709 q 977 445 977 538 q 938 267 977 352 q 836 120 899 181 q 688 23 772 59 q 515 -14 604 -14 q 343 23 427 -14 q 195 120 258 59 q 93 267 132 181 q 54 445 54 352 q 93 624 54 538 q 195 770 132 709 q 343 868 258 831 z "},"×":{"ha":631,"x_min":73,"x_max":557,"o":"m 266 336 l 266 336 l 73 529 q 87 564 73 543 q 110 585 102 585 q 121 582 118 585 l 121 582 q 320 389 317 392 l 320 389 l 514 582 q 524 585 517 585 q 544 561 531 585 q 557 525 557 536 l 557 525 q 370 339 374 343 l 370 339 l 557 145 q 545 108 557 129 q 522 87 533 87 l 522 87 q 513 90 515 87 l 513 90 l 316 286 l 117 87 q 107 84 114 84 q 86 109 100 84 q 73 145 73 134 l 73 145 q 266 336 260 331 z "},"Ø":{"ha":1029,"x_min":54,"x_max":977,"o":"m 668 748 q 589 819 637 792 q 489 846 541 846 q 400 825 437 846 q 339 769 363 804 q 300 688 315 734 l 300 688 q 271 520 271 602 q 278 387 271 439 q 297 284 284 335 q 332 191 310 233 q 383 115 354 148 l 383 115 q 544 45 446 45 l 544 45 q 730 202 676 45 l 730 202 q 760 374 760 288 q 750 523 760 460 q 720 644 741 585 q 668 748 699 703 z m 343 868 q 515 905 427 905 q 688 868 604 905 q 836 770 772 831 q 938 624 899 709 q 977 445 977 538 q 938 267 977 352 q 836 120 899 181 q 688 23 772 59 q 515 -14 604 -14 q 343 23 427 -14 q 195 120 258 59 q 93 267 132 181 q 54 445 54 352 q 93 624 54 538 q 195 770 132 709 q 343 868 258 831 z m 222 5 l 734 917 q 739 915 734 917 q 745 912 743 913 q 753 910 748 911 q 761 906 758 908 l 761 906 q 785 892 783 895 q 785 888 786 890 l 785 888 l 274 -24 q 222 5 220 -4 l 222 5 z "},"Ù":{"ha":990,"x_min":26,"x_max":990,"o":"m 458 1173 q 561 1081 502 1139 q 621 1015 621 1022 q 614 998 621 1008 q 599 987 608 987 q 531 1011 590 987 q 415 1070 473 1035 q 357 1128 357 1105 q 383 1165 357 1152 q 428 1179 409 1179 q 458 1173 447 1179 l 458 1173 z m 827 888 l 827 888 l 985 898 q 990 873 989 892 q 985 848 990 855 l 985 848 q 968 847 975 848 q 953 845 962 846 q 938 843 944 844 q 923 840 932 842 q 909 836 915 838 q 897 830 903 833 l 897 830 q 879 810 885 825 q 867 746 873 795 q 862 651 862 696 l 862 651 l 862 388 q 705 50 862 155 l 705 50 q 490 -12 613 -12 l 490 -12 q 327 18 401 -12 q 204 107 252 48 l 204 107 q 128 408 128 203 l 128 408 l 128 696 q 117 823 128 796 l 117 823 q 31 848 111 842 l 31 848 q 26 873 26 855 q 31 898 26 892 l 31 898 q 223 888 123 888 q 416 898 323 888 l 416 898 q 420 873 420 892 q 416 848 420 855 l 416 848 q 329 823 336 842 l 329 823 q 318 696 318 796 l 318 696 l 318 448 q 324 316 318 367 q 352 216 330 265 l 352 216 q 558 85 408 85 l 558 85 q 709 163 645 85 l 709 163 q 778 419 778 247 l 778 419 l 778 650 q 759 815 778 769 l 759 815 q 657 848 748 841 l 657 848 q 653 873 652 855 q 657 898 653 892 l 657 898 q 827 888 769 888 z "},"Ú":{"ha":990,"x_min":26,"x_max":990,"o":"m 444 987 q 429 998 435 987 q 422 1015 422 1008 q 482 1081 422 1022 q 585 1173 541 1139 l 585 1173 q 615 1179 596 1179 q 660 1165 634 1179 q 686 1128 686 1152 q 628 1070 686 1105 q 512 1011 570 1035 q 444 987 453 987 z m 827 888 l 827 888 l 985 898 q 990 873 989 892 q 985 848 990 855 l 985 848 q 968 847 975 848 q 953 845 962 846 q 938 843 944 844 q 923 840 932 842 q 909 836 915 838 q 897 830 903 833 l 897 830 q 879 810 885 825 q 867 746 873 795 q 862 651 862 696 l 862 651 l 862 388 q 705 50 862 155 l 705 50 q 490 -12 613 -12 l 490 -12 q 327 18 401 -12 q 204 107 252 48 l 204 107 q 128 408 128 203 l 128 408 l 128 696 q 117 823 128 796 l 117 823 q 31 848 111 842 l 31 848 q 26 873 26 855 q 31 898 26 892 l 31 898 q 223 888 123 888 q 416 898 323 888 l 416 898 q 420 873 420 892 q 416 848 420 855 l 416 848 q 329 823 336 842 l 329 823 q 318 696 318 796 l 318 696 l 318 448 q 324 316 318 367 q 352 216 330 265 l 352 216 q 558 85 408 85 l 558 85 q 709 163 645 85 l 709 163 q 778 419 778 247 l 778 419 l 778 650 q 759 815 778 769 l 759 815 q 657 848 748 841 l 657 848 q 653 873 652 855 q 657 898 653 892 l 657 898 q 827 888 769 888 z "},"Û":{"ha":990,"x_min":26,"x_max":990,"o":"m 698 990 l 698 990 q 625 1023 684 994 q 535 1072 565 1053 l 535 1072 q 447 1023 505 1052 q 372 990 389 994 l 372 990 q 359 1013 359 997 l 359 1013 q 429 1075 374 1024 q 507 1153 484 1126 q 534 1180 529 1180 q 562 1156 539 1180 l 562 1156 q 711 1013 659 1053 l 711 1013 q 698 990 711 995 z m 827 888 l 827 888 l 985 898 q 990 873 989 892 q 985 848 990 855 l 985 848 q 968 847 975 848 q 953 845 962 846 q 938 843 944 844 q 923 840 932 842 q 909 836 915 838 q 897 830 903 833 l 897 830 q 879 810 885 825 q 867 746 873 795 q 862 651 862 696 l 862 651 l 862 388 q 705 50 862 155 l 705 50 q 490 -12 613 -12 l 490 -12 q 327 18 401 -12 q 204 107 252 48 l 204 107 q 128 408 128 203 l 128 408 l 128 696 q 117 823 128 796 l 117 823 q 31 848 111 842 l 31 848 q 26 873 26 855 q 31 898 26 892 l 31 898 q 223 888 123 888 q 416 898 323 888 l 416 898 q 420 873 420 892 q 416 848 420 855 l 416 848 q 329 823 336 842 l 329 823 q 318 696 318 796 l 318 696 l 318 448 q 324 316 318 367 q 352 216 330 265 l 352 216 q 558 85 408 85 l 558 85 q 709 163 645 85 l 709 163 q 778 419 778 247 l 778 419 l 778 650 q 759 815 778 769 l 759 815 q 657 848 748 841 l 657 848 q 653 873 652 855 q 657 898 653 892 l 657 898 q 827 888 769 888 z "},"Ü":{"ha":990,"x_min":26,"x_max":990,"o":"m 607 1016 q 580 1081 580 1042 q 607 1146 580 1120 q 672 1172 633 1172 q 738 1146 711 1172 q 764 1081 764 1120 q 738 1016 764 1042 q 672 989 711 989 q 607 1016 633 989 z m 328 1016 q 302 1081 302 1042 q 328 1146 302 1120 q 393 1172 354 1172 q 458 1146 431 1172 q 485 1081 485 1120 q 458 1016 485 1042 q 393 989 431 989 q 328 1016 354 989 z m 827 888 l 827 888 l 985 898 q 990 873 989 892 q 985 848 990 855 l 985 848 q 968 847 975 848 q 953 845 962 846 q 938 843 944 844 q 923 840 932 842 q 909 836 915 838 q 897 830 903 833 l 897 830 q 879 810 885 825 q 867 746 873 795 q 862 651 862 696 l 862 651 l 862 388 q 705 50 862 155 l 705 50 q 490 -12 613 -12 l 490 -12 q 327 18 401 -12 q 204 107 252 48 l 204 107 q 128 408 128 203 l 128 408 l 128 696 q 117 823 128 796 l 117 823 q 31 848 111 842 l 31 848 q 26 873 26 855 q 31 898 26 892 l 31 898 q 223 888 123 888 q 416 898 323 888 l 416 898 q 420 873 420 892 q 416 848 420 855 l 416 848 q 329 823 336 842 l 329 823 q 318 696 318 796 l 318 696 l 318 448 q 324 316 318 367 q 352 216 330 265 l 352 216 q 558 85 408 85 l 558 85 q 709 163 645 85 l 709 163 q 778 419 778 247 l 778 419 l 778 650 q 759 815 778 769 l 759 815 q 657 848 748 841 l 657 848 q 653 873 652 855 q 657 898 653 892 l 657 898 q 827 888 769 888 z "},"Ý":{"ha":846,"x_min":0,"x_max":867,"o":"m 415 987 q 400 998 406 987 q 394 1015 394 1008 q 453 1081 394 1022 q 557 1173 513 1139 l 557 1173 q 587 1179 568 1179 q 631 1165 606 1179 q 657 1128 657 1152 q 600 1070 657 1105 q 483 1011 542 1035 q 415 987 425 987 z m 316 144 l 316 144 l 317 178 l 317 385 q 174 666 317 409 l 174 666 l 139 728 q 100 798 117 770 l 100 798 q 5 848 74 842 l 5 848 q 0 873 0 855 q 5 898 1 892 l 5 898 q 197 888 98 888 q 390 898 297 888 l 390 898 q 394 873 394 892 q 390 848 395 855 l 390 848 q 354 845 365 848 q 336 840 343 842 q 325 836 329 838 q 316 829 320 833 q 309 821 311 826 q 307 811 307 817 q 317 789 307 806 l 317 789 l 479 490 q 650 784 488 481 l 650 784 q 657 815 657 798 l 657 815 q 557 848 657 840 l 557 848 q 552 873 552 855 q 557 898 553 892 l 557 898 q 710 888 669 888 l 710 888 l 862 898 q 866 873 866 892 q 862 848 867 855 l 862 848 q 790 836 803 843 l 790 836 q 762 814 768 823 l 762 814 q 632 607 725 758 q 523 423 538 456 q 507 378 507 391 l 507 378 l 507 197 q 517 69 505 99 l 517 69 q 604 45 524 51 l 604 45 q 609 19 609 37 q 604 -5 608 1 l 604 -5 q 412 4 511 4 q 219 -5 312 4 l 219 -5 q 215 19 215 1 q 219 45 214 37 l 219 45 q 306 69 299 51 l 306 69 q 316 144 316 93 z "},"Þ":{"ha":791,"x_min":47,"x_max":762,"o":"m 52 898 l 52 898 q 245 888 145 888 q 437 898 345 888 l 437 898 q 442 873 441 892 q 437 848 442 855 l 437 848 q 349 820 357 842 q 340 731 340 798 l 340 731 l 340 701 q 476 704 410 704 q 610 676 541 704 q 720 593 678 649 q 762 461 762 538 q 723 322 762 384 q 624 230 685 261 q 494 198 564 198 l 494 198 q 436 209 462 198 q 401 229 411 219 q 391 256 391 239 q 395 273 391 273 l 395 273 q 457 267 414 267 q 535 317 501 267 q 569 446 569 366 q 525 588 569 526 q 417 650 481 650 q 347 633 354 650 l 347 633 q 340 568 341 618 l 340 568 l 340 551 l 340 197 q 351 69 340 96 l 351 69 q 437 45 357 51 l 437 45 q 442 19 442 37 q 437 -5 441 1 l 437 -5 q 245 4 345 4 q 52 -5 145 4 l 52 -5 q 48 19 48 1 q 52 45 47 37 l 52 45 q 139 69 132 51 l 139 69 q 150 197 150 96 l 150 197 l 150 696 q 139 823 150 796 l 139 823 q 52 848 132 842 l 52 848 q 48 873 47 855 q 52 898 48 892 z "},"ß":{"ha":800,"x_min":26,"x_max":763,"o":"m 446 947 l 446 947 q 610 894 537 947 q 683 764 683 842 l 683 764 q 671 707 683 733 q 647 668 659 681 q 622 645 635 656 q 594 621 609 633 q 571 602 579 609 q 553 584 564 595 l 553 584 q 534 545 534 563 q 550 504 534 528 q 583 464 566 480 q 629 421 600 447 q 677 376 658 395 q 714 337 696 357 q 747 282 731 317 q 763 202 763 246 q 742 115 763 158 q 686 45 720 73 l 686 45 q 532 -14 614 -14 l 532 -14 q 460 -3 496 -14 q 409 23 425 7 l 409 23 q 397 78 397 47 q 415 137 397 108 q 463 165 434 165 l 463 165 q 500 154 489 165 q 515 139 511 143 q 523 127 518 136 q 530 116 528 119 q 536 104 532 113 l 536 104 q 595 46 563 46 l 595 46 q 638 111 638 46 l 638 111 q 631 150 638 136 q 621 173 625 165 q 608 194 617 182 q 594 212 599 205 q 577 231 590 218 q 561 249 565 244 q 542 267 557 253 q 521 288 528 281 q 490 317 515 294 q 453 353 466 340 q 425 387 441 366 l 425 387 q 394 472 394 426 l 394 472 q 445 559 394 505 l 445 559 q 476 593 458 573 l 476 593 q 522 712 522 644 l 522 712 q 475 856 522 806 l 475 856 q 409 883 449 883 q 337 820 369 883 q 304 659 304 757 l 304 659 l 304 197 q 314 73 304 96 q 374 45 323 49 l 374 45 q 378 19 378 37 q 374 -5 378 1 l 374 -5 q 202 4 281 4 q 31 -5 123 4 l 31 -5 q 26 19 26 1 q 31 45 26 37 l 31 45 q 117 69 111 51 l 117 69 q 128 197 128 96 l 128 197 l 128 517 l 48 517 q 41 534 41 519 l 41 534 q 85 581 59 559 l 85 581 l 128 581 l 128 601 q 158 733 128 668 q 233 844 187 798 q 336 918 279 890 q 446 947 393 947 z "},"à":{"ha":640,"x_min":42,"x_max":621,"o":"m 163 876 l 163 876 q 178 902 163 888 q 227 916 194 916 q 271 903 259 916 l 271 903 q 356 786 315 853 q 397 715 397 720 q 389 701 397 710 q 374 692 381 692 q 315 726 366 692 q 213 807 264 761 q 163 876 163 852 z m 225 168 q 252 106 226 128 q 304 84 277 84 q 347 95 331 84 q 363 113 363 105 l 363 113 l 363 302 q 325 285 359 300 q 274 259 290 269 l 274 259 q 225 168 222 226 l 225 168 z m 540 148 q 549 107 540 121 q 573 92 558 92 q 612 106 587 92 l 612 106 q 621 86 621 101 q 616 62 621 71 l 616 62 q 476 -8 538 -8 l 476 -8 q 413 13 444 -8 q 373 60 382 34 l 373 60 q 304 17 356 45 q 220 -11 252 -11 l 220 -11 q 94 40 145 -11 q 42 155 42 92 l 42 155 q 63 223 42 193 q 110 262 85 254 q 181 288 135 271 l 181 288 q 363 358 235 308 l 363 358 l 363 422 q 341 516 363 475 q 283 557 318 557 l 283 557 q 224 509 241 557 l 224 509 q 205 444 213 481 l 205 444 q 129 384 192 384 l 129 384 q 79 402 100 384 q 58 446 58 421 q 77 505 58 471 l 77 505 q 181 570 103 530 q 341 609 260 609 q 481 550 422 609 q 540 401 540 492 l 540 401 l 540 148 z "},"á":{"ha":640,"x_min":42,"x_max":621,"o":"m 351 903 l 351 903 q 396 916 363 916 q 444 902 429 916 q 460 876 460 888 l 460 876 q 409 807 460 852 q 308 726 359 761 q 249 692 256 692 q 233 701 241 692 q 225 715 225 710 q 245 753 225 720 l 245 753 q 351 903 307 853 z m 225 168 q 252 106 226 128 q 304 84 277 84 q 347 95 331 84 q 363 113 363 105 l 363 113 l 363 302 q 325 285 359 300 q 274 259 290 269 l 274 259 q 225 168 222 226 l 225 168 z m 540 148 q 549 107 540 121 q 573 92 558 92 q 612 106 587 92 l 612 106 q 621 86 621 101 q 616 62 621 71 l 616 62 q 476 -8 538 -8 l 476 -8 q 413 13 444 -8 q 373 60 382 34 l 373 60 q 304 17 356 45 q 220 -11 252 -11 l 220 -11 q 94 40 145 -11 q 42 155 42 92 l 42 155 q 63 223 42 193 q 110 262 85 254 q 181 288 135 271 l 181 288 q 363 358 235 308 l 363 358 l 363 422 q 341 516 363 475 q 283 557 318 557 l 283 557 q 224 509 241 557 l 224 509 q 205 444 213 481 l 205 444 q 129 384 192 384 l 129 384 q 79 402 100 384 q 58 446 58 421 q 77 505 58 471 l 77 505 q 181 570 103 530 q 341 609 260 609 q 481 550 422 609 q 540 401 540 492 l 540 401 l 540 148 z "},"â":{"ha":640,"x_min":42,"x_max":621,"o":"m 461 692 l 461 692 q 395 732 450 695 q 313 792 340 769 l 313 792 q 234 734 286 769 q 165 692 181 699 l 165 692 q 153 723 153 697 l 153 723 q 229 811 186 755 q 296 906 271 866 l 296 906 q 310 920 303 920 q 318 919 316 920 q 322 916 321 918 q 326 911 323 915 q 331 904 328 908 q 350 878 334 901 l 350 878 q 473 723 415 781 l 473 723 q 461 692 473 697 z m 225 168 q 252 106 226 128 q 304 84 277 84 q 347 95 331 84 q 363 113 363 105 l 363 113 l 363 302 q 325 285 359 300 q 274 259 290 269 l 274 259 q 225 168 222 226 l 225 168 z m 540 148 q 549 107 540 121 q 573 92 558 92 q 612 106 587 92 l 612 106 q 621 86 621 101 q 616 62 621 71 l 616 62 q 476 -8 538 -8 l 476 -8 q 413 13 444 -8 q 373 60 382 34 l 373 60 q 304 17 356 45 q 220 -11 252 -11 l 220 -11 q 94 40 145 -11 q 42 155 42 92 l 42 155 q 63 223 42 193 q 110 262 85 254 q 181 288 135 271 l 181 288 q 363 358 235 308 l 363 358 l 363 422 q 341 516 363 475 q 283 557 318 557 l 283 557 q 224 509 241 557 l 224 509 q 205 444 213 481 l 205 444 q 129 384 192 384 l 129 384 q 79 402 100 384 q 58 446 58 421 q 77 505 58 471 l 77 505 q 181 570 103 530 q 341 609 260 609 q 481 550 422 609 q 540 401 540 492 l 540 401 l 540 148 z "},"ã":{"ha":640,"x_min":42,"x_max":621,"o":"m 214 867 l 214 867 q 245 863 235 867 q 258 858 254 859 q 268 853 262 857 q 277 848 275 850 q 287 843 279 847 q 296 837 294 838 l 296 837 q 324 818 309 829 q 366 793 338 806 q 412 780 393 780 q 447 790 430 780 q 473 813 465 801 q 490 838 482 825 q 500 852 498 850 l 500 852 q 511 829 511 852 q 488 764 511 806 l 488 764 q 387 694 445 694 l 387 694 q 356 698 366 694 q 343 703 347 702 q 333 708 339 705 q 324 713 326 711 q 314 719 321 714 q 305 724 307 723 l 305 724 q 288 736 292 732 l 288 736 q 191 783 225 783 l 191 783 q 123 738 149 783 l 123 738 q 113 719 117 728 q 106 709 109 711 l 106 709 q 96 716 100 709 q 92 742 92 723 q 113 799 92 761 l 113 799 q 214 867 155 867 z m 225 168 q 252 106 226 128 q 304 84 277 84 q 347 95 331 84 q 363 113 363 105 l 363 113 l 363 302 q 325 285 359 300 q 274 259 290 269 l 274 259 q 225 168 222 226 l 225 168 z m 540 148 q 549 107 540 121 q 573 92 558 92 q 612 106 587 92 l 612 106 q 621 86 621 101 q 616 62 621 71 l 616 62 q 476 -8 538 -8 l 476 -8 q 413 13 444 -8 q 373 60 382 34 l 373 60 q 304 17 356 45 q 220 -11 252 -11 l 220 -11 q 94 40 145 -11 q 42 155 42 92 l 42 155 q 63 223 42 193 q 110 262 85 254 q 181 288 135 271 l 181 288 q 363 358 235 308 l 363 358 l 363 422 q 341 516 363 475 q 283 557 318 557 l 283 557 q 224 509 241 557 l 224 509 q 205 444 213 481 l 205 444 q 129 384 192 384 l 129 384 q 79 402 100 384 q 58 446 58 421 q 77 505 58 471 l 77 505 q 181 570 103 530 q 341 609 260 609 q 481 550 422 609 q 540 401 540 492 l 540 401 l 540 148 z "},"ä":{"ha":640,"x_min":42,"x_max":621,"o":"m 357 856 q 423 883 385 883 q 490 856 462 883 q 518 789 518 828 q 490 723 518 751 q 423 694 462 694 q 357 723 385 694 q 330 789 330 751 q 357 856 330 828 z m 101 856 q 168 883 130 883 q 234 856 207 883 q 262 789 262 828 q 234 723 262 751 q 168 694 207 694 q 101 723 130 694 q 73 789 73 751 q 101 856 73 828 z m 225 168 q 252 106 226 128 q 304 84 277 84 q 347 95 331 84 q 363 113 363 105 l 363 113 l 363 302 q 325 285 359 300 q 274 259 290 269 l 274 259 q 225 168 222 226 l 225 168 z m 540 148 q 549 107 540 121 q 573 92 558 92 q 612 106 587 92 l 612 106 q 621 86 621 101 q 616 62 621 71 l 616 62 q 476 -8 538 -8 l 476 -8 q 413 13 444 -8 q 373 60 382 34 l 373 60 q 304 17 356 45 q 220 -11 252 -11 l 220 -11 q 94 40 145 -11 q 42 155 42 92 l 42 155 q 63 223 42 193 q 110 262 85 254 q 181 288 135 271 l 181 288 q 363 358 235 308 l 363 358 l 363 422 q 341 516 363 475 q 283 557 318 557 l 283 557 q 224 509 241 557 l 224 509 q 205 444 213 481 l 205 444 q 129 384 192 384 l 129 384 q 79 402 100 384 q 58 446 58 421 q 77 505 58 471 l 77 505 q 181 570 103 530 q 341 609 260 609 q 481 550 422 609 q 540 401 540 492 l 540 401 l 540 148 z "},"å":{"ha":640,"x_min":42,"x_max":621,"o":"m 287 890 q 262 827 262 864 q 287 764 262 791 q 349 738 312 738 q 411 764 385 738 q 437 827 437 791 q 411 890 437 864 q 349 916 385 916 q 287 890 312 916 z m 349 675 q 242 720 287 675 q 198 827 198 765 q 242 933 198 889 q 349 977 286 977 q 455 933 411 977 q 499 827 499 889 q 455 720 499 765 q 349 675 410 675 z m 225 168 q 252 106 226 128 q 304 84 277 84 q 347 95 331 84 q 363 113 363 105 l 363 113 l 363 302 q 325 285 359 300 q 274 259 290 269 l 274 259 q 225 168 222 226 l 225 168 z m 540 148 q 549 107 540 121 q 573 92 558 92 q 612 106 587 92 l 612 106 q 621 86 621 101 q 616 62 621 71 l 616 62 q 476 -8 538 -8 l 476 -8 q 413 13 444 -8 q 373 60 382 34 l 373 60 q 304 17 356 45 q 220 -11 252 -11 l 220 -11 q 94 40 145 -11 q 42 155 42 92 l 42 155 q 63 223 42 193 q 110 262 85 254 q 181 288 135 271 l 181 288 q 363 358 235 308 l 363 358 l 363 422 q 341 516 363 475 q 283 557 318 557 l 283 557 q 224 509 241 557 l 224 509 q 205 444 213 481 l 205 444 q 129 384 192 384 l 129 384 q 79 402 100 384 q 58 446 58 421 q 77 505 58 471 l 77 505 q 181 570 103 530 q 341 609 260 609 q 481 550 422 609 q 540 401 540 492 l 540 401 l 540 148 z "},"æ":{"ha":944,"x_min":42,"x_max":902,"o":"m 305 275 l 305 275 q 225 168 222 241 l 225 168 q 252 106 226 128 q 306 84 277 84 q 368 103 334 84 q 401 138 401 121 l 401 138 q 381 242 381 202 q 382 302 381 282 l 382 302 q 305 275 356 296 z m 734 415 q 713 510 734 469 q 658 551 693 551 q 601 531 623 551 q 566 484 578 512 l 566 484 q 541 382 541 427 l 541 382 q 621 386 550 382 q 716 393 692 390 l 716 393 q 734 415 734 395 l 734 415 z m 648 -12 l 648 -12 q 431 87 504 -12 l 431 87 q 318 18 380 46 q 220 -11 255 -11 l 220 -11 q 94 40 145 -11 q 42 155 42 92 l 42 155 q 63 223 42 193 q 113 263 85 254 l 113 263 q 387 357 197 290 l 387 357 q 397 390 397 364 l 397 390 q 353 522 397 473 l 353 522 q 283 557 320 557 l 283 557 q 224 509 241 557 l 224 509 q 205 444 213 481 l 205 444 q 129 384 192 384 l 129 384 q 79 402 100 384 q 58 446 58 421 q 77 505 58 471 l 77 505 q 181 570 103 530 q 336 609 260 609 l 336 609 q 495 534 435 609 l 495 534 q 665 606 574 606 l 665 606 q 869 507 805 606 l 869 507 q 902 401 902 456 l 902 401 q 891 362 902 379 q 865 345 880 345 l 865 345 q 540 328 743 334 l 540 328 q 637 127 540 182 l 637 127 q 730 102 682 102 l 730 102 q 882 170 820 102 l 882 170 q 893 160 888 168 q 898 139 898 152 q 890 114 898 125 q 863 82 883 102 q 811 40 842 62 l 811 40 q 648 -12 739 -12 z "},"ç":{"ha":606,"x_min":42,"x_max":576,"o":"m 363 -133 l 363 -133 q 328 -88 363 -88 l 328 -88 q 293 -98 317 -88 l 293 -98 q 282 -90 290 -98 q 275 -77 275 -83 l 275 -77 q 313 -3 300 -37 l 313 -3 l 357 -3 q 339 -34 346 -22 l 339 -34 q 378 -31 361 -31 q 416 -51 396 -31 q 437 -98 437 -71 l 437 -98 q 401 -179 437 -147 q 305 -212 366 -212 l 305 -212 q 240 -190 262 -212 l 240 -190 q 235 -168 235 -182 q 239 -153 235 -153 l 239 -153 q 308 -174 279 -174 q 350 -162 336 -174 q 363 -133 363 -150 z m 533 583 l 533 583 q 560 520 560 553 q 538 460 560 486 q 481 434 516 434 l 481 434 q 447 446 460 434 q 428 463 433 457 q 413 480 422 468 l 413 480 q 308 537 367 537 l 308 537 q 257 507 279 537 l 257 507 q 213 365 213 448 q 231 232 213 282 q 278 154 249 181 l 278 154 q 417 102 335 102 q 560 170 498 102 l 560 170 q 572 160 567 168 q 576 139 576 152 q 569 114 576 125 q 541 82 562 102 q 490 40 521 62 l 490 40 q 334 -12 417 -12 q 186 21 250 -12 q 82 120 121 54 q 42 259 42 185 q 71 393 42 332 q 149 502 100 454 q 262 578 197 549 q 387 608 328 608 l 387 608 q 533 583 494 608 z "},"è":{"ha":624,"x_min":43,"x_max":582,"o":"m 172 876 l 172 876 q 188 902 172 888 q 236 916 203 916 q 281 903 269 916 l 281 903 q 366 786 325 853 q 407 715 407 720 q 399 701 407 710 q 383 692 391 692 q 325 726 376 692 q 223 807 273 761 q 172 876 172 852 z m 221 382 l 221 382 q 301 386 230 382 q 396 393 372 390 l 396 393 q 414 415 414 395 l 414 415 q 393 510 414 469 q 338 551 373 551 q 280 531 303 551 q 245 484 258 512 l 245 484 q 221 382 221 427 z m 220 328 l 220 328 q 317 127 220 182 l 317 127 q 410 102 362 102 l 410 102 q 562 170 500 102 l 562 170 q 573 160 568 168 q 578 139 578 152 q 570 114 578 125 q 543 82 563 102 q 491 40 522 62 l 491 40 q 335 -12 418 -12 q 187 21 252 -12 q 83 120 123 54 q 43 270 43 185 q 86 433 43 355 q 198 558 128 511 q 332 606 269 606 q 437 592 395 606 q 505 557 479 578 q 549 507 531 535 l 549 507 q 582 401 582 456 l 582 401 q 571 362 582 379 q 545 345 560 345 l 545 345 q 220 328 423 334 z "},"é":{"ha":624,"x_min":43,"x_max":582,"o":"m 380 903 l 380 903 q 425 916 392 916 q 473 902 457 916 q 488 876 488 888 l 488 876 q 438 807 488 852 q 336 726 387 761 q 277 692 285 692 q 262 701 270 692 q 254 715 254 710 q 274 753 254 720 l 274 753 q 380 903 336 853 z m 221 382 l 221 382 q 301 386 230 382 q 396 393 372 390 l 396 393 q 414 415 414 395 l 414 415 q 393 510 414 469 q 338 551 373 551 q 280 531 303 551 q 245 484 258 512 l 245 484 q 221 382 221 427 z m 220 328 l 220 328 q 317 127 220 182 l 317 127 q 410 102 362 102 l 410 102 q 562 170 500 102 l 562 170 q 573 160 568 168 q 578 139 578 152 q 570 114 578 125 q 543 82 563 102 q 491 40 522 62 l 491 40 q 335 -12 418 -12 q 187 21 252 -12 q 83 120 123 54 q 43 270 43 185 q 86 433 43 355 q 198 558 128 511 q 332 606 269 606 q 437 592 395 606 q 505 557 479 578 q 549 507 531 535 l 549 507 q 582 401 582 456 l 582 401 q 571 362 582 379 q 545 345 560 345 l 545 345 q 220 328 423 334 z "},"ê":{"ha":624,"x_min":43,"x_max":582,"o":"m 476 692 l 476 692 q 410 732 465 695 q 328 792 355 769 l 328 792 q 249 734 301 769 q 180 692 196 699 l 180 692 q 168 723 168 697 l 168 723 q 243 811 201 755 q 311 906 286 866 l 311 906 q 325 920 318 920 q 333 919 331 920 q 337 916 336 918 q 340 911 338 915 q 346 904 343 908 q 365 878 349 901 l 365 878 q 488 723 430 781 l 488 723 q 476 692 488 697 z m 221 382 l 221 382 q 301 386 230 382 q 396 393 372 390 l 396 393 q 414 415 414 395 l 414 415 q 393 510 414 469 q 338 551 373 551 q 280 531 303 551 q 245 484 258 512 l 245 484 q 221 382 221 427 z m 220 328 l 220 328 q 317 127 220 182 l 317 127 q 410 102 362 102 l 410 102 q 562 170 500 102 l 562 170 q 573 160 568 168 q 578 139 578 152 q 570 114 578 125 q 543 82 563 102 q 491 40 522 62 l 491 40 q 335 -12 418 -12 q 187 21 252 -12 q 83 120 123 54 q 43 270 43 185 q 86 433 43 355 q 198 558 128 511 q 332 606 269 606 q 437 592 395 606 q 505 557 479 578 q 549 507 531 535 l 549 507 q 582 401 582 456 l 582 401 q 571 362 582 379 q 545 345 560 345 l 545 345 q 220 328 423 334 z "},"ë":{"ha":624,"x_min":43,"x_max":582,"o":"m 383 856 q 449 883 410 883 q 516 856 488 883 q 544 789 544 828 q 516 723 544 751 q 449 694 488 694 q 383 723 410 694 q 355 789 355 751 q 383 856 355 828 z m 127 856 q 194 883 155 883 q 260 856 233 883 q 288 789 288 828 q 260 723 288 751 q 194 694 233 694 q 127 723 155 694 q 99 789 99 751 q 127 856 99 828 z m 221 382 l 221 382 q 301 386 230 382 q 396 393 372 390 l 396 393 q 414 415 414 395 l 414 415 q 393 510 414 469 q 338 551 373 551 q 280 531 303 551 q 245 484 258 512 l 245 484 q 221 382 221 427 z m 220 328 l 220 328 q 317 127 220 182 l 317 127 q 410 102 362 102 l 410 102 q 562 170 500 102 l 562 170 q 573 160 568 168 q 578 139 578 152 q 570 114 578 125 q 543 82 563 102 q 491 40 522 62 l 491 40 q 335 -12 418 -12 q 187 21 252 -12 q 83 120 123 54 q 43 270 43 185 q 86 433 43 355 q 198 558 128 511 q 332 606 269 606 q 437 592 395 606 q 505 557 479 578 q 549 507 531 535 l 549 507 q 582 401 582 456 l 582 401 q 571 362 582 379 q 545 345 560 345 l 545 345 q 220 328 423 334 z "},"ì":{"ha":427,"x_min":39,"x_max":411,"o":"m 81 876 l 81 876 q 96 902 81 888 q 144 916 112 916 q 189 903 177 916 l 189 903 q 274 786 233 853 q 315 715 315 720 q 307 701 315 710 q 292 692 299 692 q 233 726 284 692 q 131 807 182 761 q 81 876 81 852 z m 333 582 l 333 582 q 318 419 318 537 l 318 419 l 318 197 q 329 69 318 96 l 329 69 q 406 45 336 50 l 406 45 q 411 19 411 37 q 406 -5 410 1 l 406 -5 q 225 4 313 4 q 44 -5 137 4 l 44 -5 q 40 19 40 1 q 44 45 39 37 l 44 45 q 131 69 124 51 l 131 69 q 142 197 142 96 l 142 197 l 142 353 q 130 464 142 441 l 130 464 q 91 484 123 477 q 44 491 60 491 l 44 491 q 41 513 41 493 q 45 533 41 533 l 45 533 q 190 560 116 538 q 310 605 264 582 l 310 605 q 325 594 317 603 q 333 582 333 585 z "},"í":{"ha":427,"x_min":39,"x_max":411,"o":"m 256 903 l 256 903 q 300 916 268 916 q 349 902 333 916 q 364 876 364 888 l 364 876 q 314 807 364 852 q 212 726 263 761 q 153 692 161 692 q 138 701 146 692 q 130 715 130 710 q 150 753 130 720 l 150 753 q 256 903 212 853 z m 333 582 l 333 582 q 318 419 318 537 l 318 419 l 318 197 q 329 69 318 96 l 329 69 q 406 45 336 50 l 406 45 q 411 19 411 37 q 406 -5 410 1 l 406 -5 q 225 4 313 4 q 44 -5 137 4 l 44 -5 q 40 19 40 1 q 44 45 39 37 l 44 45 q 131 69 124 51 l 131 69 q 142 197 142 96 l 142 197 l 142 353 q 130 464 142 441 l 130 464 q 91 484 123 477 q 44 491 60 491 l 44 491 q 41 513 41 493 q 45 533 41 533 l 45 533 q 190 560 116 538 q 310 605 264 582 l 310 605 q 325 594 317 603 q 333 582 333 585 z "},"î":{"ha":427,"x_min":39,"x_max":411,"o":"m 363 692 l 363 692 q 297 732 352 695 q 215 792 242 769 l 215 792 q 135 734 188 769 q 67 692 83 699 l 67 692 q 55 723 55 697 l 55 723 q 130 811 87 755 q 197 906 173 866 l 197 906 q 211 920 205 920 q 220 919 218 920 q 223 916 222 918 q 227 911 224 915 q 233 904 230 908 q 252 878 235 901 l 252 878 q 375 723 317 781 l 375 723 q 363 692 375 697 z m 333 582 l 333 582 q 318 419 318 537 l 318 419 l 318 197 q 329 69 318 96 l 329 69 q 406 45 336 50 l 406 45 q 411 19 411 37 q 406 -5 410 1 l 406 -5 q 225 4 313 4 q 44 -5 137 4 l 44 -5 q 40 19 40 1 q 44 45 39 37 l 44 45 q 131 69 124 51 l 131 69 q 142 197 142 96 l 142 197 l 142 353 q 130 464 142 441 l 130 464 q 91 484 123 477 q 44 491 60 491 l 44 491 q 41 513 41 493 q 45 533 41 533 l 45 533 q 190 560 116 538 q 310 605 264 582 l 310 605 q 325 594 317 603 q 333 582 333 585 z "},"ï":{"ha":427,"x_min":-7,"x_max":438,"o":"m 277 856 q 343 883 304 883 q 410 856 382 883 q 438 789 438 828 q 410 723 438 751 q 343 694 382 694 q 277 723 304 694 q 250 789 250 751 q 277 856 250 828 z m 21 856 q 88 883 50 883 q 154 856 127 883 q 182 789 182 828 q 154 723 182 751 q 88 694 127 694 q 21 723 50 694 q -7 789 -7 751 q 21 856 -7 828 z m 334 582 l 334 582 q 319 419 319 537 l 319 419 l 319 197 q 330 69 319 96 l 330 69 q 407 45 337 50 l 407 45 q 411 19 412 37 q 407 -5 411 1 l 407 -5 q 226 4 314 4 q 45 -5 138 4 l 45 -5 q 40 19 41 1 q 45 45 40 37 l 45 45 q 132 69 125 51 l 132 69 q 142 197 142 96 l 142 197 l 142 353 q 130 464 142 441 l 130 464 q 92 484 123 477 q 45 491 60 491 l 45 491 q 41 513 41 493 q 46 533 41 533 l 46 533 q 191 560 117 538 q 311 605 265 582 l 311 605 q 326 594 317 603 q 334 582 334 585 z "},"ð":{"ha":732,"x_min":45,"x_max":663,"o":"m 140 531 q 233 588 182 568 q 330 608 283 608 q 422 597 376 608 l 422 597 q 316 771 388 696 l 316 771 l 183 681 q 156 728 149 721 l 156 728 l 276 810 q 243 836 260 823 l 243 836 q 132 899 193 872 l 132 899 q 141 937 127 926 l 141 937 q 332 867 222 925 l 332 867 q 348 859 340 863 l 348 859 l 498 960 q 526 914 532 920 l 526 914 l 399 827 q 522 719 467 781 l 522 719 q 663 351 663 561 l 663 351 q 577 94 663 196 q 357 -8 490 -8 l 357 -8 q 113 95 206 -8 l 113 95 q 45 296 45 171 l 45 296 q 71 432 45 371 q 140 531 98 494 z m 435 509 l 435 509 q 365 551 406 551 q 298 528 323 551 q 259 465 273 505 l 259 465 q 232 284 232 389 q 273 114 232 179 q 359 49 314 49 l 359 49 q 469 213 448 49 l 469 213 q 475 305 475 256 l 475 305 q 435 509 475 430 z "},"ñ":{"ha":808,"x_min":35,"x_max":803,"o":"m 317 867 l 317 867 q 347 863 338 867 q 360 858 357 859 q 371 853 364 857 q 379 848 377 850 q 389 843 382 847 q 398 837 396 838 l 398 837 q 426 818 412 829 q 468 793 441 806 q 514 780 496 780 q 550 790 532 780 q 576 813 567 801 q 592 838 585 825 q 603 852 600 850 l 603 852 q 614 829 614 852 q 591 764 614 806 l 591 764 q 489 694 547 694 l 489 694 q 458 698 468 694 q 445 703 449 702 q 435 708 441 705 q 426 713 429 711 q 417 719 424 714 q 408 724 410 723 l 408 724 q 390 736 394 732 l 390 736 q 294 783 328 783 l 294 783 q 226 738 252 783 l 226 738 q 215 719 220 728 q 208 709 211 711 l 208 709 q 198 716 202 709 q 195 742 195 723 q 215 799 195 761 l 215 799 q 317 867 257 867 z m 326 503 q 415 572 358 539 q 517 605 473 605 q 595 592 562 605 q 648 554 627 578 q 680 490 669 530 l 680 490 q 701 285 701 418 l 701 285 l 701 197 q 711 69 701 96 l 711 69 q 798 45 718 51 l 798 45 q 803 19 803 37 q 798 -5 802 1 l 798 -5 q 621 4 705 4 q 443 -5 536 4 l 443 -5 q 438 19 439 1 q 443 45 438 37 l 443 45 q 515 73 506 50 q 524 197 524 96 l 524 197 l 524 304 q 433 495 524 495 l 433 495 q 354 468 395 495 q 314 419 314 441 l 314 419 l 314 197 q 325 69 314 96 l 325 69 q 402 45 332 50 l 402 45 q 407 19 407 37 q 402 -5 406 1 l 402 -5 q 221 4 309 4 q 40 -5 133 4 l 40 -5 q 36 19 36 1 q 40 45 35 37 l 40 45 q 127 69 120 51 l 127 69 q 138 197 138 96 l 138 197 l 138 353 q 125 464 138 441 l 125 464 q 87 484 119 477 q 40 491 56 491 l 40 491 q 37 513 37 493 q 41 533 37 533 l 41 533 q 186 560 112 538 q 306 605 260 582 l 306 605 q 320 596 312 605 q 328 582 329 587 q 324 558 328 577 l 324 558 q 315 503 315 509 q 317 496 315 498 l 317 496 q 326 503 319 496 l 326 503 z "},"ò":{"ha":722,"x_min":43,"x_max":678,"o":"m 199 876 l 199 876 q 215 902 199 888 q 263 916 231 916 q 308 903 296 916 l 308 903 q 393 786 352 853 q 434 715 434 720 q 426 701 434 710 q 410 692 418 692 q 352 726 403 692 q 250 807 300 761 q 199 876 199 852 z m 472 400 q 425 506 458 460 q 350 551 391 551 q 286 530 309 551 q 253 472 263 509 l 253 472 q 236 333 236 409 q 250 197 236 257 q 296 92 263 137 q 376 47 329 47 l 376 47 q 484 212 473 47 l 484 212 q 486 289 486 239 q 472 400 486 339 z m 43 294 q 135 515 43 423 q 363 606 227 606 q 589 521 499 606 q 678 305 678 435 l 678 305 q 637 148 678 220 q 523 33 595 76 q 362 -9 450 -9 l 362 -9 q 133 78 222 -9 q 43 294 43 165 z "},"ó":{"ha":722,"x_min":43,"x_max":678,"o":"m 429 903 l 429 903 q 473 916 441 916 q 522 902 506 916 q 537 876 537 888 l 537 876 q 487 807 537 852 q 385 726 436 761 q 326 692 334 692 q 311 701 319 692 q 302 715 302 710 q 323 753 302 720 l 323 753 q 429 903 385 853 z m 472 400 q 425 506 458 460 q 350 551 391 551 q 286 530 309 551 q 253 472 263 509 l 253 472 q 236 333 236 409 q 250 197 236 257 q 296 92 263 137 q 376 47 329 47 l 376 47 q 484 212 473 47 l 484 212 q 486 289 486 239 q 472 400 486 339 z m 43 294 q 135 515 43 423 q 363 606 227 606 q 589 521 499 606 q 678 305 678 435 l 678 305 q 637 148 678 220 q 523 33 595 76 q 362 -9 450 -9 l 362 -9 q 133 78 222 -9 q 43 294 43 165 z "},"ô":{"ha":722,"x_min":43,"x_max":678,"o":"m 511 692 l 511 692 q 446 732 500 695 q 363 792 391 769 l 363 792 q 284 734 336 769 q 216 692 231 699 l 216 692 q 203 723 203 697 l 203 723 q 279 811 236 755 q 346 906 321 866 l 346 906 q 360 920 353 920 q 369 919 366 920 q 372 916 371 918 q 376 911 373 915 q 381 904 378 908 q 400 878 384 901 l 400 878 q 524 723 465 781 l 524 723 q 511 692 524 697 z m 472 400 q 425 506 458 460 q 350 551 391 551 q 286 530 309 551 q 253 472 263 509 l 253 472 q 236 333 236 409 q 250 197 236 257 q 296 92 263 137 q 376 47 329 47 l 376 47 q 484 212 473 47 l 484 212 q 486 289 486 239 q 472 400 486 339 z m 43 294 q 135 515 43 423 q 363 606 227 606 q 589 521 499 606 q 678 305 678 435 l 678 305 q 637 148 678 220 q 523 33 595 76 q 362 -9 450 -9 l 362 -9 q 133 78 222 -9 q 43 294 43 165 z "},"õ":{"ha":722,"x_min":43,"x_max":678,"o":"m 279 867 l 279 867 q 310 863 300 867 q 323 858 319 859 q 333 853 327 857 q 342 848 340 850 q 352 843 345 847 q 361 837 359 838 l 361 837 q 389 818 374 829 q 431 793 404 806 q 477 780 458 780 q 512 790 495 780 q 538 813 530 801 q 555 838 547 825 q 566 852 563 850 l 566 852 q 576 829 576 852 q 553 764 576 806 l 553 764 q 452 694 510 694 l 452 694 q 421 698 431 694 q 408 703 412 702 q 398 708 404 705 q 389 713 391 711 q 379 719 387 714 q 370 724 372 723 l 370 724 q 353 736 357 732 l 353 736 q 256 783 290 783 l 256 783 q 189 738 214 783 l 189 738 q 178 719 182 728 q 171 709 174 711 l 171 709 q 161 716 165 709 q 157 742 157 723 q 178 799 157 761 l 178 799 q 279 867 220 867 z m 472 400 q 425 506 458 460 q 350 551 391 551 q 286 530 309 551 q 253 472 263 509 l 253 472 q 236 333 236 409 q 250 197 236 257 q 296 92 263 137 q 376 47 329 47 l 376 47 q 484 212 473 47 l 484 212 q 486 289 486 239 q 472 400 486 339 z m 43 294 q 135 515 43 423 q 363 606 227 606 q 589 521 499 606 q 678 305 678 435 l 678 305 q 637 148 678 220 q 523 33 595 76 q 362 -9 450 -9 l 362 -9 q 133 78 222 -9 q 43 294 43 165 z "},"ö":{"ha":722,"x_min":43,"x_max":678,"o":"m 415 856 q 481 883 443 883 q 548 856 520 883 q 576 789 576 828 q 548 723 576 751 q 481 694 520 694 q 415 723 443 694 q 388 789 388 751 q 415 856 388 828 z m 160 856 q 227 883 188 883 q 293 856 265 883 q 320 789 320 828 q 293 723 320 751 q 227 694 265 694 q 160 723 188 694 q 132 789 132 751 q 160 856 132 828 z m 472 400 q 425 506 458 460 q 350 551 391 551 q 286 530 309 551 q 253 472 263 509 l 253 472 q 236 333 236 409 q 250 197 236 257 q 296 92 263 137 q 376 47 329 47 l 376 47 q 484 212 473 47 l 484 212 q 486 289 486 239 q 472 400 486 339 z m 43 294 q 135 515 43 423 q 363 606 227 606 q 589 521 499 606 q 678 305 678 435 l 678 305 q 637 148 678 220 q 523 33 595 76 q 362 -9 450 -9 l 362 -9 q 133 78 222 -9 q 43 294 43 165 z "},"÷":{"ha":803,"x_min":77,"x_max":728,"o":"m 341 527 q 316 586 316 551 q 341 645 316 621 q 400 670 366 670 q 459 645 435 670 q 484 586 484 621 q 459 527 484 551 q 400 502 435 502 q 341 527 366 502 z m 341 27 q 316 87 316 52 q 341 146 316 121 q 400 171 366 171 q 459 146 435 171 q 484 87 484 121 q 459 27 484 52 q 400 3 435 3 q 341 27 366 3 z m 92 381 l 716 381 q 728 354 728 381 q 709 302 728 326 l 709 302 l 85 302 q 77 332 77 302 q 92 381 77 362 l 92 381 z "},"ø":{"ha":722,"x_min":43,"x_max":678,"o":"m 472 400 q 425 506 458 460 q 350 551 391 551 q 286 530 309 551 q 253 472 263 509 l 253 472 q 236 333 236 409 q 250 197 236 257 q 296 92 263 137 q 376 47 329 47 l 376 47 q 484 212 473 47 l 484 212 q 486 289 486 239 q 472 400 486 339 z m 43 294 q 135 515 43 423 q 363 606 227 606 q 589 521 499 606 q 678 305 678 435 l 678 305 q 637 148 678 220 q 523 33 595 76 q 362 -9 450 -9 l 362 -9 q 133 78 222 -9 q 43 294 43 165 z m 163 5 l 506 617 q 549 591 552 600 l 549 591 l 206 -22 q 163 5 160 -4 l 163 5 z "},"ù":{"ha":768,"x_min":12,"x_max":736,"o":"m 181 876 l 181 876 q 197 902 181 888 q 245 916 212 916 q 290 903 277 916 l 290 903 q 375 786 334 853 q 416 715 416 720 q 408 701 416 710 q 392 692 399 692 q 333 726 385 692 q 232 807 282 761 q 181 876 181 852 z m 304 582 l 304 582 q 290 419 290 537 l 290 419 l 290 297 q 312 129 290 182 q 395 76 335 76 l 395 76 q 453 93 423 76 q 482 126 482 111 l 482 126 l 482 353 q 470 464 482 441 l 470 464 q 432 484 463 477 q 385 491 400 491 l 385 491 q 381 513 381 493 q 386 533 381 533 l 386 533 q 531 560 456 538 q 650 605 605 582 l 650 605 q 665 594 657 603 q 673 582 673 585 l 673 582 q 659 419 659 537 l 659 419 l 659 146 q 671 95 659 109 q 732 81 683 81 l 732 81 q 736 64 736 77 q 728 38 736 50 l 728 38 q 586 12 670 33 q 494 -9 501 -9 l 494 -9 q 482 23 482 -9 l 482 23 l 482 45 q 478 52 482 54 l 478 52 q 287 -7 391 -7 l 287 -7 q 122 144 154 -7 l 122 144 q 113 236 113 186 l 113 236 l 113 353 q 101 464 113 441 l 101 464 q 63 484 94 477 q 16 491 31 491 l 16 491 q 12 513 12 493 q 17 533 12 533 l 17 533 q 162 560 87 538 q 281 605 236 582 l 281 605 q 296 594 288 603 q 304 582 304 585 z "},"ú":{"ha":768,"x_min":12,"x_max":736,"o":"m 462 903 l 462 903 q 507 916 474 916 q 555 902 539 916 q 570 876 570 888 l 570 876 q 520 807 570 852 q 418 726 469 761 q 359 692 367 692 q 344 701 352 692 q 336 715 336 710 q 356 753 336 720 l 356 753 q 462 903 418 853 z m 304 582 l 304 582 q 290 419 290 537 l 290 419 l 290 297 q 312 129 290 182 q 395 76 335 76 l 395 76 q 453 93 423 76 q 482 126 482 111 l 482 126 l 482 353 q 470 464 482 441 l 470 464 q 432 484 463 477 q 385 491 400 491 l 385 491 q 381 513 381 493 q 386 533 381 533 l 386 533 q 531 560 456 538 q 650 605 605 582 l 650 605 q 665 594 657 603 q 673 582 673 585 l 673 582 q 659 419 659 537 l 659 419 l 659 146 q 671 95 659 109 q 732 81 683 81 l 732 81 q 736 64 736 77 q 728 38 736 50 l 728 38 q 586 12 670 33 q 494 -9 501 -9 l 494 -9 q 482 23 482 -9 l 482 23 l 482 45 q 478 52 482 54 l 478 52 q 287 -7 391 -7 l 287 -7 q 122 144 154 -7 l 122 144 q 113 236 113 186 l 113 236 l 113 353 q 101 464 113 441 l 101 464 q 63 484 94 477 q 16 491 31 491 l 16 491 q 12 513 12 493 q 17 533 12 533 l 17 533 q 162 560 87 538 q 281 605 236 582 l 281 605 q 296 594 288 603 q 304 582 304 585 z "},"û":{"ha":768,"x_min":12,"x_max":736,"o":"m 515 692 l 515 692 q 449 732 504 695 q 367 792 394 769 l 367 792 q 287 734 340 769 q 219 692 235 699 l 219 692 q 207 723 207 697 l 207 723 q 282 811 239 755 q 349 906 325 866 l 349 906 q 363 920 357 920 q 372 919 370 920 q 375 916 374 918 q 379 911 376 915 q 385 904 382 908 q 404 878 387 901 l 404 878 q 527 723 469 781 l 527 723 q 515 692 527 697 z m 304 582 l 304 582 q 290 419 290 537 l 290 419 l 290 297 q 312 129 290 182 q 395 76 335 76 l 395 76 q 453 93 423 76 q 482 126 482 111 l 482 126 l 482 353 q 470 464 482 441 l 470 464 q 432 484 463 477 q 385 491 400 491 l 385 491 q 381 513 381 493 q 386 533 381 533 l 386 533 q 531 560 456 538 q 650 605 605 582 l 650 605 q 665 594 657 603 q 673 582 673 585 l 673 582 q 659 419 659 537 l 659 419 l 659 146 q 671 95 659 109 q 732 81 683 81 l 732 81 q 736 64 736 77 q 728 38 736 50 l 728 38 q 586 12 670 33 q 494 -9 501 -9 l 494 -9 q 482 23 482 -9 l 482 23 l 482 45 q 478 52 482 54 l 478 52 q 287 -7 391 -7 l 287 -7 q 122 144 154 -7 l 122 144 q 113 236 113 186 l 113 236 l 113 353 q 101 464 113 441 l 101 464 q 63 484 94 477 q 16 491 31 491 l 16 491 q 12 513 12 493 q 17 533 12 533 l 17 533 q 162 560 87 538 q 281 605 236 582 l 281 605 q 296 594 288 603 q 304 582 304 585 z "},"ü":{"ha":768,"x_min":12,"x_max":736,"o":"m 427 856 q 493 883 454 883 q 560 856 532 883 q 588 789 588 828 q 560 723 588 751 q 493 694 532 694 q 427 723 454 694 q 399 789 399 751 q 427 856 399 828 z m 171 856 q 238 883 199 883 q 304 856 277 883 q 332 789 332 828 q 304 723 332 751 q 238 694 277 694 q 171 723 199 694 q 143 789 143 751 q 171 856 143 828 z m 304 582 l 304 582 q 290 419 290 537 l 290 419 l 290 297 q 312 129 290 182 q 395 76 335 76 l 395 76 q 453 93 423 76 q 482 126 482 111 l 482 126 l 482 353 q 470 464 482 441 l 470 464 q 432 484 463 477 q 385 491 400 491 l 385 491 q 381 513 381 493 q 386 533 381 533 l 386 533 q 531 560 456 538 q 650 605 605 582 l 650 605 q 665 594 657 603 q 673 582 673 585 l 673 582 q 659 419 659 537 l 659 419 l 659 146 q 671 95 659 109 q 732 81 683 81 l 732 81 q 736 64 736 77 q 728 38 736 50 l 728 38 q 586 12 670 33 q 494 -9 501 -9 l 494 -9 q 482 23 482 -9 l 482 23 l 482 45 q 478 52 482 54 l 478 52 q 287 -7 391 -7 l 287 -7 q 122 144 154 -7 l 122 144 q 113 236 113 186 l 113 236 l 113 353 q 101 464 113 441 l 101 464 q 63 484 94 477 q 16 491 31 491 l 16 491 q 12 513 12 493 q 17 533 12 533 l 17 533 q 162 560 87 538 q 281 605 236 582 l 281 605 q 296 594 288 603 q 304 582 304 585 z "},"ý":{"ha":724,"x_min":-5,"x_max":729,"o":"m 481 903 l 481 903 q 526 916 494 916 q 574 902 559 916 q 590 876 590 888 l 590 876 q 539 807 590 852 q 438 726 489 761 q 379 692 387 692 q 363 701 372 692 q 355 715 355 710 q 376 753 355 720 l 376 753 q 481 903 437 853 z m 0 601 l 0 601 q 178 591 82 591 q 354 601 275 591 l 354 601 q 359 576 359 595 q 354 551 359 557 l 354 551 q 305 540 336 551 q 274 515 274 529 q 277 494 274 500 l 277 494 l 416 227 q 509 429 479 363 q 538 510 538 494 q 526 534 538 526 q 494 545 513 542 l 494 545 q 442 551 463 551 l 442 551 q 437 575 437 555 q 441 601 437 594 l 441 601 q 583 591 512 591 q 724 601 653 591 l 724 601 q 729 577 728 595 q 724 551 729 558 l 724 551 q 654 537 684 551 q 614 506 623 524 l 614 506 q 430 115 476 212 q 363 -24 383 18 q 335 -83 344 -66 l 335 -83 q 271 -182 307 -138 l 271 -182 q 99 -296 180 -296 l 99 -296 q 33 -274 58 -296 q 8 -217 8 -253 q 39 -160 8 -182 l 39 -160 q 175 -140 127 -160 q 263 -54 224 -119 l 263 -54 q 311 42 283 -20 l 311 42 l 85 499 q 45 538 74 526 q 0 551 16 551 l 0 551 q -5 577 -5 559 q 0 601 -5 594 z "},"þ":{"ha":726,"x_min":-11,"x_max":683,"o":"m 1 846 l 1 846 q -5 867 -7 846 q 1 890 -3 887 l 1 890 q 248 939 130 902 l 248 939 q 265 942 262 943 q 275 933 268 942 q 283 920 281 925 l 283 920 q 268 781 268 836 l 268 781 l 268 534 q 269 527 268 530 q 273 526 270 523 l 273 526 q 346 584 305 560 q 417 608 387 608 l 417 608 q 558 566 496 608 q 651 459 620 525 q 683 318 683 393 q 652 179 683 243 q 572 75 621 115 l 572 75 q 351 -11 469 -11 l 351 -11 q 297 -5 321 -11 q 271 1 273 1 q 268 -20 268 1 l 268 -20 l 268 -94 q 279 -221 268 -194 l 279 -221 q 366 -245 286 -239 l 366 -245 q 370 -271 370 -253 q 366 -296 370 -290 l 366 -296 q 180 -286 273 -286 q -6 -296 87 -286 l -6 -296 q -11 -271 -10 -290 q -6 -245 -11 -253 l -6 -245 q 81 -221 74 -239 l 81 -221 q 92 -94 92 -194 l 92 -94 l 92 757 q 82 822 92 799 l 82 822 q 48 840 77 833 q 1 846 19 846 z m 342 509 l 342 509 q 275 484 298 509 l 275 484 q 268 471 268 475 l 268 471 l 268 130 q 295 70 268 92 q 350 49 322 49 q 399 62 378 49 q 440 100 420 75 l 440 100 q 488 270 488 158 l 488 270 q 342 509 488 509 z "},"ÿ":{"ha":724,"x_min":-5,"x_max":729,"o":"m 447 856 q 513 883 474 883 q 579 856 551 883 q 608 789 608 828 q 579 723 608 751 q 513 694 551 694 q 447 723 474 694 q 419 789 419 751 q 447 856 419 828 z m 191 856 q 258 883 219 883 q 324 856 296 883 q 351 789 351 828 q 324 723 351 751 q 258 694 296 694 q 191 723 219 694 q 163 789 163 751 q 191 856 163 828 z m 0 601 l 0 601 q 178 591 82 591 q 354 601 275 591 l 354 601 q 359 576 359 595 q 354 551 359 557 l 354 551 q 305 540 336 551 q 274 515 274 529 q 277 494 274 500 l 277 494 l 416 227 q 509 429 479 363 q 538 510 538 494 q 526 534 538 526 q 494 545 513 542 l 494 545 q 442 551 463 551 l 442 551 q 437 575 437 555 q 441 601 437 594 l 441 601 q 583 591 512 591 q 724 601 653 591 l 724 601 q 729 577 728 595 q 724 551 729 558 l 724 551 q 654 537 684 551 q 614 506 623 524 l 614 506 q 430 115 476 212 q 363 -24 383 18 q 335 -83 344 -66 l 335 -83 q 271 -182 307 -138 l 271 -182 q 99 -296 180 -296 l 99 -296 q 33 -274 58 -296 q 8 -217 8 -253 q 39 -160 8 -182 l 39 -160 q 175 -140 127 -160 q 263 -54 224 -119 l 263 -54 q 311 42 283 -20 l 311 42 l 85 499 q 45 538 74 526 q 0 551 16 551 l 0 551 q -5 577 -5 559 q 0 601 -5 594 z "},"Ā":{"ha":916,"x_min":-18,"x_max":924,"o":"m 264 1002 l 264 1002 q 258 1018 258 1002 q 262 1045 258 1033 l 262 1045 q 278 1067 270 1067 l 278 1067 l 667 1067 q 675 1045 675 1067 q 656 1002 675 1023 l 656 1002 q 264 1002 460 1002 z m 127 182 l 127 182 l 416 846 q 440 880 423 861 q 466 898 456 898 l 466 898 q 495 888 490 898 l 495 888 l 773 201 q 794 148 783 178 q 812 100 806 117 q 836 71 819 84 q 870 53 852 58 l 870 53 q 918 45 901 45 l 918 45 q 924 17 923 36 q 921 -5 925 -1 l 921 -5 q 842 0 909 -5 q 743 5 774 5 q 673 3 711 5 q 591 -2 635 1 q 534 -5 547 -5 l 534 -5 q 529 22 529 0 q 534 45 529 45 l 534 45 q 614 69 586 45 l 614 69 q 627 88 627 79 l 627 88 q 566 250 627 103 l 566 250 l 545 298 q 525 304 540 304 q 411 305 510 305 q 264 304 312 305 l 264 304 q 255 297 258 304 l 255 297 q 176 91 176 121 l 176 91 q 259 47 176 60 l 259 47 q 281 45 275 45 l 281 45 q 286 18 286 37 q 282 -5 286 -1 l 282 -5 q 135 5 187 5 q -12 -5 83 5 l -12 -5 q -18 15 -16 -1 q -15 43 -19 32 l -15 43 q 35 58 0 43 q 80 87 71 72 l 80 87 q 127 182 103 125 z m 513 380 l 400 646 l 285 380 q 288 374 285 374 l 288 374 q 397 370 328 370 q 488 372 467 370 q 511 375 510 373 q 513 380 512 376 l 513 380 z "},"ā":{"ha":640,"x_min":42,"x_max":621,"o":"m 117 732 l 117 732 q 111 748 111 732 q 115 775 111 763 l 115 775 q 132 798 123 798 l 132 798 l 488 798 q 496 775 496 798 q 477 732 496 753 l 477 732 q 117 732 297 732 z m 225 168 q 252 106 226 128 q 304 84 277 84 q 347 95 331 84 q 363 113 363 105 l 363 113 l 363 302 q 325 285 359 300 q 274 259 290 269 l 274 259 q 225 168 222 226 l 225 168 z m 540 148 q 549 107 540 121 q 573 92 558 92 q 612 106 587 92 l 612 106 q 621 86 621 101 q 616 62 621 71 l 616 62 q 476 -8 538 -8 l 476 -8 q 413 13 444 -8 q 373 60 382 34 l 373 60 q 304 17 356 45 q 220 -11 252 -11 l 220 -11 q 94 40 145 -11 q 42 155 42 92 l 42 155 q 63 223 42 193 q 110 262 85 254 q 181 288 135 271 l 181 288 q 363 358 235 308 l 363 358 l 363 422 q 341 516 363 475 q 283 557 318 557 l 283 557 q 224 509 241 557 l 224 509 q 205 444 213 481 l 205 444 q 129 384 192 384 l 129 384 q 79 402 100 384 q 58 446 58 421 q 77 505 58 471 l 77 505 q 181 570 103 530 q 341 609 260 609 q 481 550 422 609 q 540 401 540 492 l 540 401 l 540 148 z "},"Ă":{"ha":916,"x_min":-18,"x_max":924,"o":"m 589 1122 l 589 1122 q 608 1110 596 1119 q 620 1096 620 1101 q 617 1085 620 1090 l 617 1085 q 551 1013 589 1038 q 471 987 512 987 q 391 1013 429 987 q 324 1085 352 1038 l 324 1085 q 321 1096 321 1090 q 333 1110 321 1101 q 353 1122 345 1119 l 353 1122 q 403 1079 371 1098 q 473 1061 435 1061 q 542 1078 511 1061 q 589 1122 573 1096 z m 127 182 l 127 182 l 416 846 q 440 880 423 861 q 466 898 456 898 l 466 898 q 495 888 490 898 l 495 888 l 773 201 q 794 148 783 178 q 812 100 806 117 q 836 71 819 84 q 870 53 852 58 l 870 53 q 918 45 901 45 l 918 45 q 924 17 923 36 q 921 -5 925 -1 l 921 -5 q 842 0 909 -5 q 743 5 774 5 q 673 3 711 5 q 591 -2 635 1 q 534 -5 547 -5 l 534 -5 q 529 22 529 0 q 534 45 529 45 l 534 45 q 614 69 586 45 l 614 69 q 627 88 627 79 l 627 88 q 566 250 627 103 l 566 250 l 545 298 q 525 304 540 304 q 411 305 510 305 q 264 304 312 305 l 264 304 q 255 297 258 304 l 255 297 q 176 91 176 121 l 176 91 q 259 47 176 60 l 259 47 q 281 45 275 45 l 281 45 q 286 18 286 37 q 282 -5 286 -1 l 282 -5 q 135 5 187 5 q -12 -5 83 5 l -12 -5 q -18 15 -16 -1 q -15 43 -19 32 l -15 43 q 35 58 0 43 q 80 87 71 72 l 80 87 q 127 182 103 125 z m 513 380 l 400 646 l 285 380 q 288 374 285 374 l 288 374 q 397 370 328 370 q 488 372 467 370 q 511 375 510 373 q 513 380 512 376 l 513 380 z "},"ă":{"ha":640,"x_min":42,"x_max":621,"o":"m 429 856 l 429 856 q 446 845 435 856 q 457 826 457 833 q 456 817 457 819 l 456 817 q 401 726 440 761 q 309 692 363 692 q 211 727 255 692 q 152 817 168 762 l 152 817 q 151 826 151 819 q 160 845 151 833 q 176 856 170 856 l 176 856 q 227 798 186 829 q 310 766 267 766 q 385 795 354 766 q 429 856 415 825 z m 225 168 q 252 106 226 128 q 304 84 277 84 q 347 95 331 84 q 363 113 363 105 l 363 113 l 363 302 q 325 285 359 300 q 274 259 290 269 l 274 259 q 225 168 222 226 l 225 168 z m 540 148 q 549 107 540 121 q 573 92 558 92 q 612 106 587 92 l 612 106 q 621 86 621 101 q 616 62 621 71 l 616 62 q 476 -8 538 -8 l 476 -8 q 413 13 444 -8 q 373 60 382 34 l 373 60 q 304 17 356 45 q 220 -11 252 -11 l 220 -11 q 94 40 145 -11 q 42 155 42 92 l 42 155 q 63 223 42 193 q 110 262 85 254 q 181 288 135 271 l 181 288 q 363 358 235 308 l 363 358 l 363 422 q 341 516 363 475 q 283 557 318 557 l 283 557 q 224 509 241 557 l 224 509 q 205 444 213 481 l 205 444 q 129 384 192 384 l 129 384 q 79 402 100 384 q 58 446 58 421 q 77 505 58 471 l 77 505 q 181 570 103 530 q 341 609 260 609 q 481 550 422 609 q 540 401 540 492 l 540 401 l 540 148 z "},"Ą":{"ha":910,"x_min":-18,"x_max":919,"o":"m 916 -5 l 916 -5 l 804 3 q 677 -96 699 -60 l 677 -96 q 666 -139 666 -116 q 682 -181 666 -162 q 733 -201 698 -201 q 834 -148 768 -201 l 834 -148 q 842 -158 842 -148 l 842 -158 q 833 -196 842 -182 q 808 -223 823 -209 q 771 -255 793 -238 l 771 -255 q 673 -296 719 -296 q 597 -267 628 -296 q 566 -187 566 -239 q 624 -74 566 -135 q 746 5 682 -14 l 746 5 l 739 5 q 621 0 694 5 q 534 -5 547 -5 l 534 -5 q 529 22 529 0 q 534 45 529 45 l 534 45 q 614 69 586 45 l 614 69 q 627 88 627 79 l 627 88 q 566 250 627 103 l 566 250 l 545 298 q 525 304 540 304 q 411 305 510 305 q 264 304 312 305 l 264 304 q 255 297 258 304 l 255 297 q 176 94 176 121 l 176 94 q 218 58 176 71 q 281 45 260 45 l 281 45 q 286 18 286 37 q 282 -5 286 -1 l 282 -5 q 135 5 187 5 q -12 -5 83 5 l -12 -5 q -18 15 -16 -1 q -15 43 -19 32 l -15 43 q 35 58 0 43 q 80 87 71 72 l 80 87 q 127 182 103 125 l 127 182 l 416 846 q 440 880 423 861 q 470 898 456 898 q 490 888 484 898 l 490 888 l 768 201 q 789 148 777 178 q 807 100 800 117 q 830 71 814 84 q 865 53 846 58 l 865 53 q 913 45 896 45 l 913 45 q 919 17 918 36 q 916 -5 920 -1 z m 288 374 l 288 374 q 397 370 328 370 q 488 372 467 370 q 511 375 510 373 q 513 380 512 376 l 513 380 l 400 646 l 285 380 q 288 374 285 374 z "},"ą":{"ha":640,"x_min":42,"x_max":621,"o":"m 540 148 q 549 107 540 121 q 573 92 558 92 q 612 106 587 92 l 612 106 q 621 86 621 101 q 616 62 621 71 l 616 62 q 548 13 578 31 q 510 -9 518 -4 q 487 -24 503 -14 q 462 -41 471 -33 q 439 -58 452 -48 q 417 -78 425 -68 q 401 -97 409 -87 l 401 -97 q 385 -139 385 -117 q 401 -181 385 -162 q 452 -201 417 -201 q 553 -148 487 -201 l 553 -148 q 562 -158 562 -148 l 562 -158 q 552 -196 562 -182 q 528 -223 543 -209 q 490 -255 513 -238 l 490 -255 q 393 -296 438 -296 q 316 -267 347 -296 q 285 -197 285 -239 q 312 -115 285 -155 l 312 -115 q 442 0 360 -45 l 442 0 q 401 24 424 4 q 373 60 379 43 l 373 60 q 304 17 356 45 q 220 -11 252 -11 l 220 -11 q 94 40 145 -11 q 42 155 42 92 l 42 155 q 63 223 42 193 q 110 262 85 254 q 181 288 135 271 l 181 288 q 363 358 235 308 l 363 358 l 363 422 q 341 516 363 475 q 283 557 318 557 l 283 557 q 224 509 241 557 l 224 509 q 205 444 213 481 l 205 444 q 129 384 192 384 l 129 384 q 79 402 100 384 q 58 446 58 421 q 77 505 58 471 l 77 505 q 181 570 103 530 q 341 609 260 609 q 481 550 422 609 q 540 401 540 492 l 540 401 l 540 148 z m 225 168 q 252 106 226 128 q 304 84 277 84 q 347 95 331 84 q 363 113 363 105 l 363 113 l 363 302 q 325 285 359 300 q 274 259 290 269 l 274 259 q 225 168 222 226 l 225 168 z "},"Ć":{"ha":914,"x_min":54,"x_max":873,"o":"m 474 987 q 459 998 465 987 q 453 1015 453 1008 q 512 1081 453 1022 q 616 1173 572 1139 l 616 1173 q 646 1179 627 1179 q 690 1165 665 1179 q 716 1128 716 1152 q 659 1070 716 1105 q 542 1011 601 1035 q 474 987 484 987 z m 806 879 l 806 879 l 852 674 q 840 661 852 668 q 816 654 829 654 q 798 659 803 654 l 798 659 q 760 740 787 704 q 707 796 734 775 l 707 796 q 536 846 640 846 l 536 846 q 414 816 467 846 q 331 732 361 785 l 331 732 q 271 477 271 627 l 271 477 q 340 185 271 310 l 340 185 q 431 87 374 123 q 563 50 489 50 l 563 50 q 731 109 668 50 l 731 109 q 780 172 757 132 l 780 172 q 826 277 817 236 l 826 277 q 873 260 855 277 l 873 260 q 852 151 873 241 q 818 54 831 60 l 818 54 q 727 22 759 33 l 727 22 q 512 -9 629 -9 q 288 48 395 -9 q 118 208 181 105 q 54 422 54 311 q 92 620 54 533 q 192 769 129 707 q 342 868 255 831 q 524 905 429 905 l 524 905 q 806 879 679 905 z "},"ć":{"ha":606,"x_min":42,"x_max":576,"o":"m 407 903 l 407 903 q 452 916 419 916 q 500 902 484 916 q 515 876 515 888 l 515 876 q 465 807 515 852 q 363 726 414 761 q 304 692 312 692 q 289 701 297 692 q 281 715 281 710 q 301 753 281 720 l 301 753 q 407 903 363 853 z m 533 583 l 533 583 q 560 520 560 553 q 538 460 560 486 q 481 434 516 434 l 481 434 q 447 446 460 434 q 428 463 433 457 q 413 480 422 468 l 413 480 q 308 537 367 537 l 308 537 q 257 507 279 537 l 257 507 q 213 365 213 448 q 231 232 213 282 q 278 154 249 181 l 278 154 q 417 102 335 102 q 560 170 498 102 l 560 170 q 572 160 567 168 q 576 139 576 152 q 569 114 576 125 q 541 82 562 102 q 490 40 521 62 l 490 40 q 334 -12 417 -12 q 186 21 250 -12 q 82 120 121 54 q 42 259 42 185 q 71 393 42 332 q 149 502 100 454 q 262 578 197 549 q 387 608 328 608 l 387 608 q 533 583 494 608 z "},"Ĉ":{"ha":914,"x_min":54,"x_max":873,"o":"m 699 990 l 699 990 q 625 1023 685 994 q 536 1072 566 1053 l 536 1072 q 448 1023 506 1052 q 373 990 389 994 l 373 990 q 359 1013 359 997 l 359 1013 q 430 1075 374 1024 q 507 1153 485 1126 q 535 1180 530 1180 q 563 1156 540 1180 l 563 1156 q 712 1013 659 1053 l 712 1013 q 699 990 712 995 z m 806 879 l 806 879 l 852 674 q 840 661 852 668 q 816 654 829 654 q 798 659 803 654 l 798 659 q 760 740 787 704 q 707 796 734 775 l 707 796 q 536 846 640 846 l 536 846 q 414 816 467 846 q 331 732 361 785 l 331 732 q 271 477 271 627 l 271 477 q 340 185 271 310 l 340 185 q 431 87 374 123 q 563 50 489 50 l 563 50 q 731 109 668 50 l 731 109 q 780 172 757 132 l 780 172 q 826 277 817 236 l 826 277 q 873 260 855 277 l 873 260 q 852 151 873 241 q 818 54 831 60 l 818 54 q 727 22 759 33 l 727 22 q 512 -9 629 -9 q 288 48 395 -9 q 118 208 181 105 q 54 422 54 311 q 92 620 54 533 q 192 769 129 707 q 342 868 255 831 q 524 905 429 905 l 524 905 q 806 879 679 905 z "},"ĉ":{"ha":606,"x_min":42,"x_max":576,"o":"m 476 692 l 476 692 q 410 732 465 695 q 328 792 355 769 l 328 792 q 249 734 301 769 q 180 692 196 699 l 180 692 q 168 723 168 697 l 168 723 q 243 811 201 755 q 311 906 286 866 l 311 906 q 325 920 318 920 q 333 919 331 920 q 337 916 336 918 q 340 911 338 915 q 346 904 343 908 q 365 878 349 901 l 365 878 q 488 723 430 781 l 488 723 q 476 692 488 697 z m 533 583 l 533 583 q 560 520 560 553 q 538 460 560 486 q 481 434 516 434 l 481 434 q 447 446 460 434 q 428 463 433 457 q 413 480 422 468 l 413 480 q 308 537 367 537 l 308 537 q 257 507 279 537 l 257 507 q 213 365 213 448 q 231 232 213 282 q 278 154 249 181 l 278 154 q 417 102 335 102 q 560 170 498 102 l 560 170 q 572 160 567 168 q 576 139 576 152 q 569 114 576 125 q 541 82 562 102 q 490 40 521 62 l 490 40 q 334 -12 417 -12 q 186 21 250 -12 q 82 120 121 54 q 42 259 42 185 q 71 393 42 332 q 149 502 100 454 q 262 578 197 549 q 387 608 328 608 l 387 608 q 533 583 494 608 z "},"Ċ":{"ha":914,"x_min":54,"x_max":873,"o":"m 478 1006 q 452 1072 452 1034 q 478 1137 452 1109 q 543 1164 505 1164 q 607 1137 580 1164 q 633 1072 633 1109 q 607 1006 633 1034 q 543 979 580 979 q 478 1006 505 979 z m 806 879 l 806 879 l 852 674 q 840 661 852 668 q 816 654 829 654 q 798 659 803 654 l 798 659 q 760 740 787 704 q 707 796 734 775 l 707 796 q 536 846 640 846 l 536 846 q 414 816 467 846 q 331 732 361 785 l 331 732 q 271 477 271 627 l 271 477 q 340 185 271 310 l 340 185 q 431 87 374 123 q 563 50 489 50 l 563 50 q 731 109 668 50 l 731 109 q 780 172 757 132 l 780 172 q 826 277 817 236 l 826 277 q 873 260 855 277 l 873 260 q 852 151 873 241 q 818 54 831 60 l 818 54 q 727 22 759 33 l 727 22 q 512 -9 629 -9 q 288 48 395 -9 q 118 208 181 105 q 54 422 54 311 q 92 620 54 533 q 192 769 129 707 q 342 868 255 831 q 524 905 429 905 l 524 905 q 806 879 679 905 z "},"ċ":{"ha":606,"x_min":42,"x_max":576,"o":"m 293 734 q 266 799 266 761 q 293 864 266 837 q 357 891 319 891 q 421 864 394 891 q 448 799 448 837 q 421 734 448 761 q 357 707 394 707 q 293 734 319 707 z m 533 583 l 533 583 q 560 520 560 553 q 538 460 560 486 q 481 434 516 434 l 481 434 q 447 446 460 434 q 428 463 433 457 q 413 480 422 468 l 413 480 q 308 537 367 537 l 308 537 q 257 507 279 537 l 257 507 q 213 365 213 448 q 231 232 213 282 q 278 154 249 181 l 278 154 q 417 102 335 102 q 560 170 498 102 l 560 170 q 572 160 567 168 q 576 139 576 152 q 569 114 576 125 q 541 82 562 102 q 490 40 521 62 l 490 40 q 334 -12 417 -12 q 186 21 250 -12 q 82 120 121 54 q 42 259 42 185 q 71 393 42 332 q 149 502 100 454 q 262 578 197 549 q 387 608 328 608 l 387 608 q 533 583 494 608 z "},"Č":{"ha":914,"x_min":54,"x_max":873,"o":"m 349 1153 l 349 1153 q 361 1179 349 1179 q 432 1148 374 1179 q 525 1095 490 1118 l 525 1095 q 618 1148 560 1118 q 685 1179 676 1179 l 685 1179 q 701 1153 701 1179 l 701 1153 q 544 1000 650 1114 l 544 1000 q 524 987 532 987 q 499 1008 516 987 q 431 1079 481 1029 q 349 1153 380 1128 z m 806 879 l 806 879 l 852 674 q 840 661 852 668 q 816 654 829 654 q 798 659 803 654 l 798 659 q 760 740 787 704 q 707 796 734 775 l 707 796 q 536 846 640 846 l 536 846 q 414 816 467 846 q 331 732 361 785 l 331 732 q 271 477 271 627 l 271 477 q 340 185 271 310 l 340 185 q 431 87 374 123 q 563 50 489 50 l 563 50 q 731 109 668 50 l 731 109 q 780 172 757 132 l 780 172 q 826 277 817 236 l 826 277 q 873 260 855 277 l 873 260 q 852 151 873 241 q 818 54 831 60 l 818 54 q 727 22 759 33 l 727 22 q 512 -9 629 -9 q 288 48 395 -9 q 118 208 181 105 q 54 422 54 311 q 92 620 54 533 q 192 769 129 707 q 342 868 255 831 q 524 905 429 905 l 524 905 q 806 879 679 905 z "},"č":{"ha":606,"x_min":42,"x_max":576,"o":"m 184 888 l 184 888 q 196 920 184 920 q 260 883 207 920 q 345 819 313 846 l 345 819 q 429 883 376 846 q 490 920 482 920 l 490 920 q 505 888 505 920 l 505 888 q 381 734 446 830 l 381 734 q 358 701 361 706 q 353 695 354 696 l 353 695 q 342 692 351 692 q 318 719 334 692 q 260 801 302 745 q 184 888 217 856 z m 533 583 l 533 583 q 560 520 560 553 q 538 460 560 486 q 481 434 516 434 l 481 434 q 447 446 460 434 q 428 463 433 457 q 413 480 422 468 l 413 480 q 308 537 367 537 l 308 537 q 257 507 279 537 l 257 507 q 213 365 213 448 q 231 232 213 282 q 278 154 249 181 l 278 154 q 417 102 335 102 q 560 170 498 102 l 560 170 q 572 160 567 168 q 576 139 576 152 q 569 114 576 125 q 541 82 562 102 q 490 40 521 62 l 490 40 q 334 -12 417 -12 q 186 21 250 -12 q 82 120 121 54 q 42 259 42 185 q 71 393 42 332 q 149 502 100 454 q 262 578 197 549 q 387 608 328 608 l 387 608 q 533 583 494 608 z "},"Ď":{"ha":1032,"x_min":47,"x_max":975,"o":"m 256 1153 l 256 1153 q 268 1179 256 1179 q 339 1148 281 1179 q 432 1095 397 1118 l 432 1095 q 525 1148 467 1118 q 592 1179 583 1179 l 592 1179 q 608 1153 608 1179 l 608 1153 q 451 1000 557 1114 l 451 1000 q 431 987 439 987 q 406 1008 423 987 q 338 1079 389 1029 q 256 1153 288 1128 z m 340 742 l 340 742 l 340 191 q 351 84 340 111 l 351 84 q 382 62 357 71 q 436 53 408 53 l 436 53 q 680 148 602 53 q 759 438 759 242 q 665 738 759 634 q 414 841 570 841 l 414 841 q 347 825 354 841 q 340 742 340 808 z m 52 895 l 52 895 q 204 891 113 891 q 454 895 295 891 l 454 895 q 727 844 610 895 q 909 692 844 792 q 975 456 975 593 l 975 456 q 757 66 975 186 l 757 66 q 444 -4 629 -4 l 444 -4 l 52 -4 q 48 20 48 2 q 52 46 47 39 l 52 46 q 139 69 132 52 l 139 69 q 150 197 150 96 l 150 197 l 150 696 q 139 823 150 796 l 139 823 q 52 845 133 839 l 52 845 q 48 871 47 852 q 52 895 48 889 z "},"ď":{"ha":784,"x_min":43,"x_max":876,"o":"m 718 847 q 744 894 718 873 q 798 916 770 916 q 850 906 825 916 l 850 906 q 876 818 876 871 q 840 704 876 766 q 746 589 804 642 l 746 589 q 725 595 737 589 q 712 606 712 601 l 712 606 q 769 730 769 668 l 769 730 q 743 798 769 775 q 718 847 718 821 z m 472 -9 l 472 -9 q 460 23 460 -9 l 460 23 l 460 45 q 456 52 460 54 l 456 52 q 289 -11 365 -11 l 289 -11 q 117 71 190 -11 q 43 271 43 153 l 43 271 q 68 394 43 337 q 133 489 94 451 q 220 553 172 526 l 220 553 q 399 605 312 605 l 399 605 q 453 602 431 605 l 453 602 q 460 633 460 602 l 460 633 l 460 757 q 450 822 460 799 l 450 822 q 416 840 446 833 q 369 846 387 846 l 369 846 q 363 867 361 846 q 369 890 366 887 l 369 890 q 617 939 498 902 l 617 939 q 633 942 630 943 q 643 933 636 942 q 651 920 650 925 l 651 920 q 636 783 636 859 l 636 783 l 636 146 q 648 95 636 109 q 709 81 661 81 l 709 81 q 713 64 713 77 q 705 38 713 50 l 705 38 q 563 12 648 33 q 472 -9 479 -9 z m 460 475 q 427 515 460 494 q 354 536 395 536 q 285 506 313 536 l 285 506 q 236 334 236 452 q 273 146 236 216 q 373 76 311 76 l 373 76 q 430 94 400 76 q 460 126 460 112 l 460 126 l 460 475 z "},"Đ":{"ha":1038,"x_min":39,"x_max":980,"o":"m 519 418 l 45 418 q 40 442 37 418 q 46 472 42 467 l 46 472 l 519 472 q 524 450 524 472 q 519 418 524 427 l 519 418 z m 345 742 l 345 742 l 345 191 q 356 84 345 111 l 356 84 q 388 62 362 71 q 441 53 414 53 l 441 53 q 686 148 607 53 q 764 438 764 242 q 670 738 764 634 q 420 841 576 841 l 420 841 q 352 825 359 841 q 345 742 345 808 z m 58 895 l 58 895 q 210 891 119 891 q 459 895 300 891 l 459 895 q 733 844 616 895 q 915 692 850 792 q 980 456 980 593 l 980 456 q 762 66 980 186 l 762 66 q 450 -4 634 -4 l 450 -4 l 58 -4 q 53 20 54 2 q 58 46 53 39 l 58 46 q 144 69 138 52 l 144 69 q 155 197 155 96 l 155 197 l 155 696 q 144 823 155 796 l 144 823 q 58 845 138 839 l 58 845 q 53 871 53 852 q 58 895 54 889 z "},"đ":{"ha":738,"x_min":43,"x_max":715,"o":"m 472 -9 l 472 -9 q 460 23 460 -9 l 460 23 l 460 45 q 456 52 460 54 l 456 52 q 289 -11 365 -11 l 289 -11 q 117 71 190 -11 q 43 271 43 153 l 43 271 q 68 394 43 337 q 133 489 94 451 q 220 553 172 526 l 220 553 q 399 605 312 605 l 399 605 q 453 602 431 605 l 453 602 q 460 633 460 602 l 460 633 l 460 757 q 450 822 460 799 l 450 822 q 416 840 446 833 q 369 846 387 846 l 369 846 q 363 867 361 846 q 369 890 366 887 l 369 890 q 617 939 498 902 l 617 939 q 633 942 630 943 q 643 933 636 942 q 651 920 650 925 l 651 920 q 636 783 636 859 l 636 783 l 636 146 q 648 95 636 109 q 709 81 661 81 l 709 81 q 713 64 713 77 q 705 38 713 50 l 705 38 q 563 12 648 33 q 472 -9 479 -9 z m 460 475 q 427 515 460 494 q 354 536 395 536 q 285 506 313 536 l 285 506 q 236 334 236 452 q 273 146 236 216 q 373 76 311 76 l 373 76 q 430 94 400 76 q 460 126 460 112 l 460 126 l 460 475 z m 711 715 l 711 715 l 264 715 q 259 737 257 715 q 266 765 262 760 l 266 765 l 711 765 q 715 745 715 765 q 711 715 715 724 z "},"Ē":{"ha":817,"x_min":47,"x_max":787,"o":"m 191 1002 l 191 1002 q 185 1018 185 1002 q 189 1045 185 1033 l 189 1045 q 205 1067 197 1067 l 205 1067 l 595 1067 q 603 1045 603 1067 q 584 1002 603 1023 l 584 1002 q 191 1002 387 1002 z m 52 895 l 52 895 q 224 891 113 891 q 687 901 336 891 l 687 901 q 708 787 693 857 q 726 700 723 718 l 726 700 q 699 693 720 693 q 673 704 677 693 l 673 704 q 581 831 634 808 l 581 831 q 527 841 557 841 l 527 841 l 414 841 q 347 825 354 841 q 340 742 340 808 l 340 742 l 340 499 q 358 489 340 493 q 398 484 376 484 l 398 484 l 470 484 q 551 502 530 484 q 589 579 573 519 l 589 579 q 608 590 591 590 q 631 583 625 590 l 631 583 l 631 323 q 608 317 626 317 q 588 328 590 317 l 588 328 q 544 409 570 397 q 429 420 517 420 q 340 401 340 420 l 340 401 l 340 191 q 351 84 340 111 l 351 84 q 382 64 356 71 q 439 57 409 57 l 439 57 l 528 57 q 652 99 610 57 q 728 231 694 141 l 728 231 q 743 239 730 239 l 743 239 q 787 231 779 239 l 787 231 q 771 186 785 222 q 752 132 758 149 q 737 86 747 115 l 737 86 q 714 -3 720 33 l 714 -3 q 52 -4 105 -3 l 52 -4 q 48 20 48 2 q 52 46 47 39 l 52 46 q 139 69 132 52 l 139 69 q 150 197 150 96 l 150 197 l 150 696 q 139 823 150 796 l 139 823 q 52 845 133 839 l 52 845 q 48 871 47 852 q 52 895 48 889 z "},"ē":{"ha":624,"x_min":43,"x_max":582,"o":"m 146 732 l 146 732 q 140 748 140 732 q 144 775 140 763 l 144 775 q 160 798 152 798 l 160 798 l 517 798 q 525 775 525 798 q 506 732 525 753 l 506 732 q 146 732 326 732 z m 221 382 l 221 382 q 301 386 230 382 q 396 393 372 390 l 396 393 q 414 415 414 395 l 414 415 q 393 510 414 469 q 338 551 373 551 q 280 531 303 551 q 245 484 258 512 l 245 484 q 221 382 221 427 z m 220 328 l 220 328 q 317 127 220 182 l 317 127 q 410 102 362 102 l 410 102 q 562 170 500 102 l 562 170 q 573 160 568 168 q 578 139 578 152 q 570 114 578 125 q 543 82 563 102 q 491 40 522 62 l 491 40 q 335 -12 418 -12 q 187 21 252 -12 q 83 120 123 54 q 43 270 43 185 q 86 433 43 355 q 198 558 128 511 q 332 606 269 606 q 437 592 395 606 q 505 557 479 578 q 549 507 531 535 l 549 507 q 582 401 582 456 l 582 401 q 571 362 582 379 q 545 345 560 345 l 545 345 q 220 328 423 334 z "},"Ĕ":{"ha":817,"x_min":47,"x_max":787,"o":"m 519 1122 l 519 1122 q 538 1110 526 1119 q 550 1096 550 1101 q 547 1085 550 1090 l 547 1085 q 481 1013 519 1038 q 401 987 442 987 q 321 1013 359 987 q 254 1085 282 1038 l 254 1085 q 252 1096 252 1090 q 263 1110 252 1101 q 283 1122 275 1119 l 283 1122 q 333 1079 301 1098 q 403 1061 365 1061 q 472 1078 441 1061 q 519 1122 503 1096 z m 52 895 l 52 895 q 224 891 113 891 q 687 901 336 891 l 687 901 q 708 787 693 857 q 726 700 723 718 l 726 700 q 699 693 720 693 q 673 704 677 693 l 673 704 q 581 831 634 808 l 581 831 q 527 841 557 841 l 527 841 l 414 841 q 347 825 354 841 q 340 742 340 808 l 340 742 l 340 499 q 358 489 340 493 q 398 484 376 484 l 398 484 l 470 484 q 551 502 530 484 q 589 579 573 519 l 589 579 q 608 590 591 590 q 631 583 625 590 l 631 583 l 631 323 q 608 317 626 317 q 588 328 590 317 l 588 328 q 544 409 570 397 q 429 420 517 420 q 340 401 340 420 l 340 401 l 340 191 q 351 84 340 111 l 351 84 q 382 64 356 71 q 439 57 409 57 l 439 57 l 528 57 q 652 99 610 57 q 728 231 694 141 l 728 231 q 743 239 730 239 l 743 239 q 787 231 779 239 l 787 231 q 771 186 785 222 q 752 132 758 149 q 737 86 747 115 l 737 86 q 714 -3 720 33 l 714 -3 q 52 -4 105 -3 l 52 -4 q 48 20 48 2 q 52 46 47 39 l 52 46 q 139 69 132 52 l 139 69 q 150 197 150 96 l 150 197 l 150 696 q 139 823 150 796 l 139 823 q 52 845 133 839 l 52 845 q 48 871 47 852 q 52 895 48 889 z "},"ĕ":{"ha":624,"x_min":43,"x_max":582,"o":"m 446 856 l 446 856 q 464 845 453 856 q 475 826 475 833 q 473 817 475 819 l 473 817 q 419 726 458 761 q 327 692 380 692 q 229 727 273 692 q 170 817 185 762 l 170 817 q 168 826 168 819 q 178 845 168 833 q 194 856 187 856 l 194 856 q 244 798 204 829 q 328 766 284 766 q 402 795 372 766 q 446 856 433 825 z m 221 382 l 221 382 q 301 386 230 382 q 396 393 372 390 l 396 393 q 414 415 414 395 l 414 415 q 393 510 414 469 q 338 551 373 551 q 280 531 303 551 q 245 484 258 512 l 245 484 q 221 382 221 427 z m 220 328 l 220 328 q 317 127 220 182 l 317 127 q 410 102 362 102 l 410 102 q 562 170 500 102 l 562 170 q 573 160 568 168 q 578 139 578 152 q 570 114 578 125 q 543 82 563 102 q 491 40 522 62 l 491 40 q 335 -12 418 -12 q 187 21 252 -12 q 83 120 123 54 q 43 270 43 185 q 86 433 43 355 q 198 558 128 511 q 332 606 269 606 q 437 592 395 606 q 505 557 479 578 q 549 507 531 535 l 549 507 q 582 401 582 456 l 582 401 q 571 362 582 379 q 545 345 560 345 l 545 345 q 220 328 423 334 z "},"Ė":{"ha":817,"x_min":47,"x_max":787,"o":"m 342 1006 q 315 1072 315 1034 q 342 1137 315 1109 q 406 1164 369 1164 q 470 1137 444 1164 q 497 1072 497 1109 q 470 1006 497 1034 q 406 979 444 979 q 342 1006 369 979 z m 52 895 l 52 895 q 224 891 113 891 q 687 901 336 891 l 687 901 q 708 787 693 857 q 726 700 723 718 l 726 700 q 699 693 720 693 q 673 704 677 693 l 673 704 q 581 831 634 808 l 581 831 q 527 841 557 841 l 527 841 l 414 841 q 347 825 354 841 q 340 742 340 808 l 340 742 l 340 499 q 358 489 340 493 q 398 484 376 484 l 398 484 l 470 484 q 551 502 530 484 q 589 579 573 519 l 589 579 q 608 590 591 590 q 631 583 625 590 l 631 583 l 631 323 q 608 317 626 317 q 588 328 590 317 l 588 328 q 544 409 570 397 q 429 420 517 420 q 340 401 340 420 l 340 401 l 340 191 q 351 84 340 111 l 351 84 q 382 64 356 71 q 439 57 409 57 l 439 57 l 528 57 q 652 99 610 57 q 728 231 694 141 l 728 231 q 743 239 730 239 l 743 239 q 787 231 779 239 l 787 231 q 771 186 785 222 q 752 132 758 149 q 737 86 747 115 l 737 86 q 714 -3 720 33 l 714 -3 q 52 -4 105 -3 l 52 -4 q 48 20 48 2 q 52 46 47 39 l 52 46 q 139 69 132 52 l 139 69 q 150 197 150 96 l 150 197 l 150 696 q 139 823 150 796 l 139 823 q 52 845 133 839 l 52 845 q 48 871 47 852 q 52 895 48 889 z "},"ė":{"ha":624,"x_min":43,"x_max":582,"o":"m 264 734 q 237 799 237 761 q 264 864 237 837 q 328 891 291 891 q 392 864 366 891 q 419 799 419 837 q 392 734 419 761 q 328 707 366 707 q 264 734 291 707 z m 221 382 l 221 382 q 301 386 230 382 q 396 393 372 390 l 396 393 q 414 415 414 395 l 414 415 q 393 510 414 469 q 338 551 373 551 q 280 531 303 551 q 245 484 258 512 l 245 484 q 221 382 221 427 z m 220 328 l 220 328 q 317 127 220 182 l 317 127 q 410 102 362 102 l 410 102 q 562 170 500 102 l 562 170 q 573 160 568 168 q 578 139 578 152 q 570 114 578 125 q 543 82 563 102 q 491 40 522 62 l 491 40 q 335 -12 418 -12 q 187 21 252 -12 q 83 120 123 54 q 43 270 43 185 q 86 433 43 355 q 198 558 128 511 q 332 606 269 606 q 437 592 395 606 q 505 557 479 578 q 549 507 531 535 l 549 507 q 582 401 582 456 l 582 401 q 571 362 582 379 q 545 345 560 345 l 545 345 q 220 328 423 334 z "},"Ę":{"ha":817,"x_min":47,"x_max":787,"o":"m 52 895 l 52 895 q 224 891 113 891 q 687 901 336 891 l 687 901 q 708 787 693 857 q 726 700 723 718 l 726 700 q 699 693 720 693 q 673 704 677 693 l 673 704 q 581 831 634 808 l 581 831 q 527 841 557 841 l 527 841 l 414 841 q 347 825 354 841 q 340 742 340 808 l 340 742 l 340 499 q 358 489 340 493 q 398 484 376 484 l 398 484 l 470 484 q 551 502 530 484 q 589 579 573 519 l 589 579 q 608 590 591 590 q 631 583 625 590 l 631 583 l 631 323 q 608 317 626 317 q 588 328 590 317 l 588 328 q 544 409 570 397 q 429 420 517 420 q 340 401 340 420 l 340 401 l 340 191 q 351 84 340 111 l 351 84 q 382 64 356 71 q 439 57 409 57 l 439 57 l 528 57 q 652 99 610 57 q 728 231 694 141 l 728 231 q 743 239 730 239 l 743 239 q 787 231 779 239 l 787 231 q 771 186 785 222 q 752 132 758 149 q 737 86 747 115 l 737 86 q 714 -3 720 33 l 714 -3 q 602 -57 656 -18 q 547 -137 547 -96 l 547 -137 q 563 -181 547 -162 q 614 -201 579 -201 q 715 -148 650 -201 l 715 -148 q 724 -158 724 -148 l 724 -158 q 714 -196 724 -182 q 690 -223 705 -209 q 652 -255 675 -238 l 652 -255 q 555 -296 600 -296 q 478 -267 509 -296 q 447 -188 447 -239 q 501 -81 447 -138 q 619 -3 555 -25 l 619 -3 l 227 -3 q 52 -4 86 -3 l 52 -4 q 48 20 48 2 q 52 46 47 39 l 52 46 q 139 69 132 52 l 139 69 q 150 197 150 96 l 150 197 l 150 696 q 139 823 150 796 l 139 823 q 52 845 133 839 l 52 845 q 48 871 47 852 q 52 895 48 889 z "},"ę":{"ha":624,"x_min":43,"x_max":582,"o":"m 574 119 l 574 119 q 494 39 550 83 l 494 39 q 385 -137 385 -44 l 385 -137 q 401 -181 385 -162 q 452 -201 417 -201 q 553 -148 487 -201 l 553 -148 q 562 -158 562 -148 l 562 -158 q 552 -196 562 -182 q 528 -223 543 -209 q 490 -255 513 -238 l 490 -255 q 393 -296 438 -296 q 316 -267 347 -296 q 285 -188 285 -239 q 312 -89 285 -138 q 376 -8 340 -39 l 376 -8 q 328 -12 353 -12 l 328 -12 q 187 21 252 -12 q 83 120 123 54 q 43 270 43 185 q 86 433 43 355 q 198 558 128 511 q 332 606 269 606 q 437 592 395 606 q 505 557 479 578 q 549 507 531 535 l 549 507 q 582 401 582 456 l 582 401 q 571 362 582 379 q 545 345 560 345 l 545 345 q 220 328 423 334 l 220 328 q 317 127 220 182 l 317 127 q 410 102 362 102 l 410 102 q 562 170 500 102 l 562 170 q 573 160 568 168 q 578 139 578 152 q 574 119 578 125 z m 221 382 l 221 382 q 301 386 230 382 q 396 393 372 390 l 396 393 q 414 415 414 395 l 414 415 q 393 510 414 469 q 338 551 373 551 q 280 531 303 551 q 245 484 258 512 l 245 484 q 221 382 221 427 z "},"Ě":{"ha":817,"x_min":47,"x_max":787,"o":"m 218 1153 l 218 1153 q 230 1179 218 1179 q 301 1148 243 1179 q 394 1095 359 1118 l 394 1095 q 487 1148 429 1118 q 554 1179 545 1179 l 554 1179 q 570 1153 570 1179 l 570 1153 q 413 1000 519 1114 l 413 1000 q 393 987 401 987 q 368 1008 385 987 q 300 1079 351 1029 q 218 1153 250 1128 z m 52 895 l 52 895 q 224 891 113 891 q 687 901 336 891 l 687 901 q 708 787 693 857 q 726 700 723 718 l 726 700 q 699 693 720 693 q 673 704 677 693 l 673 704 q 581 831 634 808 l 581 831 q 527 841 557 841 l 527 841 l 414 841 q 347 825 354 841 q 340 742 340 808 l 340 742 l 340 499 q 358 489 340 493 q 398 484 376 484 l 398 484 l 470 484 q 551 502 530 484 q 589 579 573 519 l 589 579 q 608 590 591 590 q 631 583 625 590 l 631 583 l 631 323 q 608 317 626 317 q 588 328 590 317 l 588 328 q 544 409 570 397 q 429 420 517 420 q 340 401 340 420 l 340 401 l 340 191 q 351 84 340 111 l 351 84 q 382 64 356 71 q 439 57 409 57 l 439 57 l 528 57 q 652 99 610 57 q 728 231 694 141 l 728 231 q 743 239 730 239 l 743 239 q 787 231 779 239 l 787 231 q 771 186 785 222 q 752 132 758 149 q 737 86 747 115 l 737 86 q 714 -3 720 33 l 714 -3 q 52 -4 105 -3 l 52 -4 q 48 20 48 2 q 52 46 47 39 l 52 46 q 139 69 132 52 l 139 69 q 150 197 150 96 l 150 197 l 150 696 q 139 823 150 796 l 139 823 q 52 845 133 839 l 52 845 q 48 871 47 852 q 52 895 48 889 z "},"ě":{"ha":624,"x_min":43,"x_max":582,"o":"m 171 888 l 171 888 q 182 920 171 920 q 246 883 193 920 q 331 819 299 846 l 331 819 q 416 883 363 846 q 476 920 469 920 l 476 920 q 491 888 491 920 l 491 888 q 368 734 433 830 l 368 734 q 344 701 348 706 q 339 695 340 696 l 339 695 q 329 692 337 692 q 305 719 321 692 q 246 801 289 745 q 171 888 203 856 z m 221 382 l 221 382 q 301 386 230 382 q 396 393 372 390 l 396 393 q 414 415 414 395 l 414 415 q 393 510 414 469 q 338 551 373 551 q 280 531 303 551 q 245 484 258 512 l 245 484 q 221 382 221 427 z m 220 328 l 220 328 q 317 127 220 182 l 317 127 q 410 102 362 102 l 410 102 q 562 170 500 102 l 562 170 q 573 160 568 168 q 578 139 578 152 q 570 114 578 125 q 543 82 563 102 q 491 40 522 62 l 491 40 q 335 -12 418 -12 q 187 21 252 -12 q 83 120 123 54 q 43 270 43 185 q 86 433 43 355 q 198 558 128 511 q 332 606 269 606 q 437 592 395 606 q 505 557 479 578 q 549 507 531 535 l 549 507 q 582 401 582 456 l 582 401 q 571 362 582 379 q 545 345 560 345 l 545 345 q 220 328 423 334 z "},"Ĝ":{"ha":979,"x_min":54,"x_max":957,"o":"m 692 990 l 692 990 q 618 1023 678 994 q 529 1072 559 1053 l 529 1072 q 441 1023 499 1052 q 366 990 382 994 l 366 990 q 353 1013 353 997 l 353 1013 q 423 1075 368 1024 q 500 1153 478 1126 q 528 1180 523 1180 q 556 1156 533 1180 l 556 1156 q 705 1013 652 1053 l 705 1013 q 692 990 705 995 z m 806 879 l 806 879 l 852 674 q 840 661 852 668 q 816 654 829 654 q 798 659 803 654 l 798 659 q 709 796 774 745 l 709 796 q 538 846 644 846 l 538 846 q 308 685 372 846 l 308 685 q 271 491 271 593 q 290 315 271 390 q 343 181 308 241 q 434 85 378 121 q 553 49 490 49 q 665 71 616 49 l 665 71 q 677 91 677 77 l 677 91 l 677 248 q 671 313 677 292 q 646 342 666 333 l 646 342 q 581 354 617 354 l 581 354 q 575 376 575 354 q 579 404 574 399 l 579 404 l 787 396 l 954 404 q 957 371 959 387 q 952 354 954 354 l 952 354 q 916 348 942 354 q 882 338 890 342 l 882 338 q 864 278 864 326 l 864 278 l 864 133 l 872 94 q 820 57 872 77 q 733 25 768 37 l 733 25 q 512 -9 629 -9 q 287 48 394 -9 q 117 209 180 106 q 54 436 54 311 q 117 669 54 562 q 289 841 180 777 q 538 905 397 905 q 806 879 679 905 z "},"ĝ":{"ha":648,"x_min":33,"x_max":636,"o":"m 450 692 l 450 692 q 385 732 439 695 q 302 792 330 769 l 302 792 q 223 734 275 769 q 155 692 170 699 l 155 692 q 142 723 142 697 l 142 723 q 218 811 175 755 q 285 906 260 866 l 285 906 q 299 920 292 920 q 308 919 305 920 q 311 916 310 918 q 315 911 312 915 q 320 904 317 908 q 339 878 323 901 l 339 878 q 463 723 404 781 l 463 723 q 450 692 463 697 z m 346 524 l 346 524 q 296 551 325 551 q 251 539 267 551 q 228 505 235 528 l 228 505 q 217 422 217 469 q 226 339 217 375 q 257 277 235 304 q 304 251 280 251 q 339 256 328 251 q 358 267 351 260 q 370 286 365 273 q 377 308 375 299 q 381 334 380 316 q 382 359 382 352 l 382 359 q 382 387 382 359 l 382 387 q 346 524 382 479 z m 353 -19 l 353 -19 l 203 -19 q 182 -79 182 -44 l 182 -79 q 227 -182 182 -144 q 331 -220 272 -220 q 424 -209 391 -220 q 473 -180 457 -198 l 473 -180 q 505 -106 505 -146 q 462 -42 505 -66 q 353 -19 420 -19 z m 263 132 l 263 132 q 452 130 418 132 q 523 111 486 127 q 579 71 559 94 l 579 71 q 623 -19 623 22 l 623 -19 q 570 -163 623 -98 q 435 -261 517 -227 q 256 -296 352 -296 q 96 -252 159 -296 q 33 -140 33 -209 l 33 -140 q 68 -66 33 -102 q 148 -8 104 -30 l 148 -8 q 90 41 114 1 q 66 125 66 81 l 66 125 q 101 171 66 142 q 179 224 136 200 l 179 224 q 87 294 121 248 q 53 399 53 341 l 53 399 q 124 542 53 484 q 294 601 195 601 q 444 567 393 601 l 444 567 q 452 563 448 563 l 452 563 l 621 579 q 636 565 636 574 q 624 530 636 556 q 602 496 612 503 l 602 496 q 526 505 576 498 l 526 505 q 518 500 518 505 l 518 500 q 547 406 547 461 l 547 406 q 476 260 547 320 q 301 201 405 201 l 301 201 q 231 208 267 201 l 231 208 q 198 166 198 181 q 218 141 198 151 q 263 132 237 132 z "},"Ğ":{"ha":979,"x_min":54,"x_max":957,"o":"m 624 1122 l 624 1122 q 643 1110 631 1119 q 655 1096 655 1101 q 652 1085 655 1090 l 652 1085 q 586 1013 625 1038 q 506 987 547 987 q 426 1013 465 987 q 359 1085 387 1038 l 359 1085 q 357 1096 357 1090 q 369 1110 357 1101 q 388 1122 380 1119 l 388 1122 q 438 1079 406 1098 q 508 1061 470 1061 q 577 1078 546 1061 q 624 1122 608 1096 z m 806 879 l 806 879 l 852 674 q 840 661 852 668 q 816 654 829 654 q 798 659 803 654 l 798 659 q 709 796 774 745 l 709 796 q 538 846 644 846 l 538 846 q 308 685 372 846 l 308 685 q 271 491 271 593 q 290 315 271 390 q 343 181 308 241 q 434 85 378 121 q 553 49 490 49 q 665 71 616 49 l 665 71 q 677 91 677 77 l 677 91 l 677 248 q 671 313 677 292 q 646 342 666 333 l 646 342 q 581 354 617 354 l 581 354 q 575 376 575 354 q 579 404 574 399 l 579 404 l 787 396 l 954 404 q 957 371 959 387 q 952 354 954 354 l 952 354 q 916 348 942 354 q 882 338 890 342 l 882 338 q 864 278 864 326 l 864 278 l 864 133 l 872 94 q 820 57 872 77 q 733 25 768 37 l 733 25 q 512 -9 629 -9 q 287 48 394 -9 q 117 209 180 106 q 54 436 54 311 q 117 669 54 562 q 289 841 180 777 q 538 905 397 905 q 806 879 679 905 z "},"ğ":{"ha":648,"x_min":33,"x_max":636,"o":"m 426 856 l 426 856 q 444 845 433 856 q 454 826 454 833 q 453 817 454 819 l 453 817 q 399 726 437 761 q 306 692 360 692 q 209 727 252 692 q 149 817 165 762 l 149 817 q 148 826 148 819 q 157 845 148 833 q 174 856 167 856 l 174 856 q 224 798 184 829 q 308 766 264 766 q 382 795 351 766 q 426 856 412 825 z m 346 524 l 346 524 q 296 551 325 551 q 251 539 267 551 q 228 505 235 528 l 228 505 q 217 422 217 469 q 226 339 217 375 q 257 277 235 304 q 304 251 280 251 q 339 256 328 251 q 358 267 351 260 q 370 286 365 273 q 377 308 375 299 q 381 334 380 316 q 382 359 382 352 l 382 359 q 382 387 382 359 l 382 387 q 346 524 382 479 z m 353 -19 l 353 -19 l 203 -19 q 182 -79 182 -44 l 182 -79 q 227 -182 182 -144 q 331 -220 272 -220 q 424 -209 391 -220 q 473 -180 457 -198 l 473 -180 q 505 -106 505 -146 q 462 -42 505 -66 q 353 -19 420 -19 z m 263 132 l 263 132 q 452 130 418 132 q 523 111 486 127 q 579 71 559 94 l 579 71 q 623 -19 623 22 l 623 -19 q 570 -163 623 -98 q 435 -261 517 -227 q 256 -296 352 -296 q 96 -252 159 -296 q 33 -140 33 -209 l 33 -140 q 68 -66 33 -102 q 148 -8 104 -30 l 148 -8 q 90 41 114 1 q 66 125 66 81 l 66 125 q 101 171 66 142 q 179 224 136 200 l 179 224 q 87 294 121 248 q 53 399 53 341 l 53 399 q 124 542 53 484 q 294 601 195 601 q 444 567 393 601 l 444 567 q 452 563 448 563 l 452 563 l 621 579 q 636 565 636 574 q 624 530 636 556 q 602 496 612 503 l 602 496 q 526 505 576 498 l 526 505 q 518 500 518 505 l 518 500 q 547 406 547 461 l 547 406 q 476 260 547 320 q 301 201 405 201 l 301 201 q 231 208 267 201 l 231 208 q 198 166 198 181 q 218 141 198 151 q 263 132 237 132 z "},"Ġ":{"ha":979,"x_min":54,"x_max":957,"o":"m 478 1006 q 452 1072 452 1034 q 478 1137 452 1109 q 543 1164 505 1164 q 607 1137 580 1164 q 633 1072 633 1109 q 607 1006 633 1034 q 543 979 580 979 q 478 1006 505 979 z m 806 879 l 806 879 l 852 674 q 840 661 852 668 q 816 654 829 654 q 798 659 803 654 l 798 659 q 709 796 774 745 l 709 796 q 538 846 644 846 l 538 846 q 308 685 372 846 l 308 685 q 271 491 271 593 q 290 315 271 390 q 343 181 308 241 q 434 85 378 121 q 553 49 490 49 q 665 71 616 49 l 665 71 q 677 91 677 77 l 677 91 l 677 248 q 671 313 677 292 q 646 342 666 333 l 646 342 q 581 354 617 354 l 581 354 q 575 376 575 354 q 579 404 574 399 l 579 404 l 787 396 l 954 404 q 957 371 959 387 q 952 354 954 354 l 952 354 q 916 348 942 354 q 882 338 890 342 l 882 338 q 864 278 864 326 l 864 278 l 864 133 l 872 94 q 820 57 872 77 q 733 25 768 37 l 733 25 q 512 -9 629 -9 q 287 48 394 -9 q 117 209 180 106 q 54 436 54 311 q 117 669 54 562 q 289 841 180 777 q 538 905 397 905 q 806 879 679 905 z "}}}
